<svg width="35" height="41" viewBox="0 0 35 41" fill="none" xmlns="http://www.w3.org/2000/svg">
<path fill-rule="evenodd" clip-rule="evenodd" d="M17.2048 31.1249C25.7997 31.1249 32.7673 24.1573 32.7673 15.5624C32.7673 6.96754 25.7997 0 17.2048 0C8.60993 0 1.64238 6.96754 1.64238 15.5624C1.64238 24.1573 8.60993 31.1249 17.2048 31.1249ZM29.7673 15.5624C29.7673 22.5005 24.1429 28.1249 17.2048 28.1249C10.2668 28.1249 4.64238 22.5005 4.64238 15.5624C4.64238 8.6244 10.2668 3 17.2048 3C24.1429 3 29.7673 8.6244 29.7673 15.5624ZM0 40.5488H34.4102H34.6833V37.5488H34.4102H0V40.5488Z" fill="#40BE46"/>
</svg>
