<svg width="65" height="15" viewBox="0 0 65 15" fill="none" xmlns="http://www.w3.org/2000/svg">
<path d="M9.26828 13.9702L0 9.81218V7.81088L9.26828 3.65285V6.29534L3.68542 8.84067L9.26828 11.3083V13.9702Z" fill="#2E62C1"/>
<path d="M19.8687 6.00389L18.1355 8.14119C17.9774 7.90803 17.7463 7.72021 17.4422 7.57772C17.1503 7.43523 16.8523 7.36399 16.5482 7.36399C15.9279 7.36399 15.4231 7.6101 15.0339 8.10233C14.6447 8.58161 14.4501 9.16451 14.4501 9.85104C14.4501 10.5376 14.6447 11.1205 15.0339 11.5997C15.4231 12.079 15.94 12.3187 16.5847 12.3187C17.2901 12.3187 17.8314 12.079 18.2084 11.5997L19.8687 13.7565C19.0659 14.5855 17.9469 15 16.5117 15C15.04 15 13.8237 14.5337 12.8628 13.601C11.9019 12.6684 11.4214 11.4184 11.4214 9.85104C11.4214 8.30959 11.9019 7.06606 12.8628 6.12047C13.8358 5.17487 15.046 4.70207 16.4935 4.70207C17.1381 4.70207 17.7706 4.82513 18.3909 5.07124C19.0234 5.3044 19.516 5.61528 19.8687 6.00389Z" fill="#2E62C1"/>
<path d="M29.2269 6.10104C30.2 7.03368 30.6865 8.27073 30.6865 9.81218C30.6865 11.3536 30.2 12.6036 29.2269 13.5622C28.2539 14.5207 27.0558 15 25.6327 15C24.2218 15 23.0298 14.5207 22.0568 13.5622C21.0837 12.6036 20.5972 11.3536 20.5972 9.81218C20.5972 8.27073 21.0837 7.03368 22.0568 6.10104C23.0298 5.16839 24.2218 4.70207 25.6327 4.70207C27.0558 4.70207 28.2539 5.16839 29.2269 6.10104ZM27.8039 9.81218C27.8039 9.15155 27.6092 8.57513 27.22 8.0829C26.8308 7.59067 26.3017 7.34456 25.6327 7.34456C24.9638 7.34456 24.4408 7.59067 24.0637 8.0829C23.6866 8.56218 23.4981 9.1386 23.4981 9.81218C23.4981 10.4858 23.6866 11.0751 24.0637 11.5803C24.4529 12.0725 24.982 12.3187 25.651 12.3187C26.32 12.3187 26.843 12.0725 27.22 11.5803C27.6092 11.0751 27.8039 10.4858 27.8039 9.81218Z" fill="#2E62C1"/>
<path d="M42.2141 14.6891H39.4592V13.4262H39.4227C39.1308 13.9054 38.7112 14.2811 38.1638 14.5531C37.6286 14.8251 37.057 14.9611 36.4488 14.9611C35.1352 14.9611 34.0831 14.4624 33.2925 13.465C32.5141 12.4547 32.1248 11.237 32.1248 9.81218C32.1248 8.41321 32.5201 7.2215 33.3107 6.23705C34.1013 5.23964 35.1352 4.74093 36.4123 4.74093C37.5678 4.74093 38.4922 5.17487 39.1855 6.04275H39.222V0H42.2141V14.6891ZM39.3497 9.83161C39.3497 9.18394 39.143 8.60751 38.7294 8.10233C38.328 7.59715 37.805 7.34456 37.1604 7.34456C36.4914 7.34456 35.9623 7.59067 35.5731 8.0829C35.196 8.56218 35.0075 9.1386 35.0075 9.81218C35.0075 10.4987 35.196 11.0881 35.5731 11.5803C35.9623 12.0725 36.4914 12.3187 37.1604 12.3187C37.805 12.3187 38.328 12.0725 38.7294 11.5803C39.143 11.0751 39.3497 10.4922 39.3497 9.83161Z" fill="#2E62C1"/>
<path d="M46.9979 8.74352H50.8476C50.8476 8.21243 50.6894 7.77202 50.3732 7.42228C50.0691 7.07254 49.6313 6.89767 49.0596 6.89767C48.5001 6.89767 48.0257 7.07902 47.6365 7.44171C47.2473 7.8044 47.0344 8.23834 46.9979 8.74352ZM53.6025 9.96762C53.6025 10.3174 53.5964 10.5699 53.5843 10.7254H46.9979C47.0466 11.2435 47.2838 11.6775 47.7095 12.0272C48.1352 12.3769 48.6217 12.5518 49.1691 12.5518C50.0448 12.5518 50.7138 12.215 51.176 11.5414L53.2559 12.9404C52.368 14.3135 50.9935 15 49.1326 15C47.7095 15 46.5175 14.5466 45.5566 13.6399C44.6079 12.7202 44.1335 11.4702 44.1335 9.8899C44.1335 8.33549 44.5957 7.08549 45.5201 6.1399C46.4567 5.18135 47.6304 4.70207 49.0413 4.70207C50.4036 4.70207 51.5044 5.17487 52.3436 6.12047C53.1829 7.05311 53.6025 8.33549 53.6025 9.96762Z" fill="#2E62C1"/>
<path d="M65 9.81218L55.7317 13.9702V11.3083L61.3146 8.84067L55.7317 6.29534V3.65285L65 7.81088V9.81218Z" fill="#2E62C1"/>
</svg>
