<svg width="53" height="56" viewBox="0 0 53 56" fill="none" xmlns="http://www.w3.org/2000/svg">
<path d="M46.0784 8.29201L32.5138 1.40791C28.6266 -0.564169 24.0443 -0.458941 20.255 1.68852L6.39834 9.54696C2.45175 11.7854 0 15.9569 0 20.4363V35.6996C0 40.2713 2.5284 44.4869 6.59789 46.6994L20.8286 54.437C22.7464 55.4789 24.8822 56 27.0181 56C29.2544 56 31.4907 55.4296 33.472 54.2915L45.9025 47.1528C46.0399 47.0802 46.1735 47.0035 46.3004 46.9241L46.6637 46.7165C50.572 44.4688 53 40.3104 53 35.8609V19.4619C53 14.7383 50.3474 10.459 46.0784 8.29201ZM4.62592 20.4363C4.62592 17.5782 6.19082 14.915 8.70998 13.4859L22.568 5.62748C23.8341 4.90907 25.2378 4.5492 26.6453 4.5492C27.926 4.5492 29.2096 4.84802 30.3925 5.44821L35.6316 8.10753C35.4797 8.17898 35.3289 8.25302 35.1783 8.33357C34.3917 8.75319 31.9996 10.0289 18.7152 22.889C12.3869 29.0143 6.52654 34.9268 6.21859 35.2374C6.02694 35.4269 5.34757 36.1388 4.78189 37.2575C4.68014 36.7493 4.62592 36.2285 4.62592 35.6996V20.4363ZM26.3308 33.5445L21.2555 28.5557C20.9846 28.2895 20.9846 27.8399 21.2555 27.5737L26.3308 22.585C26.4657 22.4512 26.6479 22.385 26.8304 22.385C27.0129 22.385 27.1953 22.4512 27.3301 22.585L32.4054 27.5737C32.6762 27.8399 32.6762 28.2895 32.4054 28.5557L27.3301 33.5445C27.059 33.8107 26.6018 33.8107 26.3308 33.5445ZM31.1379 50.3644C28.6661 51.7843 25.5735 51.8193 23.0689 50.4577L9.49109 43.0748C8.6756 41.9797 8.40467 40.9533 8.66901 39.9467C8.88312 39.1295 9.38535 38.5617 9.4792 38.4617L9.52281 38.4176C11.7485 36.1699 14.3629 33.5613 17.0895 30.8799C20.4598 34.3564 28.0159 42.0979 31.0374 44.7612C32.6419 46.1747 34.4869 47.0061 36.1352 47.4945L31.1379 50.3644ZM48.374 35.8609C48.374 38.7007 46.8238 41.3562 44.3296 42.7891L43.8777 43.0489C43.8764 43.0502 43.875 43.0515 43.8737 43.0528L43.5736 43.2257C42.9856 43.4854 41.7155 43.7724 39.8518 43.6011C37.5757 43.3906 35.4889 42.5812 34.1249 41.3782C33.1416 40.5118 31.6149 39.0398 29.8981 37.3417C30.1451 37.1704 30.3819 36.978 30.6026 36.7613L35.678 31.7725C37.7568 29.7288 37.7568 26.4031 35.678 24.3596L30.6026 19.371C30.3487 19.1215 30.0753 18.9033 29.7871 18.7149C33.3781 15.4034 36.2277 12.9494 37.3856 12.331C40.7586 10.5304 45.0869 13.0325 45.1307 13.0585C47.1595 14.5577 48.3753 16.9091 48.3753 19.4632V35.8609H48.374Z" fill="url(#paint0_linear_163_1140)"/>
<defs>
<linearGradient id="paint0_linear_163_1140" x1="26.5" y1="7.17472e-08" x2="26.5" y2="56" gradientUnits="userSpaceOnUse">
<stop stop-color="#5200F1"/>
<stop offset="1" stop-color="#2D59FF"/>
</linearGradient>
</defs>
</svg>
