<svg width="69" height="68" viewBox="0 0 69 68" fill="none" xmlns="http://www.w3.org/2000/svg">
<path d="M35.2263 67.5474C53.879 67.5474 69 52.4264 69 33.7737V33.7737C69 15.121 53.879 -7.62939e-06 35.2263 -7.62939e-06H34.5C15.4462 -7.62939e-06 0 15.4462 0 34.5V65.3684C0 66.5718 0.975548 67.5474 2.17895 67.5474L35.2263 67.5474Z" fill="#63D2DD"/>
<path d="M35.227 58.1052C48.665 58.1052 59.5586 47.2116 59.5586 33.7736V33.7736C59.5586 20.3357 48.4847 9.44206 35.0468 9.44206V9.44206C21.4083 9.44206 10.1691 20.4983 10.1691 34.1368V56.5354C10.1691 57.4024 10.8719 58.1052 11.7389 58.1052L35.227 58.1052Z" fill="#2E62C1"/>
</svg>
