<svg width="76" height="74" viewBox="0 0 76 74" fill="none" xmlns="http://www.w3.org/2000/svg">
<path d="M30.0303 50.4306C19.9495 42.9528 17.8246 28.6324 25.2842 18.4453C32.7438 8.25818 46.9631 6.06188 57.0439 13.5397C67.1248 21.0176 69.2497 35.3379 61.79 45.525C54.3304 55.7122 40.1111 57.9085 30.0303 50.4306ZM56.0497 14.8975C46.7109 7.97009 33.5383 10.0047 26.6278 19.442C19.7173 28.8792 21.6857 42.1454 31.0245 49.0728C40.3633 56.0003 53.5359 53.9656 60.4465 44.5284C67.357 35.0911 65.3885 21.8249 56.0497 14.8975Z" fill="#63D2DD"/>
<path d="M14.0569 60.3016C6.29306 54.5424 4.63783 43.539 10.3599 35.7248C16.0819 27.9106 27.0144 26.2446 34.7782 32.0038C42.5421 37.7629 44.1973 48.7663 38.4753 56.5805C32.7532 64.3948 21.8208 66.0607 14.0569 60.3016ZM34.0156 33.0453C26.8232 27.71 16.6955 29.2534 11.3947 36.4924C6.09382 43.7314 7.6272 53.9249 14.8196 59.2601C22.0119 64.5953 32.1397 63.052 37.4405 55.813C42.7413 48.5739 41.2079 38.3805 34.0156 33.0453Z" fill="#E9AB4B"/>
<path d="M37.1801 61.4508C28.5627 55.0585 26.774 42.779 33.1851 34.0237C39.5962 25.2685 51.7792 23.3531 60.3967 29.7454C69.0142 36.1378 70.8028 48.4173 64.3917 57.1725C57.9806 65.9277 45.7976 67.8432 37.1801 61.4508ZM59.2416 31.3228C51.4816 25.5665 40.5108 27.2914 34.7376 35.1754C28.9645 43.0595 30.5751 54.1172 38.3352 59.8735C46.0952 65.6298 57.066 63.9049 62.8392 56.0209C68.6123 48.1368 67.0017 37.0791 59.2416 31.3228Z" fill="#293256"/>
</svg>
