<svg width="69" height="69" viewBox="0 0 69 69" fill="none" xmlns="http://www.w3.org/2000/svg">
<path d="M16.3421 69C7.31661 69 0 61.6834 0 52.6579L0 1.05433C0 0.472039 0.47204 0 1.05433 0V0C18.523 0 32.6842 14.1612 32.6842 31.6299L32.6842 52.6579C32.6842 61.6834 25.3676 69 16.3421 69V69Z" fill="#2E62C1"/>
<path d="M35.5898 40.5895C35.5898 37.8281 37.8284 35.5895 40.5898 35.5895H67.9226C68.5178 35.5895 69.0004 36.072 69.0004 36.6672V36.6672C69.0004 54.5241 54.5245 69 36.6676 69V69C36.0724 69 35.5898 68.5175 35.5898 67.9222V40.5895Z" fill="#63D2DD"/>
<path d="M69 16.7053C69 25.9313 61.5208 33.4105 52.2947 33.4105V33.4105C43.0687 33.4105 35.5895 25.9313 35.5895 16.7053V16.7053C35.5895 7.4792 43.0687 -3.8147e-06 52.2947 -3.8147e-06H67.9222C68.5175 -3.8147e-06 69 0.482525 69 1.07776V16.7053Z" fill="#E9AB4B"/>
</svg>
