<svg width="69" height="67" viewBox="0 0 69 67" fill="none" xmlns="http://www.w3.org/2000/svg">
<path d="M34.8633 28.3757C34.8633 31.1372 37.1019 33.3757 39.8633 33.3757H67.9235C68.5181 33.3757 69.0001 32.8937 69.0001 32.2991V32.2991C69.0001 14.4607 54.5393 -9.91821e-05 36.7009 -9.91821e-05H35.9645C35.3563 -9.91821e-05 34.8633 0.49292 34.8633 1.10109V28.3757Z" fill="#63D2DD"/>
<path d="M34.8633 38.3757C34.8633 35.6143 32.6247 33.3757 29.8633 33.3757H1.05434C0.472112 33.3757 0.000125885 33.8477 0.000125885 34.4299V34.4299C0.000125885 51.8967 14.1597 66.0562 31.6264 66.0562H33.7387C34.3598 66.0562 34.8633 65.5527 34.8633 64.9316V38.3757Z" fill="#2E62C1"/>
</svg>
