<svg width="528" height="428" viewBox="0 0 528 428" fill="none" xmlns="http://www.w3.org/2000/svg">
<path d="M50.165 317.388C28.6259 317.388 11.165 299.959 11.165 278.46L11.165 154.302C11.165 152.915 12.2915 151.791 13.6812 151.791C55.3698 151.791 89.1651 185.524 89.1651 227.135L89.1651 278.46C89.1651 299.959 71.7041 317.388 50.165 317.388Z" fill="#2E62C1"/>
<path d="M98.4508 241.386C98.4508 239.68 99.8366 238.297 101.546 238.297H175.133C176.544 238.297 177.689 239.439 177.689 240.848C177.689 283.12 143.357 317.388 101.007 317.388C99.5952 317.388 98.4508 316.245 98.4508 314.836L98.4508 241.386Z" fill="#63D2DD"/>
<path d="M177.689 191.336C177.689 213.177 159.951 230.882 138.07 230.882C116.189 230.882 98.4508 213.177 98.4508 191.336C98.4508 169.496 116.189 151.791 138.07 151.791H175.133C176.544 151.791 177.689 152.933 177.689 154.342V191.336Z" fill="#E9AB4B"/>
<path d="M352.226 238.297C352.226 283.684 315.364 320.477 269.892 320.477C224.421 320.477 187.559 283.684 187.559 238.297C187.559 192.91 224.421 156.116 269.892 156.116C315.364 156.116 352.226 192.91 352.226 238.297Z" fill="#63D2DD"/>
<path d="M363.23 172.899L527.896 172.899L527.896 337.26L363.23 337.26V172.899Z" fill="#293256"/>
<path d="M527.896 255.079C527.896 300.466 491.034 337.26 445.563 337.26C400.091 337.26 363.23 300.466 363.23 255.079C363.23 209.692 400.091 172.899 445.563 172.899C491.034 172.899 527.896 209.692 527.896 255.079Z" fill="#63D2DD"/>
<path d="M363.23 161.199C363.23 120.909 395.952 88.247 436.317 88.247L519.888 88.247C521.234 88.247 522.325 89.3358 522.325 90.6788C522.325 130.969 489.602 163.631 449.237 163.631H365.666C364.32 163.631 363.23 162.542 363.23 161.199Z" fill="#2E62C1"/>
<path d="M278.42 72.9518C278.42 32.6616 311.142 0 351.508 0L435.079 0C436.425 0 437.515 1.08872 437.515 2.43173C437.515 42.7219 404.793 75.3835 364.428 75.3835L280.856 75.3835C279.511 75.3835 278.42 74.2948 278.42 72.9518Z" fill="#293256"/>
<path d="M513.897 423.355C513.897 383.065 481.174 350.403 440.809 350.403L392.563 350.403C371.708 350.403 354.802 367.278 354.802 388.095C354.802 408.911 371.708 425.787 392.563 425.787L511.461 425.787C512.806 425.787 513.897 424.698 513.897 423.355Z" fill="#63D2DD"/>
<path d="M278.42 90.6788C278.42 130.969 311.142 163.631 351.508 163.631C352.853 163.631 353.944 162.542 353.944 161.199C353.944 120.909 321.221 88.247 280.856 88.247C279.511 88.247 278.42 89.3358 278.42 90.6788Z" fill="#E9AB4B"/>
<path d="M11.165 130.822C11.165 90.5322 43.8875 57.8705 84.2526 57.8705L167.165 57.8705C168.875 57.8705 170.26 59.2538 170.26 60.96L170.26 130.165C170.26 131.871 168.875 133.254 167.165 133.254L13.6013 133.254C12.2558 133.254 11.165 132.165 11.165 130.822Z" fill="#63D2DD"/>
<path d="M345.148 350.941C345.148 349.235 343.762 347.852 342.053 347.852H268.466C267.054 347.852 265.91 348.994 265.91 350.403C265.91 392.675 300.242 426.943 342.592 426.943C344.004 426.943 345.148 425.8 345.148 424.391L345.148 350.941Z" fill="#E9AB4B"/>
<path d="M93.3895 388.095C93.3895 366.596 110.85 349.167 132.389 349.167H218.437C239.976 349.167 257.437 366.596 257.437 388.095C257.437 409.594 239.976 427.022 218.437 427.022H132.389C110.85 427.022 93.3895 409.594 93.3895 388.095Z" fill="#2E62C1"/>
<path d="M186.182 129.626C186.182 131.333 187.568 132.716 189.278 132.716L262.864 132.716C264.276 132.716 265.42 131.574 265.42 130.165C265.42 87.893 231.089 53.625 188.739 53.625C187.327 53.625 186.182 54.7672 186.182 56.1763L186.182 129.626Z" fill="#2E62C1"/>
<path d="M79.2381 383.809C79.2381 361.969 61.5 344.264 39.619 344.264C17.7381 344.264 0 361.969 0 383.809C0 405.65 17.7381 423.355 39.619 423.355H76.682C78.0937 423.355 79.2381 422.213 79.2381 420.804V383.809Z" fill="#E9AB4B"/>
</svg>
