<svg width="68" height="68" viewBox="0 0 68 68" fill="none" xmlns="http://www.w3.org/2000/svg">
<path d="M43.6484 46.1757C43.6484 58.2289 33.8774 68 21.8241 68V68C9.77087 68 -0.000209808 58.2289 -0.000209808 46.1757V46.1757C-0.000209808 34.1224 9.77088 24.3514 21.8241 24.3514H42.2404C43.018 24.3514 43.6484 24.9817 43.6484 25.7594V46.1757Z" fill="#63D2DD"/>
<path d="M43.2598 10.9122C43.2598 4.88554 38.3742 0 32.3476 0V0C26.321 0 21.4354 4.88554 21.4354 10.9122V10.9122C21.4354 16.9388 26.321 21.8243 32.3476 21.8243H42.5558C42.9446 21.8243 43.2598 21.5091 43.2598 21.1203V10.9122Z" fill="#2E62C1"/>
<path d="M45.8652 35.3033C45.8652 41.3299 50.7508 46.2155 56.7774 46.2155V46.2155C62.804 46.2155 67.6896 41.3299 67.6896 35.3033V35.3033C67.6896 29.2767 62.804 24.3911 56.7774 24.3911H46.5692C46.1804 24.3911 45.8652 24.7063 45.8652 25.0951V35.3033Z" fill="#E9AB4B"/>
</svg>
