<svg width="69" height="67" viewBox="0 0 69 67" fill="none" xmlns="http://www.w3.org/2000/svg">
<path d="M7.1875 66.125C3.21795 66.125 0 62.907 0 58.9375L0 44.5625C0 40.593 3.21795 37.375 7.1875 37.375V37.375C11.157 37.375 14.375 40.593 14.375 44.5625L14.375 58.9375C14.375 62.907 11.157 66.125 7.1875 66.125V66.125Z" fill="#E9AB4B"/>
<path d="M25.3945 66.125C21.425 66.125 18.207 62.907 18.207 58.9375L18.207 7.1875C18.207 3.21795 21.425 0 25.3945 0V0C29.3641 0 32.582 3.21795 32.582 7.1875V58.9375C32.582 62.907 29.3641 66.125 25.3945 66.125V66.125Z" fill="#2E62C1"/>
<path d="M43.6035 66.125C39.634 66.125 36.416 62.907 36.416 58.9375V21.5625C36.416 17.593 39.634 14.375 43.6035 14.375V14.375C47.5731 14.375 50.791 17.5929 50.791 21.5625V58.9375C50.791 62.907 47.5731 66.125 43.6035 66.125V66.125Z" fill="#293256"/>
<path d="M61.8125 66.125C57.843 66.125 54.625 62.907 54.625 58.9375V37.8542C54.625 33.8846 57.843 30.6667 61.8125 30.6667V30.6667C65.782 30.6667 69 33.8846 69 37.8542V58.9375C69 62.9071 65.782 66.125 61.8125 66.125V66.125Z" fill="#63D2DD"/>
</svg>
