<svg width="70" height="64" viewBox="0 0 70 64" fill="none" xmlns="http://www.w3.org/2000/svg">
<path d="M7.3699 4.14313C-3.88008 19.9283 -0.2036 41.8447 15.5816 53.0946C16.1078 53.4696 16.8383 53.3471 17.2133 52.8209C28.4633 37.0357 24.7868 15.1194 9.0016 3.86941C8.4755 3.49441 7.7449 3.61696 7.3699 4.14313Z" fill="#63D2DD"/>
<path d="M20.3832 56.5163C36.1684 67.7663 58.0848 64.0898 69.3348 48.3046C69.7098 47.7784 69.5872 47.0479 69.061 46.6729C53.2758 35.4229 31.3595 39.0994 20.1095 54.8846C19.7345 55.4108 19.8571 56.1413 20.3832 56.5163Z" fill="#293256"/>
<path d="M56.3645 0.173079C37.8127 3.04056 25.098 20.4043 27.9655 38.9562C28.0611 39.5746 28.6398 39.9984 29.2582 39.9028C47.8101 37.0353 60.5248 19.6716 57.6573 1.11972C57.5617 0.501321 56.9829 0.0774965 56.3645 0.173079Z" fill="#E9AB4B"/>
</svg>
