<svg width="41" height="41" viewBox="0 0 41 41" fill="none" xmlns="http://www.w3.org/2000/svg">
<g clip-path="url(#clip0_204_213)">
<path d="M20.3722 0.609902C20.0056 0.631442 19.647 0.726425 19.3177 0.889214L5.03821 7.70034C4.29252 8.05525 3.75055 8.73046 3.56477 9.53509L0.0695179 24.8217C-0.0970446 25.5392 0.0374866 26.2913 0.453893 26.9063C0.50258 26.9806 0.55383 27.0523 0.607643 27.1215L10.4733 39.3882C10.9947 40.0288 11.7776 40.3966 12.6027 40.3927H28.4261C29.2538 40.394 30.038 40.0083 30.5581 39.3767L40.4186 27.1074C40.9363 26.4668 41.1297 25.6212 40.9311 24.8191L37.4128 9.51971C37.227 8.71509 36.6825 8.03987 35.9394 7.68496L21.6829 0.890495C21.2721 0.687877 20.8171 0.591409 20.3594 0.609902H20.3722Z" fill="#326CE5"/>
<path d="M20.5029 5.81934C20.0109 5.85393 19.6381 6.27546 19.6637 6.76746V7.00834C19.6868 7.28124 19.7278 7.55159 19.7816 7.81937C19.8602 8.33215 19.8885 8.85139 19.8662 9.36968C19.8175 9.54009 19.7201 9.69384 19.5868 9.81171L19.5676 10.173C19.0487 10.2166 18.5337 10.296 18.0263 10.4113C15.8917 10.8931 13.9481 12.0001 12.4477 13.5952L12.1402 13.3774C11.9711 13.4287 11.7892 13.4095 11.6341 13.3262C11.2182 13.0184 10.8333 12.6708 10.4848 12.2884C10.3098 12.0792 10.1228 11.8803 9.92493 11.6926L9.73531 11.5414C9.56618 11.4056 9.35862 11.3274 9.14209 11.3172C9.01287 11.3103 8.88387 11.3341 8.76562 11.3867C8.64738 11.4393 8.54325 11.519 8.46175 11.6196C8.17218 12.0257 8.267 12.5882 8.67187 12.879L8.84868 13.02C9.07628 13.1714 9.31242 13.3096 9.55593 13.4338C10.0095 13.6862 10.4374 13.9822 10.8346 14.3307C10.9362 14.4756 10.9953 14.646 11.005 14.8227L11.2843 15.0789C9.77631 17.3416 9.15746 20.0822 9.5444 22.7741L9.18565 22.8766C9.09212 23.0252 8.96784 23.1521 8.81921 23.2456C8.31869 23.3793 7.80633 23.4638 7.2894 23.498C7.01506 23.5036 6.74128 23.525 6.4694 23.5621L6.24262 23.6133H6.217C6.05962 23.6352 5.91139 23.7003 5.78881 23.8014C5.66623 23.9025 5.57412 24.0356 5.52272 24.1859C5.47132 24.3363 5.46266 24.4979 5.49769 24.6529C5.53272 24.8079 5.61008 24.9501 5.72115 25.0637C5.83326 25.1767 5.97459 25.2564 6.12935 25.2937C6.28412 25.331 6.44621 25.3246 6.59753 25.2751H6.61418L6.84481 25.2495C7.1049 25.1726 7.36115 25.0778 7.61099 24.9702C8.09146 24.778 8.58987 24.6306 9.09981 24.5346C9.27662 24.5448 9.44575 24.605 9.58925 24.7075L9.97362 24.6435C10.8064 27.2277 12.5566 29.4174 14.8936 30.7973L14.7373 31.124C14.8091 31.2739 14.836 31.4405 14.8142 31.6058C14.6028 32.0952 14.344 32.5641 14.0416 33.0049C13.8757 33.2235 13.7226 33.4516 13.5829 33.6878L13.474 33.9184C13.395 34.0555 13.3554 34.2117 13.3596 34.3699C13.3638 34.5281 13.4116 34.682 13.4977 34.8147C13.5839 34.9474 13.7051 35.0537 13.8478 35.1218C13.9906 35.19 14.1494 35.2174 14.3068 35.201C14.4645 35.1832 14.6143 35.1221 14.7393 35.0244C14.8644 34.9267 14.96 34.7962 15.0153 34.6475L15.1217 34.4296C15.2191 34.1734 15.3011 33.912 15.3677 33.6481C15.5945 33.0882 15.7175 32.4873 16.0275 32.1157C16.1289 32.0204 16.2566 31.9579 16.394 31.9363L16.5862 31.5866C19.1195 32.5603 21.9227 32.5671 24.4607 31.6058L24.6311 31.9325C24.8054 31.9581 24.9617 32.0542 25.0667 32.1951C25.3076 32.6538 25.5024 33.1343 25.651 33.6301C25.7188 33.8957 25.8017 34.157 25.8996 34.413L26.0059 34.6308C26.0618 34.779 26.1577 34.9088 26.2828 35.0059C26.4079 35.103 26.5574 35.1636 26.7149 35.1809C26.8723 35.1983 27.0315 35.1718 27.1747 35.1043C27.318 35.0369 27.4399 34.9311 27.5267 34.7986C27.6128 34.6654 27.6602 34.511 27.6639 34.3525C27.6675 34.1939 27.6271 34.0375 27.5472 33.9005L27.4358 33.6699C27.2961 33.4344 27.143 33.2073 26.9771 32.9895C26.6824 32.5641 26.4287 32.1106 26.2083 31.6352C26.1878 31.5483 26.1849 31.4582 26.1999 31.3701C26.2148 31.2821 26.2473 31.198 26.2955 31.1227C26.2408 31.011 26.1933 30.8959 26.1532 30.7781C28.4851 29.3879 30.2276 27.1906 31.0515 24.6025L31.4153 24.6665C31.546 24.5474 31.7177 24.4846 31.8932 24.4897C32.4019 24.5871 32.9003 24.746 33.3821 24.9253C33.6319 25.0406 33.8882 25.138 34.1482 25.22C34.2097 25.2367 34.2994 25.2508 34.3686 25.2674H34.3853C34.5365 25.3163 34.6983 25.3222 34.8527 25.2845C35.0071 25.2468 35.148 25.167 35.2597 25.0539C35.3714 24.9409 35.4495 24.7991 35.4854 24.6443C35.5212 24.4895 35.5134 24.3277 35.4628 24.1771C35.411 24.0266 35.3184 23.8934 35.1953 23.7925C35.0723 23.6916 34.9235 23.6269 34.7658 23.6056L34.5172 23.5467C34.2454 23.5096 33.9716 23.4882 33.6972 23.4826C33.1796 23.4493 32.6671 23.3648 32.1674 23.2302C32.0137 23.1444 31.8856 23.0163 31.7984 22.8612L31.4525 22.7587C31.8213 20.0681 31.1894 17.3357 29.6767 15.0802L29.9791 14.8009C29.9662 14.6254 30.0239 14.4511 30.1379 14.3166C30.5313 13.9783 30.9579 13.6798 31.4064 13.4248C31.6499 13.3005 31.886 13.1624 32.1136 13.011L32.3007 12.8598C32.4384 12.7743 32.5491 12.6516 32.62 12.5058C32.6909 12.36 32.719 12.1971 32.7012 12.036C32.6834 11.8749 32.6203 11.7221 32.5193 11.5954C32.4182 11.4686 32.2834 11.373 32.1303 11.3197C31.9773 11.2665 31.8124 11.2576 31.6546 11.2941C31.4968 11.3306 31.3526 11.411 31.2385 11.526L31.0489 11.6772C30.851 11.8649 30.6641 12.0639 30.489 12.273C30.1507 12.6599 29.7766 13.0123 29.3705 13.3275C29.2066 13.3942 29.0273 13.4137 28.8528 13.3838L28.5287 13.6145C26.6581 11.6541 24.1378 10.437 21.437 10.1935C21.437 10.0654 21.4203 9.87321 21.4177 9.81299C21.273 9.71305 21.1717 9.56059 21.1384 9.38762C21.1207 8.87019 21.1533 8.35226 21.2358 7.84115C21.2909 7.57209 21.3293 7.30302 21.3537 7.03012V6.77387C21.3793 6.28187 21.0077 5.86034 20.5145 5.82574L20.5029 5.81934ZM19.4344 12.4383L19.1781 16.9137H19.1589C19.1461 17.1904 18.9834 17.4262 18.7335 17.5594C18.4837 17.6927 18.1877 17.653 17.9648 17.4902L14.294 14.8893C15.4624 13.7417 16.9281 12.9434 18.526 12.5843C18.8258 12.5203 19.1282 12.4716 19.4318 12.4383H19.4344ZM21.5715 12.4383C23.4998 12.6779 25.2948 13.544 26.6837 14.9034L23.0475 17.4877C22.8233 17.6671 22.5158 17.7029 22.2557 17.5799C21.9956 17.4569 21.829 17.1956 21.8252 16.9086L21.5715 12.4383ZM12.9615 16.5729L16.3184 19.5684V19.5876C16.5272 19.7696 16.6182 20.0527 16.5567 20.3231C16.4952 20.5934 16.2876 20.8074 16.0224 20.8804V20.8932L11.7148 22.1322C11.5017 20.1915 11.9408 18.2351 12.9628 16.5716L12.9615 16.5729ZM28.02 16.5729C29.0399 18.2321 29.4909 20.1783 29.3038 22.1168L24.9899 20.874V20.8574C24.7208 20.7843 24.5158 20.5704 24.4556 20.3C24.3954 20.0297 24.4851 19.7491 24.6939 19.5646L28.0252 16.5831L28.02 16.5729ZM19.8149 19.8016H21.1884L22.0276 20.8676L21.7227 22.2001L20.4888 22.7933L19.2524 22.2001L18.9616 20.8676L19.8149 19.8016ZM24.2147 23.4378C24.2724 23.4314 24.3428 23.4314 24.3877 23.4378L28.8298 24.1873C28.1892 26.0323 26.9246 27.6083 25.2743 28.6627L23.5574 24.5064C23.5102 24.3949 23.4905 24.2736 23.4999 24.1529C23.5093 24.0322 23.5476 23.9155 23.6115 23.8127C23.6754 23.7098 23.7631 23.6238 23.8672 23.5619C23.9713 23.5001 24.0887 23.4641 24.2096 23.457L24.2147 23.4378ZM16.754 23.457C17.0051 23.4609 17.237 23.5903 17.3741 23.8004C17.5112 24.0105 17.533 24.2745 17.4343 24.5051V24.5217L15.7277 28.6448C14.0941 27.598 12.8539 26.0413 12.194 24.2155L16.5977 23.4686C16.6464 23.4634 16.6963 23.4634 16.7463 23.4686L16.754 23.457ZM20.4747 25.2508C20.6147 25.2464 20.7532 25.2809 20.8747 25.3506C20.9962 25.4203 21.0959 25.5223 21.1628 25.6454H21.1794L23.3499 29.5622L22.4825 29.8184C20.886 30.1836 19.2191 30.0977 17.6675 29.5699L19.8457 25.6531C19.9776 25.4225 20.2211 25.2815 20.4863 25.2751L20.4747 25.2508Z" fill="white" stroke="white" stroke-width="0.11"/>
</g>
<defs>
<clipPath id="clip0_204_213">
<rect width="41" height="41" fill="white"/>
</clipPath>
</defs>
</svg>
