<svg width="25" height="19" viewBox="0 0 25 19" fill="none" xmlns="http://www.w3.org/2000/svg">
<path d="M22.1774 0H2.13628C1.80731 0 1.49933 0.0808768 1.2207 0.214183L12.1093 11.1028L14.5498 8.75738C14.5498 8.75738 14.55 8.75714 14.5501 8.75705C14.5501 8.75695 14.5503 8.75686 14.5503 8.75686L23.0933 0.214373C22.8146 0.0809717 22.5064 0 22.1774 0Z" fill="#63D2DD"/>
<path d="M24.1019 1.21973L16.0625 9.25867L24.1016 17.2978C24.2349 17.0191 24.3158 16.7111 24.3158 16.3822V2.13497C24.3158 1.80619 24.2351 1.49826 24.1019 1.21973Z" fill="#63D2DD"/>
<path d="M0.214183 1.21973C0.0808767 1.49835 0 1.80633 0 2.1353V16.3825C0 16.7113 0.0807817 17.0193 0.213993 17.2978L8.25336 9.25891L0.214183 1.21973Z" fill="#63D2DD"/>
<path d="M15.0542 10.2704L12.6133 12.6161C12.4742 12.7552 12.2919 12.8248 12.1097 12.8248C11.9275 12.8248 11.7452 12.7552 11.6061 12.6161L9.26021 10.2703L1.2207 18.3093C1.49938 18.4427 1.80755 18.5236 2.13661 18.5236H22.1777C22.5067 18.5236 22.8146 18.4427 23.0933 18.3094L15.0542 10.2704Z" fill="#63D2DD"/>
</svg>
