<svg width="17" height="13" viewBox="0 0 17 13" fill="none" xmlns="http://www.w3.org/2000/svg">
<path d="M14.9361 0.238281H1.95439C1.7413 0.238281 1.54181 0.290669 1.36133 0.377019L8.41447 7.43016L9.99531 5.91091C9.99531 5.91091 9.99544 5.91075 9.99547 5.91069C9.9955 5.91063 9.99562 5.91057 9.99562 5.91057L15.5294 0.377142C15.3488 0.290731 15.1492 0.238281 14.9361 0.238281Z" fill="#2E62C1"/>
<path d="M16.1821 1.02783L10.9746 6.23509L16.182 11.4424C16.2683 11.2619 16.3207 11.0625 16.3207 10.8494V1.62068C16.3207 1.40772 16.2684 1.20825 16.1821 1.02783Z" fill="#2E62C1"/>
<path d="M0.70905 1.02759C0.622701 1.20807 0.570312 1.40756 0.570312 1.62065V10.8493C0.570312 11.0623 0.622639 11.2618 0.708927 11.4422L5.91646 6.235L0.70905 1.02759Z" fill="#2E62C1"/>
<path d="M10.322 6.89069L8.74095 8.41013C8.65082 8.50026 8.53275 8.54533 8.41472 8.54533C8.29668 8.54533 8.17859 8.50026 8.08848 8.41013L6.56895 6.89062L1.36133 12.0979C1.54184 12.1843 1.74146 12.2368 1.95461 12.2368H14.9363C15.1494 12.2368 15.3489 12.1844 15.5294 12.098L10.322 6.89069Z" fill="#2E62C1"/>
</svg>
