<svg width="62" height="32" viewBox="0 0 62 32" fill="none" xmlns="http://www.w3.org/2000/svg">
<path d="M0 29.068H2.04255V21.0578L5.20461 28.0434C5.57758 28.8855 6.08859 29.188 7.09004 29.188C8.09148 29.188 8.58252 28.8888 8.95609 28.0434L12.1185 21.0578V29.071H14.1613V21.071C14.1613 20.2906 13.8465 19.9131 13.1986 19.7182C11.6471 19.237 10.606 19.6533 10.1349 20.6939L7.03191 27.588L4.02637 20.6909C3.57469 19.6503 2.51421 19.234 0.962695 19.7152C0.314238 19.9104 0 20.2879 0 21.068V29.068ZM15.859 22.5459H17.901V26.961C17.8819 27.201 17.9785 27.764 19.0974 27.7811C19.6683 27.7901 23.5034 27.7811 23.5391 27.7811V22.524H25.5856C25.5947 22.524 25.5835 29.6921 25.5838 29.7228C25.595 31.4906 23.3756 31.8746 22.353 31.9044H15.9035V30.539L22.3645 30.5387C23.679 30.4004 23.524 29.7516 23.524 29.533V29.0007H19.1828C17.1629 28.9826 15.8769 28.1065 15.8609 27.099C15.8593 27.0088 15.9045 22.5892 15.8596 22.5456L15.859 22.5459Z" fill="#00618A"/>
<path d="M27.1602 29.0682H33.0326C33.7198 29.0682 34.3879 28.9253 34.9186 28.6778C35.8026 28.2748 36.2346 27.7283 36.2346 27.0128V25.5301C36.2346 24.9446 35.7436 24.3984 34.7815 24.0342C34.2708 23.8387 33.6423 23.735 33.0335 23.735H30.5587C29.734 23.735 29.3411 23.4877 29.243 22.9416C29.2233 22.8766 29.2233 22.8213 29.2233 22.7593V21.836C29.2233 21.784 29.2233 21.7316 29.243 21.6667C29.3411 21.2504 29.5572 21.1331 30.2838 21.0652C30.3428 21.0652 30.4212 21.0519 30.4805 21.0519H36.3136V19.6995H30.5786C29.7537 19.6995 29.3217 19.7515 28.9287 19.8685C27.7099 20.2459 27.1795 20.8474 27.1795 21.888V23.0718C27.1795 23.9825 28.2209 24.7629 29.9683 24.9449C30.1651 24.9578 30.3613 24.9707 30.5574 24.9707H32.6787C32.7574 24.9707 32.8361 24.9707 32.8949 24.984C33.5427 25.036 33.8182 25.153 34.0144 25.387C34.1355 25.5073 34.1718 25.6216 34.1718 25.7479V26.9316C34.1718 27.0748 34.0737 27.2571 33.8772 27.4128C33.7004 27.5692 33.4059 27.673 33.0129 27.6992C32.9342 27.6992 32.8755 27.7121 32.7971 27.7121H27.1602V29.0649V29.0682ZM48.9764 26.7139C48.9764 28.1058 50.0172 28.8862 52.1188 29.0423C52.3148 29.0574 52.5113 29.066 52.7079 29.0682H58.0306V27.7154H52.6686C51.4706 27.7154 51.0186 27.4162 51.0186 26.7007V19.7022H48.9761V26.7133L48.9764 26.7139ZM37.5376 26.7843V21.9617C37.5376 20.7365 38.4034 19.9933 40.1157 19.7587C40.2983 19.7328 40.4825 19.7197 40.667 19.7196H44.5441C44.7351 19.7197 44.9258 19.7328 45.115 19.7587C46.8273 19.9933 47.6931 20.7362 47.6931 21.9617V26.7843C47.6931 27.7783 47.3253 28.3103 46.4776 28.6571L48.4896 30.4616H46.118L44.4902 29.0017L42.8515 29.1049H40.667C40.2931 29.1049 39.8995 29.0525 39.4663 28.9353C38.1645 28.5834 37.5379 27.9055 37.5379 26.7843H37.5376ZM39.7424 26.664C39.7424 26.7292 39.7621 26.7942 39.7818 26.8727C39.9029 27.4333 40.4311 27.7461 41.2349 27.7461H43.0906L41.3862 26.2174H43.7579L45.2413 27.5506C45.5152 27.4056 45.6954 27.1837 45.7559 26.8989C45.7756 26.8339 45.7756 26.7686 45.7756 26.7034V22.0793C45.7756 22.0273 45.7756 21.959 45.7559 21.8968C45.6348 21.3756 45.1062 21.0757 44.3191 21.0757H41.2385C40.3303 21.0757 39.743 21.4667 39.743 22.0793V26.6676L39.7424 26.664Z" fill="#E48E00"/>
<path d="M59.8273 17.4579C58.5718 17.4242 57.6125 17.54 56.7927 17.8835C56.5596 17.9812 56.1881 17.9836 56.15 18.2738C56.278 18.4071 56.2983 18.6062 56.3997 18.7701C56.5956 19.085 56.9265 19.5069 57.221 19.7277C57.5432 19.9692 57.875 20.2278 58.221 20.4375C58.8355 20.8098 59.5215 21.0224 60.1131 21.395C60.4618 21.6146 60.8081 21.8913 61.1484 22.1397C61.3164 22.2624 61.43 22.4531 61.6479 22.5298V22.4943C61.5329 22.349 61.5035 22.1493 61.3982 21.9981L60.9341 21.537C60.48 20.9355 59.9042 20.4131 59.2917 19.9761C58.8034 19.6278 57.7103 19.1575 57.5065 18.5926L57.4708 18.5572C57.8171 18.5181 58.2225 18.3938 58.5425 18.309C59.0792 18.1662 59.5591 18.2029 60.1137 18.0609L60.8635 17.848V17.706C60.5832 17.4203 60.3834 17.0423 60.0779 16.7839C59.2787 16.1072 58.4059 15.432 57.5077 14.8681C57.0094 14.5553 56.3937 14.3526 55.8654 14.0877C55.6877 13.9987 55.3756 13.9523 55.2584 13.8038C54.9811 13.4525 54.8301 13.0068 54.616 12.6008C54.168 11.7436 53.7278 10.8071 53.3306 9.90512C53.0597 9.29008 52.8826 8.68347 52.5453 8.13159C50.9242 5.48377 49.1789 3.88557 46.4761 2.31504C45.9009 1.98121 45.2085 1.84888 44.4765 1.67655L43.2983 1.60557C43.0585 1.50632 42.8091 1.21459 42.5838 1.07324C41.6884 0.510834 39.3915 -0.711121 38.7282 0.892789C38.3095 1.90723 39.354 2.897 39.7278 3.41129C39.99 3.77219 40.326 4.1761 40.5131 4.58181C40.6363 4.84828 40.6578 5.11565 40.7632 5.39775C41.0226 6.08948 41.2485 6.84828 41.5842 7.49038C41.7537 7.8152 41.9408 8.15745 42.1555 8.44798C42.2872 8.62632 42.5127 8.70482 42.5481 8.98031C42.3277 9.28708 42.315 9.76226 42.1909 10.1508C41.633 11.8988 41.8434 14.0711 42.655 15.365C42.9041 15.762 43.4905 16.6137 44.2973 16.2871C45.0027 16.0014 44.8422 15.1172 45.0472 14.3364C45.0926 14.159 45.0648 14.0296 45.1544 13.9108V13.9463L45.7971 15.223C46.2724 15.9839 47.117 16.7794 47.832 17.3162C48.2029 17.5944 48.4981 18.0756 48.9746 18.2384V18.2029H48.9388C48.8459 18.0585 48.7006 17.9993 48.5816 17.8841C48.3022 17.6119 47.9913 17.2735 47.7603 16.962C47.1094 16.0844 46.5348 15.1244 46.0111 14.1244C45.761 13.6471 45.5434 13.1205 45.333 12.6347C45.2518 12.4474 45.2527 12.1644 45.0832 12.0672C44.8522 12.4233 44.512 12.7108 44.3333 13.1313C44.0476 13.8032 44.0106 14.6224 43.905 15.4723C43.8423 15.4946 43.8702 15.4793 43.8335 15.5078C43.3364 15.3887 43.1615 14.8802 42.9768 14.4438C42.5094 13.34 42.4228 11.5638 42.8339 10.294C42.9399 9.96557 43.4212 8.93038 43.2265 8.62693C43.1336 8.32407 42.8269 8.14572 42.6553 7.91715C42.4434 7.63144 42.2309 7.25429 42.084 6.92407C41.7014 6.06392 41.5228 5.0985 41.1201 4.22843C40.9276 3.81279 40.6024 3.39234 40.3348 3.02542C40.0388 2.6164 39.7073 2.31444 39.4781 1.82241C39.3964 1.64647 39.2855 1.36527 39.4066 1.18392C39.4182 1.13181 39.4445 1.08408 39.4825 1.04635C39.5205 1.00862 39.5685 0.98247 39.621 0.970984C39.8281 0.812488 40.4051 1.02362 40.6206 1.11294C41.1928 1.34933 41.6711 1.57429 42.1561 1.89339C42.3892 2.04377 42.6244 2.34332 42.9056 2.42572H43.2265C43.7291 2.54061 44.2922 2.46181 44.7614 2.60317C45.5915 2.85369 46.335 3.24377 47.0107 3.66723C49.0687 4.95805 50.751 6.79565 51.902 8.99053C52.0873 9.34332 52.1672 9.68046 52.3304 10.0546C52.6594 10.8065 53.0739 11.5863 53.4014 12.3244C53.7284 13.0612 54.0463 13.8041 54.5082 14.417C54.751 14.7388 55.6889 14.912 56.1149 15.0907C56.4137 15.2161 56.9029 15.3469 57.1859 15.5162C57.7263 15.8402 58.25 16.226 58.7571 16.5809C59.0105 16.7584 59.7894 17.1472 59.8282 17.4675L59.8273 17.4579Z" fill="#00618A"/>
<path fill-rule="evenodd" clip-rule="evenodd" d="M43.8693 3.94445C43.6074 3.93964 43.4224 3.97272 43.2266 4.01543V4.05092H43.2623C43.387 4.30595 43.6074 4.46986 43.7618 4.68941L44.119 5.43407L44.1547 5.39858C44.3757 5.2437 44.4772 4.99618 44.4756 4.61813C44.3869 4.5255 44.3739 4.40941 44.297 4.29873C44.195 4.15137 43.9943 4.06776 43.8687 3.94385L43.8693 3.94445Z" fill="#00618A"/>
<path fill-rule="evenodd" clip-rule="evenodd" d="M58.9902 27.6767C58.9902 28.57 59.7008 29.1721 60.4954 29.1721C61.2901 29.1721 62.0006 28.57 62.0006 27.6767C62.0006 26.7835 61.2901 26.1814 60.4954 26.1814C59.7008 26.1814 58.9902 26.7835 58.9902 27.6767ZM61.6634 27.6767C61.6634 28.3546 61.1418 28.8611 60.4948 28.8611C59.8409 28.8611 59.3263 28.3546 59.3263 27.6767C59.3263 26.9988 59.8403 26.4924 60.4948 26.4924C61.1412 26.4924 61.6634 26.9988 61.6634 27.6767ZM60.9005 28.5303H61.2374L60.744 27.7808C61.0089 27.7528 61.2093 27.625 61.2093 27.314C61.2093 26.967 60.9883 26.8238 60.5632 26.8238H59.8927V28.5306H60.1818V27.7928H60.4506L60.9002 28.5306L60.9005 28.5303ZM60.1818 27.5528V27.0626H60.5148C60.6874 27.0626 60.8963 27.0945 60.8963 27.2942C60.8963 27.5333 60.7076 27.5534 60.4906 27.5534H60.1818V27.5528Z" fill="#E48E00"/>
</svg>
