<svg width="50" height="46" viewBox="0 0 50 46" fill="none" xmlns="http://www.w3.org/2000/svg">
<path d="M35.9749 11.9123C34.956 11.0345 33.8049 10.2768 32.5239 9.68357C25.0027 6.20233 16.0276 9.4411 12.521 16.911C12.3255 17.328 12.15 17.7541 11.9951 18.1877C11.5574 19.4518 11.3016 20.7443 11.2039 22.0346L11.1754 22.0452L11.1732 22.0736L6.29716 23.8351L3.15975 24.9862L3.15836 24.9689L3.07232 25C2.76782 21.1749 3.41727 17.2235 5.1644 13.5039C5.39146 13.0204 5.63525 12.5447 5.89532 12.0778C11.6551 1.42704 24.761 -3.02488 35.814 2.17218C38.0456 3.22089 40.0913 4.62159 41.8717 6.31983C43.0335 7.38732 44.0818 8.57048 45 9.85067L36.9003 12.7781C36.8586 12.7358 36.8166 12.6937 36.7744 12.6519L36.752 12.66C36.5019 12.402 36.2425 12.1525 35.9749 11.9123Z" fill="#DA2430"/>
<path d="M3.40621 37.8953L3.39431 37.9002C1.81741 35.4756 0.666482 32.7526 0 29.8695L7.21788 27L7.22272 27.026L7.26957 27.0071L7.27068 27.0101C7.64138 29.1531 8.41309 31.1977 9.53839 32.9955C9.96959 33.6674 10.4497 34.3003 10.974 34.888L10.9453 34.8996L11 34.9621L3.47295 38C3.45064 37.9653 3.42833 37.9304 3.40621 37.8953Z" fill="#E82429"/>
<path d="M33.7715 35.5144C29.597 38.0782 24.2424 38.5735 19.4713 36.3637C17.8326 35.606 16.3463 34.5586 15.0852 33.2725L7 36.1961L7.06207 36.2822L7.0581 36.2837C9.28108 39.4382 12.3135 42.075 16.0345 43.8267C24.0598 47.601 33.1653 46.2889 39.7582 41.2104C42.7106 39.0139 45.1753 36.0864 46.8402 32.5404C48.5891 28.8189 49.2349 24.8662 48.9254 21.0414L48.7001 21.1229C48.6971 21.0819 48.6942 21.041 48.6908 21L40.6615 23.9459C40.5303 25.7494 40.0735 27.5155 39.3123 29.1581C38.06 31.8668 36.1067 34.0245 33.7715 35.5144Z" fill="#DA2430"/>
<path d="M43.3964 15.1399L43.5274 15.0974C44.9095 17.6239 45.748 20.3572 46 23.157L37.1982 26L37.203 25.9417L37.0368 25.9964C37.2764 23.1047 36.5456 20.229 35 17.7318L43.3215 15.0008C43.3465 15.0473 43.3718 15.0931 43.3964 15.1399Z" fill="#E82429"/>
<path d="M14.119 20.6032L6 23.3814C6.10404 24.606 6.32812 25.815 6.64404 27L14.3561 24.3585C14.1066 23.1317 14.017 21.8689 14.1222 20.6024L14.119 20.6032ZM49.9998 12.1604C49.4336 11.062 48.7781 10.0006 48.0195 9L39.9026 11.7782C40.847 12.6871 41.6393 13.7083 42.2875 14.8008L49.9988 12.1597L49.9998 12.1604Z" fill="#C22035"/>
<path d="M6.001 23.4827L14.1031 20.6886L14.0701 22.221L6.25338 25L6 23.4808L6.001 23.4827ZM39.9164 11.6582L48.1448 9L49 10.2151L41.0052 12.8758L39.9176 11.6577L39.9164 11.6582Z" fill="#AC223B"/>
</svg>
