<svg width="26" height="25" viewBox="0 0 26 25" fill="none" xmlns="http://www.w3.org/2000/svg">
<path d="M10.3537 14.648C7.96749 12.2618 7.4287 9.87556 7.30714 8.91952C7.27318 8.65517 7.36415 8.39007 7.55327 8.20227L9.48432 6.27208C9.76838 5.98819 9.81879 5.54577 9.60587 5.20526L6.53127 0.431069C6.29572 0.0540171 5.81206 -0.0820647 5.41445 0.116842L0.478624 2.44143C0.157094 2.59976 -0.0320255 2.94138 0.00448065 3.29791C0.263104 5.75483 1.33424 11.7945 7.26964 17.7304C13.205 23.6662 19.2439 24.7369 21.7021 24.9955C22.0587 25.0321 22.4003 24.8429 22.5586 24.5214L24.8832 19.5856C25.0813 19.1888 24.9462 18.7065 24.5707 18.4705L19.7965 15.3967C19.4562 15.1836 19.0138 15.2337 18.7297 15.5174L16.7995 17.4485C16.6117 17.6376 16.3466 17.7286 16.0822 17.6946C15.1262 17.5731 12.74 17.0343 10.3537 14.648V14.648Z" fill="#2E62C1"/>
<path d="M19.8304 13.3621C19.3543 13.3621 18.9683 12.9762 18.9683 12.5C18.9642 8.93087 16.0719 6.0385 12.5027 6.03446C12.0266 6.03446 11.6406 5.64849 11.6406 5.17238C11.6406 4.69627 12.0266 4.3103 12.5027 4.3103C17.0237 4.31529 20.6875 7.97904 20.6924 12.5C20.6924 12.9762 20.3065 13.3621 19.8304 13.3621Z" fill="#2E62C1"/>
<path d="M24.1408 13.3622C23.6646 13.3622 23.2787 12.9762 23.2787 12.5001C23.272 6.55148 18.4514 1.73081 12.5027 1.72416C12.0266 1.72416 11.6406 1.33819 11.6406 0.862078C11.6406 0.385965 12.0266 0 12.5027 0C19.4032 0.00760175 24.9952 5.59965 25.0028 12.5001C25.0028 12.7288 24.912 12.948 24.7503 13.1097C24.5887 13.2714 24.3694 13.3622 24.1408 13.3622Z" fill="#2E62C1"/>
</svg>
