<svg width="15" height="15" viewBox="0 0 15 15" fill="none" xmlns="http://www.w3.org/2000/svg">
<path d="M6.16551 8.38542C4.83817 7.05807 4.53846 5.73073 4.47085 5.19893C4.45195 5.05189 4.50256 4.90442 4.60775 4.79996L5.6819 3.72629C5.83991 3.56838 5.86795 3.32228 5.74952 3.13287L4.03927 0.477232C3.90824 0.267497 3.63921 0.191801 3.41804 0.302443L0.672484 1.5955C0.493633 1.68357 0.388436 1.87359 0.408742 2.07191C0.552602 3.43857 1.14842 6.79817 4.44999 10.1C7.75156 13.4018 11.1107 13.9974 12.4781 14.1412C12.6764 14.1615 12.8664 14.0563 12.9545 13.8775L14.2475 11.1319C14.3578 10.9112 14.2826 10.6429 14.0737 10.5117L11.4181 8.80189C11.2288 8.68333 10.9827 8.71117 10.8246 8.86902L9.75096 9.94317C9.6465 10.0484 9.49904 10.099 9.35199 10.0801C8.82019 10.0125 7.49285 9.71276 6.16551 8.38542V8.38542Z" fill="#2E62C1"/>
<path d="M11.4364 7.67033C11.1716 7.67033 10.9569 7.45563 10.9569 7.1908C10.9546 5.20545 9.34574 3.59656 7.36039 3.59432C7.09555 3.59432 6.88086 3.37962 6.88086 3.11478C6.88086 2.84995 7.09555 2.63525 7.36039 2.63525C9.8752 2.63803 11.9132 4.67599 11.9159 7.1908C11.9159 7.45563 11.7012 7.67033 11.4364 7.67033Z" fill="#2E62C1"/>
<path d="M13.8341 7.67028C13.5692 7.67028 13.3545 7.45558 13.3545 7.19075C13.3508 3.88181 10.6693 1.20031 7.36039 1.19661C7.09555 1.19661 6.88086 0.981917 6.88086 0.71708C6.88086 0.452242 7.09555 0.237549 7.36039 0.237549C11.1988 0.241777 14.3094 3.35235 14.3136 7.19075C14.3136 7.31793 14.2631 7.4399 14.1731 7.52983C14.0832 7.61976 13.9612 7.67028 13.8341 7.67028Z" fill="#2E62C1"/>
</svg>
