<svg width="22" height="21" viewBox="0 0 22 21" fill="none" xmlns="http://www.w3.org/2000/svg">
<path d="M8.69713 12.3043C6.6927 10.2999 6.2401 8.29543 6.138 7.49235C6.10947 7.27029 6.18588 7.04761 6.34474 6.88986L7.96683 5.2685C8.20544 5.03003 8.24779 4.6584 8.06893 4.37237L5.48627 0.362049C5.2884 0.0453255 4.88213 -0.0689832 4.54814 0.0980981L0.402044 2.05076C0.131959 2.18375 -0.0269014 2.47071 0.00376375 2.77019C0.221007 4.83401 1.12076 9.90737 6.1065 14.8935C11.0922 19.8796 16.1649 20.779 18.2298 20.9962C18.5293 21.0269 18.8162 20.868 18.9492 20.5979L20.9019 16.4518C21.0683 16.1186 20.9548 15.7134 20.6394 15.5152L16.6291 12.9332C16.3432 12.7542 15.9716 12.7962 15.7329 13.0346L14.1116 14.6567C13.9538 14.8155 13.7311 14.892 13.5091 14.8634C12.706 14.7613 10.7016 14.3087 8.69713 12.3043V12.3043Z" fill="#63D2DD"/>
<path d="M16.6567 11.2244C16.2568 11.2244 15.9326 10.9002 15.9326 10.5002C15.9292 7.50213 13.4996 5.07253 10.5015 5.06914C10.1016 5.06914 9.77734 4.74493 9.77734 4.345C9.77734 3.94506 10.1016 3.62085 10.5015 3.62085C14.2991 3.62504 17.3767 6.70259 17.3809 10.5002C17.3809 10.9002 17.0567 11.2244 16.6567 11.2244Z" fill="#63D2DD"/>
<path d="M20.2775 11.2243C19.8775 11.2243 19.5533 10.9 19.5533 10.5001C19.5477 5.50324 15.4984 1.45388 10.5015 1.44829C10.1016 1.44829 9.77734 1.12408 9.77734 0.724146C9.77734 0.324211 10.1016 0 10.5015 0C16.2979 0.00638547 20.9952 4.70371 21.0016 10.5001C21.0016 10.6922 20.9253 10.8764 20.7895 11.0122C20.6537 11.148 20.4695 11.2243 20.2775 11.2243Z" fill="#63D2DD"/>
</svg>
