<svg width="52" height="46" viewBox="0 0 52 46" fill="none" xmlns="http://www.w3.org/2000/svg">
<path d="M25.8658 27.5956C28.4279 27.5956 30.505 25.5185 30.505 22.9563C30.505 20.3942 28.4279 18.3171 25.8658 18.3171C23.3036 18.3171 21.2266 20.3942 21.2266 22.9563C21.2266 25.5185 23.3036 27.5956 25.8658 27.5956Z" fill="#00D8FF"/>
<path fill-rule="evenodd" clip-rule="evenodd" d="M25.8675 13.5239C32.0963 13.5239 37.8826 14.4177 42.2455 15.9197C47.5022 17.7294 50.7342 20.4725 50.7342 22.9564C50.7342 25.5448 47.3089 28.459 41.664 30.3293C37.3962 31.7432 31.7802 32.4814 25.8675 32.4814C19.8054 32.4814 14.0649 31.7885 9.74908 30.3137C4.28879 28.4474 1 25.4955 1 22.9564C1 20.4927 4.0859 17.7708 9.26868 15.9638C13.6478 14.437 19.5771 13.5239 25.8667 13.5239H25.8675Z" stroke="#00D8FF" stroke-width="1.5"/>
<path fill-rule="evenodd" clip-rule="evenodd" d="M17.6547 18.2673C20.7665 12.8716 24.4313 8.30554 27.9121 5.27642C32.1058 1.62679 36.0968 0.197492 38.2484 1.43823C40.4908 2.73131 41.304 7.1545 40.1041 12.9788C39.1979 17.3823 37.0308 22.6158 34.077 27.7378C31.0484 32.9893 27.5806 37.616 24.1472 40.617C19.8027 44.4148 15.6025 45.7892 13.403 44.5207C11.2687 43.2908 10.4525 39.257 11.4764 33.8645C12.3415 29.3082 14.5125 23.7158 17.6537 18.2673L17.6547 18.2673Z" stroke="#00D8FF" stroke-width="1.5"/>
<path fill-rule="evenodd" clip-rule="evenodd" d="M17.6632 27.7515C14.5426 22.3619 12.418 16.9054 11.5311 12.3771C10.4636 6.92103 11.2184 2.74947 13.3681 1.50513C15.6082 0.208254 19.8464 1.71264 24.2931 5.66097C27.6551 8.64607 31.1074 13.1364 34.0699 18.2536C37.1071 23.5 39.3835 28.8152 40.269 33.2884C41.3896 38.9491 40.4827 43.2743 38.2852 44.5464C36.153 45.7807 32.2512 44.4739 28.0907 40.8936C24.5754 37.8687 20.8146 33.1947 17.6632 27.7515V27.7515Z" stroke="#00D8FF" stroke-width="1.5"/>
</svg>
