<svg width="37" height="36" viewBox="0 0 37 36" fill="none" xmlns="http://www.w3.org/2000/svg">
<path fill-rule="evenodd" clip-rule="evenodd" d="M7.35938 36L34.0471 34.1889L36.1025 7.27881L27.9706 23.7612L7.35938 36V36Z" fill="url(#paint0_linear_203_189)"/>
<path fill-rule="evenodd" clip-rule="evenodd" d="M25.5488 26.5897L34.0907 34.1713L31.7967 18.3394L25.5488 26.5897V26.5897Z" fill="url(#paint1_linear_203_189)"/>
<path fill-rule="evenodd" clip-rule="evenodd" d="M7.45117 35.9655L34.1244 34.1708L17.3195 32.8516L7.45117 35.9655V35.9655Z" fill="url(#paint2_linear_203_189)"/>
<path fill-rule="evenodd" clip-rule="evenodd" d="M2.43164 24.1919L7.47151 35.9698L11.6695 22.2168L2.43164 24.1919V24.1919Z" fill="url(#paint3_linear_203_189)"/>
<path fill-rule="evenodd" clip-rule="evenodd" d="M10.6328 21.867L25.5501 26.6353L21.6874 11.5049L10.6328 21.867Z" fill="url(#paint4_linear_203_189)"/>
<path fill-rule="evenodd" clip-rule="evenodd" d="M21.8711 12.5904L35.2305 11.7176L24.7809 3.18311L21.8711 12.5904V12.5904Z" fill="url(#paint5_linear_203_189)"/>
<path fill-rule="evenodd" clip-rule="evenodd" d="M20.3203 0.0949707L30.3436 0.140522L24.1977 3.53688L20.3203 0.0949707Z" fill="url(#paint6_linear_203_189)"/>
<path fill-rule="evenodd" clip-rule="evenodd" d="M0.491905 18.5161L0 28.8053L2.57456 24.1098L0.491905 18.5161Z" fill="url(#paint7_linear_203_189)"/>
<path fill-rule="evenodd" clip-rule="evenodd" d="M0.355469 18.3391L2.45085 24.2827L11.5557 22.2402L21.9506 12.5796L24.8842 3.26148L20.2652 0L12.4121 2.93897C9.93769 5.24031 5.13653 9.79361 4.96348 9.87929C4.79222 9.96674 1.79302 15.6352 0.355469 18.3391V18.3391Z" fill="white"/>
<path fill-rule="evenodd" clip-rule="evenodd" d="M7.7122 7.66167C13.0746 2.34494 19.9875 -0.796352 22.6404 1.88026C25.2915 4.55695 22.48 11.0617 17.1177 16.3766C11.7554 21.6916 4.92812 25.006 2.27696 22.3293C-0.375985 19.6546 2.34982 12.9767 7.7122 7.66167Z" fill="url(#paint8_linear_203_189)"/>
<path fill-rule="evenodd" clip-rule="evenodd" d="M7.47266 35.9639L11.6379 22.1672L25.471 26.6112C20.4694 31.3012 14.9067 35.266 7.47266 35.9639Z" fill="url(#paint9_linear_203_189)"/>
<path fill-rule="evenodd" clip-rule="evenodd" d="M21.9707 12.5524L25.5219 26.6187C29.6999 22.2257 33.4497 17.5029 35.2863 11.6614L21.9707 12.5524Z" fill="url(#paint10_linear_203_189)"/>
<path fill-rule="evenodd" clip-rule="evenodd" d="M35.2483 11.7322C36.6695 7.44303 36.9974 1.2899 30.2959 0.147461L24.7969 3.18483L35.2483 11.7322Z" fill="url(#paint11_linear_203_189)"/>
<path fill-rule="evenodd" clip-rule="evenodd" d="M0.00195312 28.743C0.198662 35.8218 5.30597 35.9275 7.4815 35.9894L2.45623 24.2534L0.00195312 28.743V28.743Z" fill="#9E1209"/>
<path fill-rule="evenodd" clip-rule="evenodd" d="M21.9863 12.5744C25.1967 14.5476 31.6669 18.5106 31.7982 18.5836C32.0022 18.6984 34.5877 14.2233 35.1744 11.6943L21.9863 12.5744V12.5744Z" fill="url(#paint12_radial_203_189)"/>
<path fill-rule="evenodd" clip-rule="evenodd" d="M11.6348 22.1675L17.203 32.9104C20.4955 31.1247 23.0738 28.9492 25.4351 26.6187L11.6348 22.1675Z" fill="url(#paint13_radial_203_189)"/>
<path fill-rule="evenodd" clip-rule="evenodd" d="M2.43341 24.268L1.64453 33.6626C3.13315 35.696 5.1811 35.8727 7.32933 35.7143C5.77514 31.846 2.67033 24.1113 2.43341 24.268Z" fill="url(#paint14_linear_203_189)"/>
<path fill-rule="evenodd" clip-rule="evenodd" d="M24.7617 3.20823L35.8235 4.76063C35.2331 2.25894 33.4202 0.644609 30.33 0.139893L24.7617 3.20823V3.20823Z" fill="url(#paint15_linear_203_189)"/>
<defs>
<linearGradient id="paint0_linear_203_189" x1="31.7187" y1="39.2733" x2="24.1024" y2="25.8265" gradientUnits="userSpaceOnUse">
<stop stop-color="#FB7655"/>
<stop offset="0.41" stop-color="#E42B1E"/>
<stop offset="0.99001" stop-color="#990000"/>
<stop offset="1" stop-color="#990000"/>
</linearGradient>
<linearGradient id="paint1_linear_203_189" x1="35.5126" y1="27.9792" x2="25.6974" y2="21.3926" gradientUnits="userSpaceOnUse">
<stop stop-color="#871101"/>
<stop offset="0.99001" stop-color="#911209"/>
<stop offset="1" stop-color="#911209"/>
</linearGradient>
<linearGradient id="paint2_linear_203_189" x1="27.6622" y1="39.6813" x2="17.847" y2="33.0947" gradientUnits="userSpaceOnUse">
<stop stop-color="#871101"/>
<stop offset="0.99001" stop-color="#911209"/>
<stop offset="1" stop-color="#911209"/>
</linearGradient>
<linearGradient id="paint3_linear_203_189" x1="7.05175" y1="23.2119" x2="8.57336" y2="33.1008" gradientUnits="userSpaceOnUse">
<stop stop-color="white"/>
<stop offset="0.23" stop-color="#E57252"/>
<stop offset="0.46001" stop-color="#DE3B20"/>
<stop offset="0.99001" stop-color="#A60003"/>
<stop offset="1" stop-color="#A60003"/>
</linearGradient>
<linearGradient id="paint4_linear_203_189" x1="17.5207" y1="13.9776" x2="18.0814" y2="24.07" gradientUnits="userSpaceOnUse">
<stop stop-color="white"/>
<stop offset="0.23" stop-color="#E4714E"/>
<stop offset="0.56" stop-color="#BE1A0D"/>
<stop offset="0.99001" stop-color="#A80D00"/>
<stop offset="1" stop-color="#A80D00"/>
</linearGradient>
<linearGradient id="paint5_linear_203_189" x1="26.8096" y1="4.65046" x2="28.4879" y2="11.8832" gradientUnits="userSpaceOnUse">
<stop stop-color="white"/>
<stop offset="0.17999" stop-color="#E46342"/>
<stop offset="0.39999" stop-color="#C82410"/>
<stop offset="0.99001" stop-color="#A80D00"/>
<stop offset="1" stop-color="#A80D00"/>
</linearGradient>
<linearGradient id="paint6_linear_203_189" x1="21.6844" y1="2.10334" x2="28.9169" y2="-1.51292" gradientUnits="userSpaceOnUse">
<stop stop-color="white"/>
<stop offset="0.53999" stop-color="#C81F11"/>
<stop offset="0.99001" stop-color="#BF0905"/>
<stop offset="1" stop-color="#BF0905"/>
</linearGradient>
<linearGradient id="paint7_linear_203_189" x1="0.711299" y1="20.6908" x2="1.30657" y2="26.6507" gradientUnits="userSpaceOnUse">
<stop stop-color="white"/>
<stop offset="0.31" stop-color="#DE4024"/>
<stop offset="0.99001" stop-color="#BF190B"/>
<stop offset="1" stop-color="#BF190B"/>
</linearGradient>
<linearGradient id="paint8_linear_203_189" x1="-3.38062" y1="28.2619" x2="24.6016" y2="-0.511678" gradientUnits="userSpaceOnUse">
<stop stop-color="#BD0012"/>
<stop offset="0.07001" stop-color="white"/>
<stop offset="0.27" stop-color="#C82F1C"/>
<stop offset="0.33" stop-color="#820C01"/>
<stop offset="0.46001" stop-color="#A31601"/>
<stop offset="0.72" stop-color="#B31301"/>
<stop offset="0.99001" stop-color="#E82609"/>
<stop offset="1" stop-color="#E82609"/>
</linearGradient>
<linearGradient id="paint9_linear_203_189" x1="18.0546" y1="31.1633" x2="9.62681" y2="29.0833" gradientUnits="userSpaceOnUse">
<stop stop-color="#8C0C01"/>
<stop offset="0.53999" stop-color="#990C00"/>
<stop offset="0.99001" stop-color="#A80D0E"/>
<stop offset="1" stop-color="#A80D0E"/>
</linearGradient>
<linearGradient id="paint10_linear_203_189" x1="32.5324" y1="21.0475" x2="25.0448" y2="14.3366" gradientUnits="userSpaceOnUse">
<stop stop-color="#7E110B"/>
<stop offset="0.99001" stop-color="#9E0C00"/>
<stop offset="1" stop-color="#9E0C00"/>
</linearGradient>
<linearGradient id="paint11_linear_203_189" x1="35.2816" y1="8.73422" x2="31.5518" y2="4.74681" gradientUnits="userSpaceOnUse">
<stop stop-color="#79130D"/>
<stop offset="0.99001" stop-color="#9E120B"/>
<stop offset="1" stop-color="#9E120B"/>
</linearGradient>
<radialGradient id="paint12_radial_203_189" cx="0" cy="0" r="1" gradientUnits="userSpaceOnUse" gradientTransform="translate(26.2062 14.4657) scale(9.17593)">
<stop stop-color="#A80D00"/>
<stop offset="0.99001" stop-color="#7E0E08"/>
<stop offset="1" stop-color="#7E0E08"/>
</radialGradient>
<radialGradient id="paint13_radial_203_189" cx="0" cy="0" r="1" gradientUnits="userSpaceOnUse" gradientTransform="translate(13.5043 26.5568) scale(12.1982)">
<stop stop-color="#A30C00"/>
<stop offset="0.99001" stop-color="#800E08"/>
<stop offset="1" stop-color="#800E08"/>
</radialGradient>
<linearGradient id="paint14_linear_203_189" x1="4.86064" y1="35.9563" x2="1.82105" y2="25.644" gradientUnits="userSpaceOnUse">
<stop stop-color="#8B2114"/>
<stop offset="0.42999" stop-color="#9E100A"/>
<stop offset="0.99001" stop-color="#B3100C"/>
<stop offset="1" stop-color="#B3100C"/>
</linearGradient>
<linearGradient id="paint15_linear_203_189" x1="28.1768" y1="1.78491" x2="34.9913" y2="4.79296" gradientUnits="userSpaceOnUse">
<stop stop-color="#B31000"/>
<stop offset="0.44" stop-color="#910F08"/>
<stop offset="0.99001" stop-color="#791C12"/>
<stop offset="1" stop-color="#791C12"/>
</linearGradient>
</defs>
</svg>
