<svg width="48" height="48" viewBox="0 0 48 48" fill="none" xmlns="http://www.w3.org/2000/svg">
<path d="M25.9053 28.9047C25.9053 27.2478 27.2484 25.9047 28.9053 25.9047H47.2878C47.6814 25.9047 48.0005 26.2238 48.0005 26.6174V26.6174C48.0005 38.4266 38.4272 47.9999 26.618 47.9999V47.9999C26.2244 47.9999 25.9053 47.6808 25.9053 47.2872V28.9047Z" fill="#E9AB4B"/>
<path d="M46 24C47.1046 24 48.0087 23.103 47.9167 22.0022C47.5791 17.9599 46.221 14.0572 43.9553 10.6663C41.3181 6.71954 37.5698 3.6434 33.1844 1.82689C28.799 0.0103886 23.9734 -0.464891 19.3178 0.461154C14.6623 1.3872 10.3859 3.67298 7.02945 7.02944C3.67299 10.3859 1.38721 14.6623 0.461164 19.3178C-0.464881 23.9734 0.0103988 28.799 1.8269 33.1844C3.64341 37.5698 6.71955 41.3181 10.6663 43.9553C14.0572 46.221 17.9599 47.5791 22.0022 47.9167C23.103 48.0087 24 47.1046 24 46V29C24 26.2386 26.2386 24 29 24H46Z" fill="#63D2DD"/>
</svg>
