<svg width="48" height="45" viewBox="0 0 48 45" fill="none" xmlns="http://www.w3.org/2000/svg">
<path d="M18.6257 31.0768C12.3733 26.4687 11.0554 17.6442 15.6821 11.3666C20.3087 5.089 29.1279 3.73558 35.3802 8.34363C41.6326 12.9517 42.9505 21.7762 38.3239 28.0538C33.6973 34.3314 24.8781 35.6848 18.6257 31.0768ZM34.7636 9.18032C28.9715 4.91146 20.8015 6.16526 16.5154 11.9808C12.2293 17.7963 13.4502 25.9712 19.2424 30.2401C25.0345 34.509 33.2045 33.2552 37.4906 27.4397C41.7766 21.6242 40.5557 13.4492 34.7636 9.18032Z" fill="#63D2DD"/>
<path d="M8.71923 37.1595C3.90389 33.6106 2.87728 26.83 6.42623 22.0146C9.97517 17.1993 16.7558 16.1727 21.5711 19.7216C26.3864 23.2706 27.413 30.0512 23.8641 34.8665C20.3152 39.6819 13.5346 40.7085 8.71923 37.1595ZM21.0981 20.3634C16.6372 17.0757 10.3557 18.0268 7.06802 22.4877C3.78032 26.9485 4.73136 33.23 9.19224 36.5177C13.6531 39.8054 19.9346 38.8544 23.2223 34.3935C26.51 29.9326 25.559 23.6512 21.0981 20.3634Z" fill="#E9AB4B"/>
<path d="M23.0606 37.8674C17.7159 33.9283 16.6065 26.3613 20.5828 20.9661C24.5591 15.5709 32.1154 14.3906 37.4601 18.3297C42.8049 22.2689 43.9143 29.8358 39.938 35.231C35.9616 40.6262 28.4054 41.8066 23.0606 37.8674ZM36.7437 19.3017C31.9308 15.7545 25.1264 16.8174 21.5458 21.6758C17.9651 26.5342 18.9641 33.3482 23.777 36.8954C28.59 40.4426 35.3944 39.3797 38.975 34.5213C42.5557 29.663 41.5567 22.8489 36.7437 19.3017Z" fill="#293256"/>
</svg>
