<svg width="53" height="37" viewBox="0 0 53 37" fill="none" xmlns="http://www.w3.org/2000/svg">
<path d="M25.1495 0.580818C15.4531 10.2772 15.5357 26.0236 25.3334 35.6177L25.6107 35.8892C25.6756 35.9528 25.7793 35.9528 25.8442 35.8893L26.1244 35.615C35.9232 26.0229 36.0072 10.2768 26.3112 0.580815V0.580815C25.9904 0.260035 25.4703 0.260038 25.1495 0.580818V0.580818Z" fill="#2E62C1"/>
<path d="M0 11.2207C0 25.1183 11.2662 36.3845 25.1638 36.3845H26.0026V35.5457C26.0026 21.6481 14.7364 10.3819 0.838795 10.3819V10.3819C0.375542 10.3819 0 10.7574 0 11.2207V11.2207Z" fill="#63D2DD"/>
<path d="M26.841 36.3845C40.7386 36.3845 52.0049 25.1183 52.0049 11.2207V11.2207C52.0049 10.7574 51.6293 10.3819 51.1661 10.3819V10.3819C37.2685 10.3819 26.0023 21.6481 26.0023 35.5457V36.3845H26.841Z" fill="#293256"/>
</svg>
