<svg width="150" height="52" viewBox="0 0 150 52" fill="none" xmlns="http://www.w3.org/2000/svg">
<path d="M58.716 21V5.424H64.128C65.1693 5.424 66.1007 5.56333 66.922 5.842C67.758 6.106 68.4547 6.59 69.012 7.294C69.584 7.98333 69.87 8.84867 69.87 9.89C69.87 10.99 69.5547 11.9067 68.924 12.64C68.2933 13.3587 67.4207 13.8427 66.306 14.092L70.464 21H67.12L63.512 14.4H61.488V21H58.716ZM61.488 12.134H63.754C65.9833 12.134 67.098 11.3787 67.098 9.868C67.098 9.10533 66.7973 8.56267 66.196 8.24C65.5947 7.91733 64.8613 7.756 63.996 7.756H61.488V12.134ZM74.1861 14.664H79.5981C79.5981 13.9307 79.3855 13.322 78.9601 12.838C78.5348 12.354 77.9188 12.112 77.1121 12.112C76.3348 12.112 75.6675 12.354 75.1101 12.838C74.5528 13.322 74.2448 13.9307 74.1861 14.664ZM82.2381 15.852C82.2381 16.16 82.2308 16.3947 82.2161 16.556H74.1861C74.2448 17.2893 74.5675 17.9053 75.1541 18.404C75.7408 18.9027 76.4228 19.152 77.2001 19.152C78.4175 19.152 79.3488 18.6973 79.9941 17.788L81.7541 19.196C80.7128 20.604 79.2021 21.308 77.2221 21.308C75.5648 21.308 74.2008 20.8093 73.1301 19.812C72.0741 18.8147 71.5461 17.4727 71.5461 15.786C71.5461 14.0993 72.0741 12.7353 73.1301 11.694C74.1861 10.6527 75.5208 10.132 77.1341 10.132C78.6595 10.132 79.8915 10.6233 80.8301 11.606C81.7688 12.5887 82.2381 14.004 82.2381 15.852ZM92.2969 11.738L90.5809 13.256C90.3316 12.9333 90.0016 12.662 89.5909 12.442C89.1803 12.222 88.7403 12.112 88.2709 12.112C87.8016 12.112 87.3983 12.2073 87.0609 12.398C86.7383 12.5887 86.5769 12.8747 86.5769 13.256C86.5769 13.6227 86.7456 13.894 87.0829 14.07C87.4203 14.246 88.0143 14.4367 88.8649 14.642C89.3196 14.7447 89.7229 14.8693 90.0749 15.016C90.4269 15.148 90.7789 15.3313 91.1309 15.566C91.4976 15.8007 91.7763 16.1087 91.9669 16.49C92.1723 16.8713 92.2749 17.304 92.2749 17.788C92.2749 18.9907 91.8569 19.878 91.0209 20.45C90.1996 21.022 89.1509 21.308 87.8749 21.308C87.0389 21.308 86.2323 21.154 85.4549 20.846C84.6776 20.538 84.0396 20.1127 83.5409 19.57L85.2789 17.942C85.9536 18.822 86.8556 19.262 87.9849 19.262C88.4396 19.262 88.8356 19.1593 89.1729 18.954C89.5103 18.7487 89.6789 18.4333 89.6789 18.008C89.6789 17.5973 89.4956 17.2967 89.1289 17.106C88.7769 16.9007 88.1536 16.6953 87.2589 16.49C86.3056 16.2553 85.5429 15.9253 84.9709 15.5C84.4136 15.06 84.1349 14.3927 84.1349 13.498C84.1349 12.398 84.5456 11.562 85.3669 10.99C86.1883 10.418 87.1783 10.132 88.3369 10.132C89.1289 10.132 89.8843 10.2713 90.6029 10.55C91.3216 10.8287 91.8863 11.2247 92.2969 11.738ZM94.5703 10.44H97.1003V11.914H97.1663C97.4743 11.43 97.9363 11.012 98.5523 10.66C99.183 10.308 99.9383 10.132 100.818 10.132C102.314 10.132 103.539 10.66 104.492 11.716C105.46 12.772 105.944 14.092 105.944 15.676C105.944 17.26 105.468 18.5947 104.514 19.68C103.576 20.7653 102.322 21.308 100.752 21.308C100.019 21.308 99.337 21.154 98.7063 20.846C98.0757 20.538 97.5917 20.12 97.2543 19.592H97.2103V26.28H94.5703V10.44ZM102.446 18.074C102.989 17.3847 103.26 16.5853 103.26 15.676C103.26 14.7667 102.989 13.9747 102.446 13.3C101.918 12.6253 101.178 12.288 100.224 12.288C99.3003 12.288 98.5523 12.64 97.9803 13.344C97.4083 14.048 97.1223 14.84 97.1223 15.72C97.1223 16.6 97.4083 17.3847 97.9803 18.074C98.5523 18.7633 99.3003 19.108 100.224 19.108C101.178 19.108 101.918 18.7633 102.446 18.074ZM115.048 21V19.658H114.982C114.718 20.1273 114.286 20.516 113.684 20.824C113.098 21.1173 112.438 21.264 111.704 21.264C110.692 21.264 109.776 21 108.954 20.472C108.148 19.9293 107.744 19.1007 107.744 17.986C107.744 17.3847 107.891 16.864 108.184 16.424C108.492 15.9693 108.874 15.6173 109.328 15.368C109.783 15.1187 110.348 14.9207 111.022 14.774C111.712 14.6127 112.357 14.51 112.958 14.466C113.574 14.422 114.256 14.4 115.004 14.4V14.136C115.004 13.52 114.777 13.0433 114.322 12.706C113.868 12.3687 113.288 12.2 112.584 12.2C111.47 12.2 110.509 12.6033 109.702 13.41L108.338 11.804C109.541 10.6893 111.03 10.132 112.804 10.132C113.714 10.132 114.484 10.264 115.114 10.528C115.76 10.7773 116.251 11.1293 116.588 11.584C116.926 12.024 117.16 12.4933 117.292 12.992C117.439 13.476 117.512 14.004 117.512 14.576V21H115.048ZM115.004 16.556V16.182H114.41C111.726 16.182 110.384 16.7687 110.384 17.942C110.384 18.4113 110.56 18.7487 110.912 18.954C111.279 19.1593 111.719 19.262 112.232 19.262C113.127 19.262 113.809 19.0273 114.278 18.558C114.762 18.074 115.004 17.4067 115.004 16.556ZM122.766 21L119.092 10.44H121.952L124.152 18.008H124.196L126.462 10.44H129.278L131.566 18.008H131.61L133.854 10.44H136.604L132.952 21H130.268L127.87 13.608H127.826L125.45 21H122.766ZM138.27 21V10.44H140.778V12.134H140.822C141.071 11.5767 141.489 11.1073 142.076 10.726C142.677 10.33 143.352 10.132 144.1 10.132C145.39 10.132 146.358 10.55 147.004 11.386C147.664 12.2073 147.994 13.212 147.994 14.4V21H145.354V15.148C145.354 13.2707 144.694 12.332 143.374 12.332C142.582 12.332 141.973 12.618 141.548 13.19C141.122 13.7473 140.91 14.4147 140.91 15.192V21H138.27Z" fill="#2E62C1"/>
<path d="M56.824 46L63.6 30.424H65.998L72.708 46H69.54L68.088 42.436H61.334L59.926 46H56.824ZM62.28 40.06H67.12L64.722 33.724L62.28 40.06ZM81.6192 36.738L79.9032 38.256C79.6539 37.9333 79.3239 37.662 78.9132 37.442C78.5025 37.222 78.0625 37.112 77.5932 37.112C77.1239 37.112 76.7205 37.2073 76.3832 37.398C76.0605 37.5887 75.8992 37.8747 75.8992 38.256C75.8992 38.6227 76.0679 38.894 76.4052 39.07C76.7425 39.246 77.3365 39.4367 78.1872 39.642C78.6419 39.7447 79.0452 39.8693 79.3972 40.016C79.7492 40.148 80.1012 40.3313 80.4532 40.566C80.8199 40.8007 81.0985 41.1087 81.2892 41.49C81.4945 41.8713 81.5972 42.304 81.5972 42.788C81.5972 43.9907 81.1792 44.878 80.3432 45.45C79.5219 46.022 78.4732 46.308 77.1972 46.308C76.3612 46.308 75.5545 46.154 74.7772 45.846C73.9999 45.538 73.3619 45.1127 72.8632 44.57L74.6012 42.942C75.2759 43.822 76.1779 44.262 77.3072 44.262C77.7619 44.262 78.1579 44.1593 78.4952 43.954C78.8325 43.7487 79.0012 43.4333 79.0012 43.008C79.0012 42.5973 78.8179 42.2967 78.4512 42.106C78.0992 41.9007 77.4759 41.6953 76.5812 41.49C75.6279 41.2553 74.8652 40.9253 74.2932 40.5C73.7359 40.06 73.4572 39.3927 73.4572 38.498C73.4572 37.398 73.8679 36.562 74.6892 35.99C75.5105 35.418 76.5005 35.132 77.6592 35.132C78.4512 35.132 79.2065 35.2713 79.9252 35.55C80.6439 35.8287 81.2085 36.2247 81.6192 36.738ZM83.8926 35.44H86.4226V36.914H86.4886C86.7966 36.43 87.2586 36.012 87.8746 35.66C88.5053 35.308 89.2606 35.132 90.1406 35.132C91.6366 35.132 92.8613 35.66 93.8146 36.716C94.7826 37.772 95.2666 39.092 95.2666 40.676C95.2666 42.26 94.7899 43.5947 93.8366 44.68C92.8979 45.7653 91.6439 46.308 90.0746 46.308C89.3413 46.308 88.6593 46.154 88.0286 45.846C87.3979 45.538 86.9139 45.12 86.5766 44.592H86.5326V51.28H83.8926V35.44ZM91.7686 43.074C92.3113 42.3847 92.5826 41.5853 92.5826 40.676C92.5826 39.7667 92.3113 38.9747 91.7686 38.3C91.2406 37.6253 90.4999 37.288 89.5466 37.288C88.6226 37.288 87.8746 37.64 87.3026 38.344C86.7306 39.048 86.4446 39.84 86.4446 40.72C86.4446 41.6 86.7306 42.3847 87.3026 43.074C87.8746 43.7633 88.6226 44.108 89.5466 44.108C90.4999 44.108 91.2406 43.7633 91.7686 43.074ZM97.8585 45.648C97.5065 45.3253 97.3305 44.9293 97.3305 44.46C97.3305 43.9907 97.4991 43.5873 97.8365 43.25C98.1885 42.9127 98.6065 42.744 99.0905 42.744C99.5745 42.744 99.9851 42.9053 100.322 43.228C100.674 43.5507 100.85 43.9467 100.85 44.416C100.85 44.8853 100.674 45.2887 100.322 45.626C99.9851 45.9633 99.5745 46.132 99.0905 46.132C98.6211 46.132 98.2105 45.9707 97.8585 45.648ZM103.661 46V30.424H107.335L114.573 42.084H114.617V30.424H117.389V46H113.869L106.477 33.966H106.433V46H103.661ZM120.827 46V30.424H131.145V32.844H123.599V36.804H130.749V39.136H123.599V43.536H131.541V46H120.827ZM137.401 46V32.844H132.627V30.424H144.947V32.844H140.173V46H137.401Z" fill="#2E62C1"/>
<path d="M25.1495 8.58082C15.4531 18.2772 15.5357 34.0236 25.3334 43.6177L25.6107 43.8892C25.6756 43.9528 25.7793 43.9528 25.8442 43.8893L26.1244 43.615C35.9232 34.0229 36.0072 18.2768 26.3112 8.58081C25.9904 8.26004 25.4703 8.26004 25.1495 8.58082Z" fill="#2E62C1"/>
<path d="M0 19.2207C0 33.1183 11.2662 44.3845 25.1638 44.3845H26.0026V43.5457C26.0026 29.6481 14.7364 18.3819 0.838795 18.3819C0.375542 18.3819 0 18.7574 0 19.2207Z" fill="#63D2DD"/>
<path d="M26.841 44.3845C40.7386 44.3845 52.0049 33.1183 52.0049 19.2207C52.0049 18.7574 51.6293 18.3819 51.1661 18.3819C37.2685 18.3819 26.0023 29.6481 26.0023 43.5457V44.3845H26.841Z" fill="#293256"/>
</svg>
