<svg width="151" height="55" viewBox="0 0 151 55" fill="none" xmlns="http://www.w3.org/2000/svg">
<path d="M29.4924 15.9287C31.106 10.3587 27.8987 4.5353 22.3287 2.9217C16.7588 1.30809 10.9353 4.51536 9.32173 10.0853C7.70813 15.6553 10.9154 21.4787 16.4854 23.0923L25.92 25.8255C26.2794 25.9296 26.6551 25.7227 26.7592 25.3634L29.4924 15.9287Z" fill="#2E62C1"/>
<path d="M31.4133 16.4852C33.0269 10.9153 38.8503 7.70799 44.4203 9.32159C49.9903 10.9352 53.1975 16.7586 51.5839 22.3286C49.9703 27.8986 44.1469 31.1058 38.5769 29.4922L29.1423 26.759C28.7829 26.6549 28.576 26.2792 28.6801 25.9199L31.4133 16.4852Z" fill="#63D2DD"/>
<path d="M25.0135 38.5769C23.3999 44.1469 26.6071 49.9703 32.1771 51.5839C37.7471 53.1975 43.5705 49.9903 45.1841 44.4203C46.7977 38.8503 43.5905 33.0269 38.0205 31.4133L28.5858 28.6801C28.2265 28.576 27.8508 28.7829 27.7467 29.1423L25.0135 38.5769Z" fill="#2E62C1"/>
<path d="M23.0926 38.0204C21.479 43.5904 15.6555 46.7976 10.0856 45.184C4.5156 43.5704 1.30834 37.747 2.92194 32.177C4.53554 26.607 10.359 23.3998 15.9289 25.0134L25.3636 27.7466C25.723 27.8507 25.9299 28.2264 25.8258 28.5857L23.0926 38.0204Z" fill="#63D2DD"/>
<path d="M59.716 22V6.424H65.128C66.1693 6.424 67.1007 6.56333 67.922 6.842C68.758 7.106 69.4547 7.59 70.012 8.294C70.584 8.98333 70.87 9.84867 70.87 10.89C70.87 11.99 70.5547 12.9067 69.924 13.64C69.2933 14.3587 68.4207 14.8427 67.306 15.092L71.464 22H68.12L64.512 15.4H62.488V22H59.716ZM62.488 13.134H64.754C66.9833 13.134 68.098 12.3787 68.098 10.868C68.098 10.1053 67.7973 9.56267 67.196 9.24C66.5947 8.91733 65.8613 8.756 64.996 8.756H62.488V13.134ZM75.1861 15.664H80.5981C80.5981 14.9307 80.3855 14.322 79.9601 13.838C79.5348 13.354 78.9188 13.112 78.1121 13.112C77.3348 13.112 76.6675 13.354 76.1101 13.838C75.5528 14.322 75.2448 14.9307 75.1861 15.664ZM83.2381 16.852C83.2381 17.16 83.2308 17.3947 83.2161 17.556H75.1861C75.2448 18.2893 75.5675 18.9053 76.1541 19.404C76.7408 19.9027 77.4228 20.152 78.2001 20.152C79.4175 20.152 80.3488 19.6973 80.9941 18.788L82.7541 20.196C81.7128 21.604 80.2021 22.308 78.2221 22.308C76.5648 22.308 75.2008 21.8093 74.1301 20.812C73.0741 19.8147 72.5461 18.4727 72.5461 16.786C72.5461 15.0993 73.0741 13.7353 74.1301 12.694C75.1861 11.6527 76.5208 11.132 78.1341 11.132C79.6595 11.132 80.8915 11.6233 81.8301 12.606C82.7688 13.5887 83.2381 15.004 83.2381 16.852ZM93.2969 12.738L91.5809 14.256C91.3316 13.9333 91.0016 13.662 90.5909 13.442C90.1803 13.222 89.7403 13.112 89.2709 13.112C88.8016 13.112 88.3983 13.2073 88.0609 13.398C87.7383 13.5887 87.5769 13.8747 87.5769 14.256C87.5769 14.6227 87.7456 14.894 88.0829 15.07C88.4203 15.246 89.0143 15.4367 89.8649 15.642C90.3196 15.7447 90.7229 15.8693 91.0749 16.016C91.4269 16.148 91.7789 16.3313 92.1309 16.566C92.4976 16.8007 92.7763 17.1087 92.9669 17.49C93.1723 17.8713 93.2749 18.304 93.2749 18.788C93.2749 19.9907 92.8569 20.878 92.0209 21.45C91.1996 22.022 90.1509 22.308 88.8749 22.308C88.0389 22.308 87.2323 22.154 86.4549 21.846C85.6776 21.538 85.0396 21.1127 84.5409 20.57L86.2789 18.942C86.9536 19.822 87.8556 20.262 88.9849 20.262C89.4396 20.262 89.8356 20.1593 90.1729 19.954C90.5103 19.7487 90.6789 19.4333 90.6789 19.008C90.6789 18.5973 90.4956 18.2967 90.1289 18.106C89.7769 17.9007 89.1536 17.6953 88.2589 17.49C87.3056 17.2553 86.5429 16.9253 85.9709 16.5C85.4136 16.06 85.1349 15.3927 85.1349 14.498C85.1349 13.398 85.5456 12.562 86.3669 11.99C87.1883 11.418 88.1783 11.132 89.3369 11.132C90.1289 11.132 90.8843 11.2713 91.6029 11.55C92.3216 11.8287 92.8863 12.2247 93.2969 12.738ZM95.5703 11.44H98.1003V12.914H98.1663C98.4743 12.43 98.9363 12.012 99.5523 11.66C100.183 11.308 100.938 11.132 101.818 11.132C103.314 11.132 104.539 11.66 105.492 12.716C106.46 13.772 106.944 15.092 106.944 16.676C106.944 18.26 106.468 19.5947 105.514 20.68C104.576 21.7653 103.322 22.308 101.752 22.308C101.019 22.308 100.337 22.154 99.7063 21.846C99.0757 21.538 98.5917 21.12 98.2543 20.592H98.2103V27.28H95.5703V11.44ZM103.446 19.074C103.989 18.3847 104.26 17.5853 104.26 16.676C104.26 15.7667 103.989 14.9747 103.446 14.3C102.918 13.6253 102.178 13.288 101.224 13.288C100.3 13.288 99.5523 13.64 98.9803 14.344C98.4083 15.048 98.1223 15.84 98.1223 16.72C98.1223 17.6 98.4083 18.3847 98.9803 19.074C99.5523 19.7633 100.3 20.108 101.224 20.108C102.178 20.108 102.918 19.7633 103.446 19.074ZM116.048 22V20.658H115.982C115.718 21.1273 115.286 21.516 114.684 21.824C114.098 22.1173 113.438 22.264 112.704 22.264C111.692 22.264 110.776 22 109.954 21.472C109.148 20.9293 108.744 20.1007 108.744 18.986C108.744 18.3847 108.891 17.864 109.184 17.424C109.492 16.9693 109.874 16.6173 110.328 16.368C110.783 16.1187 111.348 15.9207 112.022 15.774C112.712 15.6127 113.357 15.51 113.958 15.466C114.574 15.422 115.256 15.4 116.004 15.4V15.136C116.004 14.52 115.777 14.0433 115.322 13.706C114.868 13.3687 114.288 13.2 113.584 13.2C112.47 13.2 111.509 13.6033 110.702 14.41L109.338 12.804C110.541 11.6893 112.03 11.132 113.804 11.132C114.714 11.132 115.484 11.264 116.114 11.528C116.76 11.7773 117.251 12.1293 117.588 12.584C117.926 13.024 118.16 13.4933 118.292 13.992C118.439 14.476 118.512 15.004 118.512 15.576V22H116.048ZM116.004 17.556V17.182H115.41C112.726 17.182 111.384 17.7687 111.384 18.942C111.384 19.4113 111.56 19.7487 111.912 19.954C112.279 20.1593 112.719 20.262 113.232 20.262C114.127 20.262 114.809 20.0273 115.278 19.558C115.762 19.074 116.004 18.4067 116.004 17.556ZM123.766 22L120.092 11.44H122.952L125.152 19.008H125.196L127.462 11.44H130.278L132.566 19.008H132.61L134.854 11.44H137.604L133.952 22H131.268L128.87 14.608H128.826L126.45 22H123.766ZM139.27 22V11.44H141.778V13.134H141.822C142.071 12.5767 142.489 12.1073 143.076 11.726C143.677 11.33 144.352 11.132 145.1 11.132C146.39 11.132 147.358 11.55 148.004 12.386C148.664 13.2073 148.994 14.212 148.994 15.4V22H146.354V16.148C146.354 14.2707 145.694 13.332 144.374 13.332C143.582 13.332 142.973 13.618 142.548 14.19C142.122 14.7473 141.91 15.4147 141.91 16.192V22H139.27Z" fill="#2E62C1"/>
<path d="M57.824 47L64.6 31.424H66.998L73.708 47H70.54L69.088 43.436H62.334L60.926 47H57.824ZM63.28 41.06H68.12L65.722 34.724L63.28 41.06ZM82.6192 37.738L80.9032 39.256C80.6539 38.9333 80.3239 38.662 79.9132 38.442C79.5025 38.222 79.0625 38.112 78.5932 38.112C78.1239 38.112 77.7205 38.2073 77.3832 38.398C77.0605 38.5887 76.8992 38.8747 76.8992 39.256C76.8992 39.6227 77.0679 39.894 77.4052 40.07C77.7425 40.246 78.3365 40.4367 79.1872 40.642C79.6419 40.7447 80.0452 40.8693 80.3972 41.016C80.7492 41.148 81.1012 41.3313 81.4532 41.566C81.8199 41.8007 82.0985 42.1087 82.2892 42.49C82.4945 42.8713 82.5972 43.304 82.5972 43.788C82.5972 44.9907 82.1792 45.878 81.3432 46.45C80.5219 47.022 79.4732 47.308 78.1972 47.308C77.3612 47.308 76.5545 47.154 75.7772 46.846C74.9999 46.538 74.3619 46.1127 73.8632 45.57L75.6012 43.942C76.2759 44.822 77.1779 45.262 78.3072 45.262C78.7619 45.262 79.1579 45.1593 79.4952 44.954C79.8325 44.7487 80.0012 44.4333 80.0012 44.008C80.0012 43.5973 79.8179 43.2967 79.4512 43.106C79.0992 42.9007 78.4759 42.6953 77.5812 42.49C76.6279 42.2553 75.8652 41.9253 75.2932 41.5C74.7359 41.06 74.4572 40.3927 74.4572 39.498C74.4572 38.398 74.8679 37.562 75.6892 36.99C76.5105 36.418 77.5005 36.132 78.6592 36.132C79.4512 36.132 80.2065 36.2713 80.9252 36.55C81.6439 36.8287 82.2085 37.2247 82.6192 37.738ZM84.8926 36.44H87.4226V37.914H87.4886C87.7966 37.43 88.2586 37.012 88.8746 36.66C89.5053 36.308 90.2606 36.132 91.1406 36.132C92.6366 36.132 93.8613 36.66 94.8146 37.716C95.7826 38.772 96.2666 40.092 96.2666 41.676C96.2666 43.26 95.7899 44.5947 94.8366 45.68C93.8979 46.7653 92.6439 47.308 91.0746 47.308C90.3413 47.308 89.6593 47.154 89.0286 46.846C88.3979 46.538 87.9139 46.12 87.5766 45.592H87.5326V52.28H84.8926V36.44ZM92.7686 44.074C93.3113 43.3847 93.5826 42.5853 93.5826 41.676C93.5826 40.7667 93.3113 39.9747 92.7686 39.3C92.2406 38.6253 91.4999 38.288 90.5466 38.288C89.6226 38.288 88.8746 38.64 88.3026 39.344C87.7306 40.048 87.4446 40.84 87.4446 41.72C87.4446 42.6 87.7306 43.3847 88.3026 44.074C88.8746 44.7633 89.6226 45.108 90.5466 45.108C91.4999 45.108 92.2406 44.7633 92.7686 44.074ZM98.8585 46.648C98.5065 46.3253 98.3305 45.9293 98.3305 45.46C98.3305 44.9907 98.4991 44.5873 98.8365 44.25C99.1885 43.9127 99.6065 43.744 100.09 43.744C100.574 43.744 100.985 43.9053 101.322 44.228C101.674 44.5507 101.85 44.9467 101.85 45.416C101.85 45.8853 101.674 46.2887 101.322 46.626C100.985 46.9633 100.574 47.132 100.09 47.132C99.6211 47.132 99.2105 46.9707 98.8585 46.648ZM104.661 47V31.424H108.335L115.573 43.084H115.617V31.424H118.389V47H114.869L107.477 34.966H107.433V47H104.661ZM121.827 47V31.424H132.145V33.844H124.599V37.804H131.749V40.136H124.599V44.536H132.541V47H121.827ZM138.401 47V33.844H133.627V31.424H145.947V33.844H141.173V47H138.401Z" fill="#2E62C1"/>
</svg>
