<svg width="146" height="52" viewBox="0 0 146 52" fill="none" xmlns="http://www.w3.org/2000/svg">
<path d="M53.8537 21V5.424H59.2657C60.307 5.424 61.2384 5.56333 62.0597 5.842C62.8957 6.106 63.5924 6.59 64.1497 7.294C64.7217 7.98333 65.0077 8.84867 65.0077 9.89C65.0077 10.99 64.6924 11.9067 64.0617 12.64C63.431 13.3587 62.5584 13.8427 61.4437 14.092L65.6017 21H62.2577L58.6497 14.4H56.6257V21H53.8537ZM56.6257 12.134H58.8917C61.121 12.134 62.2357 11.3787 62.2357 9.868C62.2357 9.10533 61.935 8.56267 61.3337 8.24C60.7324 7.91733 59.999 7.756 59.1337 7.756H56.6257V12.134ZM69.3238 14.664H74.7358C74.7358 13.9307 74.5232 13.322 74.0978 12.838C73.6725 12.354 73.0565 12.112 72.2498 12.112C71.4725 12.112 70.8052 12.354 70.2478 12.838C69.6905 13.322 69.3825 13.9307 69.3238 14.664ZM77.3758 15.852C77.3758 16.16 77.3685 16.3947 77.3538 16.556H69.3238C69.3825 17.2893 69.7052 17.9053 70.2918 18.404C70.8785 18.9027 71.5605 19.152 72.3378 19.152C73.5552 19.152 74.4865 18.6973 75.1318 17.788L76.8918 19.196C75.8505 20.604 74.3398 21.308 72.3598 21.308C70.7025 21.308 69.3385 20.8093 68.2678 19.812C67.2118 18.8147 66.6838 17.4727 66.6838 15.786C66.6838 14.0993 67.2118 12.7353 68.2678 11.694C69.3238 10.6527 70.6585 10.132 72.2718 10.132C73.7972 10.132 75.0292 10.6233 75.9678 11.606C76.9065 12.5887 77.3758 14.004 77.3758 15.852ZM87.4346 11.738L85.7186 13.256C85.4693 12.9333 85.1393 12.662 84.7286 12.442C84.318 12.222 83.878 12.112 83.4086 12.112C82.9393 12.112 82.536 12.2073 82.1986 12.398C81.876 12.5887 81.7146 12.8747 81.7146 13.256C81.7146 13.6227 81.8833 13.894 82.2206 14.07C82.558 14.246 83.152 14.4367 84.0026 14.642C84.4573 14.7447 84.8606 14.8693 85.2126 15.016C85.5646 15.148 85.9166 15.3313 86.2686 15.566C86.6353 15.8007 86.914 16.1087 87.1046 16.49C87.31 16.8713 87.4126 17.304 87.4126 17.788C87.4126 18.9907 86.9946 19.878 86.1586 20.45C85.3373 21.022 84.2886 21.308 83.0126 21.308C82.1766 21.308 81.37 21.154 80.5926 20.846C79.8153 20.538 79.1773 20.1127 78.6786 19.57L80.4166 17.942C81.0913 18.822 81.9933 19.262 83.1226 19.262C83.5773 19.262 83.9733 19.1593 84.3106 18.954C84.648 18.7487 84.8166 18.4333 84.8166 18.008C84.8166 17.5973 84.6333 17.2967 84.2666 17.106C83.9146 16.9007 83.2913 16.6953 82.3966 16.49C81.4433 16.2553 80.6806 15.9253 80.1086 15.5C79.5513 15.06 79.2726 14.3927 79.2726 13.498C79.2726 12.398 79.6833 11.562 80.5046 10.99C81.326 10.418 82.316 10.132 83.4746 10.132C84.2666 10.132 85.022 10.2713 85.7406 10.55C86.4593 10.8287 87.024 11.2247 87.4346 11.738ZM89.708 10.44H92.238V11.914H92.304C92.612 11.43 93.074 11.012 93.69 10.66C94.3207 10.308 95.076 10.132 95.956 10.132C97.452 10.132 98.6767 10.66 99.63 11.716C100.598 12.772 101.082 14.092 101.082 15.676C101.082 17.26 100.605 18.5947 99.652 19.68C98.7134 20.7653 97.4594 21.308 95.89 21.308C95.1567 21.308 94.4747 21.154 93.844 20.846C93.2134 20.538 92.7294 20.12 92.392 19.592H92.348V26.28H89.708V10.44ZM97.584 18.074C98.1267 17.3847 98.398 16.5853 98.398 15.676C98.398 14.7667 98.1267 13.9747 97.584 13.3C97.056 12.6253 96.3154 12.288 95.362 12.288C94.438 12.288 93.69 12.64 93.118 13.344C92.546 14.048 92.26 14.84 92.26 15.72C92.26 16.6 92.546 17.3847 93.118 18.074C93.69 18.7633 94.438 19.108 95.362 19.108C96.3154 19.108 97.056 18.7633 97.584 18.074ZM110.186 21V19.658H110.12C109.856 20.1273 109.423 20.516 108.822 20.824C108.235 21.1173 107.575 21.264 106.842 21.264C105.83 21.264 104.913 21 104.092 20.472C103.285 19.9293 102.882 19.1007 102.882 17.986C102.882 17.3847 103.029 16.864 103.322 16.424C103.63 15.9693 104.011 15.6173 104.466 15.368C104.921 15.1187 105.485 14.9207 106.16 14.774C106.849 14.6127 107.495 14.51 108.096 14.466C108.712 14.422 109.394 14.4 110.142 14.4V14.136C110.142 13.52 109.915 13.0433 109.46 12.706C109.005 12.3687 108.426 12.2 107.722 12.2C106.607 12.2 105.647 12.6033 104.84 13.41L103.476 11.804C104.679 10.6893 106.167 10.132 107.942 10.132C108.851 10.132 109.621 10.264 110.252 10.528C110.897 10.7773 111.389 11.1293 111.726 11.584C112.063 12.024 112.298 12.4933 112.43 12.992C112.577 13.476 112.65 14.004 112.65 14.576V21H110.186ZM110.142 16.556V16.182H109.548C106.864 16.182 105.522 16.7687 105.522 17.942C105.522 18.4113 105.698 18.7487 106.05 18.954C106.417 19.1593 106.857 19.262 107.37 19.262C108.265 19.262 108.947 19.0273 109.416 18.558C109.9 18.074 110.142 17.4067 110.142 16.556ZM117.904 21L114.23 10.44H117.09L119.29 18.008H119.334L121.6 10.44H124.416L126.704 18.008H126.748L128.992 10.44H131.742L128.09 21H125.406L123.008 13.608H122.964L120.588 21H117.904ZM133.407 21V10.44H135.915V12.134H135.959C136.209 11.5767 136.627 11.1073 137.213 10.726C137.815 10.33 138.489 10.132 139.237 10.132C140.528 10.132 141.496 10.55 142.141 11.386C142.801 12.2073 143.131 13.212 143.131 14.4V21H140.491V15.148C140.491 13.2707 139.831 12.332 138.511 12.332C137.719 12.332 137.111 12.618 136.685 13.19C136.26 13.7473 136.047 14.4147 136.047 15.192V21H133.407Z" fill="#2E62C1"/>
<path d="M51.9617 46L58.7377 30.424H61.1357L67.8457 46H64.6777L63.2257 42.436H56.4717L55.0637 46H51.9617ZM57.4177 40.06H62.2577L59.8597 33.724L57.4177 40.06ZM76.7569 36.738L75.0409 38.256C74.7916 37.9333 74.4616 37.662 74.0509 37.442C73.6402 37.222 73.2002 37.112 72.7309 37.112C72.2616 37.112 71.8582 37.2073 71.5209 37.398C71.1982 37.5887 71.0369 37.8747 71.0369 38.256C71.0369 38.6227 71.2056 38.894 71.5429 39.07C71.8802 39.246 72.4742 39.4367 73.3249 39.642C73.7796 39.7447 74.1829 39.8693 74.5349 40.016C74.8869 40.148 75.2389 40.3313 75.5909 40.566C75.9576 40.8007 76.2362 41.1087 76.4269 41.49C76.6322 41.8713 76.7349 42.304 76.7349 42.788C76.7349 43.9907 76.3169 44.878 75.4809 45.45C74.6596 46.022 73.6109 46.308 72.3349 46.308C71.4989 46.308 70.6922 46.154 69.9149 45.846C69.1376 45.538 68.4996 45.1127 68.0009 44.57L69.7389 42.942C70.4136 43.822 71.3156 44.262 72.4449 44.262C72.8996 44.262 73.2956 44.1593 73.6329 43.954C73.9702 43.7487 74.1389 43.4333 74.1389 43.008C74.1389 42.5973 73.9556 42.2967 73.5889 42.106C73.2369 41.9007 72.6136 41.6953 71.7189 41.49C70.7656 41.2553 70.0029 40.9253 69.4309 40.5C68.8736 40.06 68.5949 39.3927 68.5949 38.498C68.5949 37.398 69.0056 36.562 69.8269 35.99C70.6482 35.418 71.6382 35.132 72.7969 35.132C73.5889 35.132 74.3442 35.2713 75.0629 35.55C75.7816 35.8287 76.3462 36.2247 76.7569 36.738ZM79.0303 35.44H81.5603V36.914H81.6263C81.9343 36.43 82.3963 36.012 83.0123 35.66C83.643 35.308 84.3983 35.132 85.2783 35.132C86.7743 35.132 87.999 35.66 88.9523 36.716C89.9203 37.772 90.4043 39.092 90.4043 40.676C90.4043 42.26 89.9276 43.5947 88.9743 44.68C88.0356 45.7653 86.7816 46.308 85.2123 46.308C84.479 46.308 83.797 46.154 83.1663 45.846C82.5356 45.538 82.0516 45.12 81.7143 44.592H81.6703V51.28H79.0303V35.44ZM86.9063 43.074C87.449 42.3847 87.7203 41.5853 87.7203 40.676C87.7203 39.7667 87.449 38.9747 86.9063 38.3C86.3783 37.6253 85.6376 37.288 84.6843 37.288C83.7603 37.288 83.0123 37.64 82.4403 38.344C81.8683 39.048 81.5823 39.84 81.5823 40.72C81.5823 41.6 81.8683 42.3847 82.4403 43.074C83.0123 43.7633 83.7603 44.108 84.6843 44.108C85.6376 44.108 86.3783 43.7633 86.9063 43.074ZM92.9962 45.648C92.6442 45.3253 92.4682 44.9293 92.4682 44.46C92.4682 43.9907 92.6368 43.5873 92.9742 43.25C93.3262 42.9127 93.7442 42.744 94.2282 42.744C94.7122 42.744 95.1228 42.9053 95.4602 43.228C95.8122 43.5507 95.9882 43.9467 95.9882 44.416C95.9882 44.8853 95.8122 45.2887 95.4602 45.626C95.1228 45.9633 94.7122 46.132 94.2282 46.132C93.7588 46.132 93.3482 45.9707 92.9962 45.648ZM98.799 46V30.424H102.473L109.711 42.084H109.755V30.424H112.527V46H109.007L101.615 33.966H101.571V46H98.799ZM115.965 46V30.424H126.283V32.844H118.737V36.804H125.887V39.136H118.737V43.536H126.679V46H115.965ZM132.539 46V32.844H127.765V30.424H140.085V32.844H135.311V46H132.539Z" fill="#2E62C1"/>
<path d="M18.6257 34.0768C12.3733 29.4687 11.0554 20.6442 15.6821 14.3666C20.3087 8.089 29.1279 6.73558 35.3802 11.3436C41.6326 15.9517 42.9505 24.7762 38.3239 31.0538C33.6973 37.3314 24.8781 38.6848 18.6257 34.0768ZM34.7636 12.1803C28.9715 7.91146 20.8015 9.16526 16.5154 14.9808C12.2293 20.7963 13.4502 28.9712 19.2424 33.2401C25.0345 37.509 33.2045 36.2552 37.4906 30.4397C41.7766 24.6242 40.5557 16.4492 34.7636 12.1803Z" fill="#63D2DD"/>
<path d="M8.71923 40.1595C3.90389 36.6106 2.87728 29.83 6.42623 25.0146C9.97517 20.1993 16.7558 19.1727 21.5711 22.7216C26.3864 26.2706 27.413 33.0512 23.8641 37.8665C20.3152 42.6819 13.5346 43.7085 8.71923 40.1595ZM21.0981 23.3634C16.6372 20.0757 10.3557 21.0268 7.06802 25.4877C3.78032 29.9485 4.73136 36.23 9.19224 39.5177C13.6531 42.8054 19.9346 41.8544 23.2223 37.3935C26.51 32.9326 25.559 26.6512 21.0981 23.3634Z" fill="#E9AB4B"/>
<path d="M23.0606 40.8674C17.7159 36.9283 16.6065 29.3613 20.5828 23.9661C24.5591 18.5709 32.1154 17.3906 37.4601 21.3297C42.8049 25.2689 43.9143 32.8358 39.938 38.231C35.9616 43.6262 28.4054 44.8066 23.0606 40.8674ZM36.7437 22.3017C31.9308 18.7545 25.1264 19.8174 21.5458 24.6758C17.9651 29.5342 18.9641 36.3482 23.777 39.8954C28.59 43.4426 35.3944 42.3797 38.975 37.5213C42.5557 32.663 41.5567 25.8489 36.7437 22.3017Z" fill="#293256"/>
</svg>
