<svg width="146" height="52" viewBox="0 0 146 52" fill="none" xmlns="http://www.w3.org/2000/svg">
<path d="M54.716 21V5.424H60.128C61.1693 5.424 62.1007 5.56333 62.922 5.842C63.758 6.106 64.4547 6.59 65.012 7.294C65.584 7.98333 65.87 8.84867 65.87 9.89C65.87 10.99 65.5547 11.9067 64.924 12.64C64.2933 13.3587 63.4207 13.8427 62.306 14.092L66.464 21H63.12L59.512 14.4H57.488V21H54.716ZM57.488 12.134H59.754C61.9833 12.134 63.098 11.3787 63.098 9.868C63.098 9.10533 62.7973 8.56267 62.196 8.24C61.5947 7.91733 60.8613 7.756 59.996 7.756H57.488V12.134ZM70.1861 14.664H75.5981C75.5981 13.9307 75.3855 13.322 74.9601 12.838C74.5348 12.354 73.9188 12.112 73.1121 12.112C72.3348 12.112 71.6675 12.354 71.1101 12.838C70.5528 13.322 70.2448 13.9307 70.1861 14.664ZM78.2381 15.852C78.2381 16.16 78.2308 16.3947 78.2161 16.556H70.1861C70.2448 17.2893 70.5675 17.9053 71.1541 18.404C71.7408 18.9027 72.4228 19.152 73.2001 19.152C74.4175 19.152 75.3488 18.6973 75.9941 17.788L77.7541 19.196C76.7128 20.604 75.2021 21.308 73.2221 21.308C71.5648 21.308 70.2008 20.8093 69.1301 19.812C68.0741 18.8147 67.5461 17.4727 67.5461 15.786C67.5461 14.0993 68.0741 12.7353 69.1301 11.694C70.1861 10.6527 71.5208 10.132 73.1341 10.132C74.6595 10.132 75.8915 10.6233 76.8301 11.606C77.7688 12.5887 78.2381 14.004 78.2381 15.852ZM88.2969 11.738L86.5809 13.256C86.3316 12.9333 86.0016 12.662 85.5909 12.442C85.1803 12.222 84.7403 12.112 84.2709 12.112C83.8016 12.112 83.3983 12.2073 83.0609 12.398C82.7383 12.5887 82.5769 12.8747 82.5769 13.256C82.5769 13.6227 82.7456 13.894 83.0829 14.07C83.4203 14.246 84.0143 14.4367 84.8649 14.642C85.3196 14.7447 85.7229 14.8693 86.0749 15.016C86.4269 15.148 86.7789 15.3313 87.1309 15.566C87.4976 15.8007 87.7763 16.1087 87.9669 16.49C88.1723 16.8713 88.2749 17.304 88.2749 17.788C88.2749 18.9907 87.8569 19.878 87.0209 20.45C86.1996 21.022 85.1509 21.308 83.8749 21.308C83.0389 21.308 82.2323 21.154 81.4549 20.846C80.6776 20.538 80.0396 20.1127 79.5409 19.57L81.2789 17.942C81.9536 18.822 82.8556 19.262 83.9849 19.262C84.4396 19.262 84.8356 19.1593 85.1729 18.954C85.5103 18.7487 85.6789 18.4333 85.6789 18.008C85.6789 17.5973 85.4956 17.2967 85.1289 17.106C84.7769 16.9007 84.1536 16.6953 83.2589 16.49C82.3056 16.2553 81.5429 15.9253 80.9709 15.5C80.4136 15.06 80.1349 14.3927 80.1349 13.498C80.1349 12.398 80.5456 11.562 81.3669 10.99C82.1883 10.418 83.1783 10.132 84.3369 10.132C85.1289 10.132 85.8843 10.2713 86.6029 10.55C87.3216 10.8287 87.8863 11.2247 88.2969 11.738ZM90.5703 10.44H93.1003V11.914H93.1663C93.4743 11.43 93.9363 11.012 94.5523 10.66C95.183 10.308 95.9383 10.132 96.8183 10.132C98.3143 10.132 99.539 10.66 100.492 11.716C101.46 12.772 101.944 14.092 101.944 15.676C101.944 17.26 101.468 18.5947 100.514 19.68C99.5757 20.7653 98.3217 21.308 96.7523 21.308C96.019 21.308 95.337 21.154 94.7063 20.846C94.0757 20.538 93.5917 20.12 93.2543 19.592H93.2103V26.28H90.5703V10.44ZM98.4463 18.074C98.989 17.3847 99.2603 16.5853 99.2603 15.676C99.2603 14.7667 98.989 13.9747 98.4463 13.3C97.9183 12.6253 97.1777 12.288 96.2243 12.288C95.3003 12.288 94.5523 12.64 93.9803 13.344C93.4083 14.048 93.1223 14.84 93.1223 15.72C93.1223 16.6 93.4083 17.3847 93.9803 18.074C94.5523 18.7633 95.3003 19.108 96.2243 19.108C97.1777 19.108 97.9183 18.7633 98.4463 18.074ZM111.048 21V19.658H110.982C110.718 20.1273 110.286 20.516 109.684 20.824C109.098 21.1173 108.438 21.264 107.704 21.264C106.692 21.264 105.776 21 104.954 20.472C104.148 19.9293 103.744 19.1007 103.744 17.986C103.744 17.3847 103.891 16.864 104.184 16.424C104.492 15.9693 104.874 15.6173 105.328 15.368C105.783 15.1187 106.348 14.9207 107.022 14.774C107.712 14.6127 108.357 14.51 108.958 14.466C109.574 14.422 110.256 14.4 111.004 14.4V14.136C111.004 13.52 110.777 13.0433 110.322 12.706C109.868 12.3687 109.288 12.2 108.584 12.2C107.47 12.2 106.509 12.6033 105.702 13.41L104.338 11.804C105.541 10.6893 107.03 10.132 108.804 10.132C109.714 10.132 110.484 10.264 111.114 10.528C111.76 10.7773 112.251 11.1293 112.588 11.584C112.926 12.024 113.16 12.4933 113.292 12.992C113.439 13.476 113.512 14.004 113.512 14.576V21H111.048ZM111.004 16.556V16.182H110.41C107.726 16.182 106.384 16.7687 106.384 17.942C106.384 18.4113 106.56 18.7487 106.912 18.954C107.279 19.1593 107.719 19.262 108.232 19.262C109.127 19.262 109.809 19.0273 110.278 18.558C110.762 18.074 111.004 17.4067 111.004 16.556ZM118.766 21L115.092 10.44H117.952L120.152 18.008H120.196L122.462 10.44H125.278L127.566 18.008H127.61L129.854 10.44H132.604L128.952 21H126.268L123.87 13.608H123.826L121.45 21H118.766ZM134.27 21V10.44H136.778V12.134H136.822C137.071 11.5767 137.489 11.1073 138.076 10.726C138.677 10.33 139.352 10.132 140.1 10.132C141.39 10.132 142.358 10.55 143.004 11.386C143.664 12.2073 143.994 13.212 143.994 14.4V21H141.354V15.148C141.354 13.2707 140.694 12.332 139.374 12.332C138.582 12.332 137.973 12.618 137.548 13.19C137.122 13.7473 136.91 14.4147 136.91 15.192V21H134.27Z" fill="#2E62C1"/>
<path d="M52.824 46L59.6 30.424H61.998L68.708 46H65.54L64.088 42.436H57.334L55.926 46H52.824ZM58.28 40.06H63.12L60.722 33.724L58.28 40.06ZM77.6192 36.738L75.9032 38.256C75.6539 37.9333 75.3239 37.662 74.9132 37.442C74.5025 37.222 74.0625 37.112 73.5932 37.112C73.1239 37.112 72.7205 37.2073 72.3832 37.398C72.0605 37.5887 71.8992 37.8747 71.8992 38.256C71.8992 38.6227 72.0679 38.894 72.4052 39.07C72.7425 39.246 73.3365 39.4367 74.1872 39.642C74.6419 39.7447 75.0452 39.8693 75.3972 40.016C75.7492 40.148 76.1012 40.3313 76.4532 40.566C76.8199 40.8007 77.0985 41.1087 77.2892 41.49C77.4945 41.8713 77.5972 42.304 77.5972 42.788C77.5972 43.9907 77.1792 44.878 76.3432 45.45C75.5219 46.022 74.4732 46.308 73.1972 46.308C72.3612 46.308 71.5545 46.154 70.7772 45.846C69.9999 45.538 69.3619 45.1127 68.8632 44.57L70.6012 42.942C71.2759 43.822 72.1779 44.262 73.3072 44.262C73.7619 44.262 74.1579 44.1593 74.4952 43.954C74.8325 43.7487 75.0012 43.4333 75.0012 43.008C75.0012 42.5973 74.8179 42.2967 74.4512 42.106C74.0992 41.9007 73.4759 41.6953 72.5812 41.49C71.6279 41.2553 70.8652 40.9253 70.2932 40.5C69.7359 40.06 69.4572 39.3927 69.4572 38.498C69.4572 37.398 69.8679 36.562 70.6892 35.99C71.5105 35.418 72.5005 35.132 73.6592 35.132C74.4512 35.132 75.2065 35.2713 75.9252 35.55C76.6439 35.8287 77.2085 36.2247 77.6192 36.738ZM79.8926 35.44H82.4226V36.914H82.4886C82.7966 36.43 83.2586 36.012 83.8746 35.66C84.5053 35.308 85.2606 35.132 86.1406 35.132C87.6366 35.132 88.8613 35.66 89.8146 36.716C90.7826 37.772 91.2666 39.092 91.2666 40.676C91.2666 42.26 90.7899 43.5947 89.8366 44.68C88.8979 45.7653 87.6439 46.308 86.0746 46.308C85.3413 46.308 84.6593 46.154 84.0286 45.846C83.3979 45.538 82.9139 45.12 82.5766 44.592H82.5326V51.28H79.8926V35.44ZM87.7686 43.074C88.3113 42.3847 88.5826 41.5853 88.5826 40.676C88.5826 39.7667 88.3113 38.9747 87.7686 38.3C87.2406 37.6253 86.4999 37.288 85.5466 37.288C84.6226 37.288 83.8746 37.64 83.3026 38.344C82.7306 39.048 82.4446 39.84 82.4446 40.72C82.4446 41.6 82.7306 42.3847 83.3026 43.074C83.8746 43.7633 84.6226 44.108 85.5466 44.108C86.4999 44.108 87.2406 43.7633 87.7686 43.074ZM93.8585 45.648C93.5065 45.3253 93.3305 44.9293 93.3305 44.46C93.3305 43.9907 93.4991 43.5873 93.8365 43.25C94.1885 42.9127 94.6065 42.744 95.0905 42.744C95.5745 42.744 95.9851 42.9053 96.3225 43.228C96.6745 43.5507 96.8505 43.9467 96.8505 44.416C96.8505 44.8853 96.6745 45.2887 96.3225 45.626C95.9851 45.9633 95.5745 46.132 95.0905 46.132C94.6211 46.132 94.2105 45.9707 93.8585 45.648ZM99.6613 46V30.424H103.335L110.573 42.084H110.617V30.424H113.389V46H109.869L102.477 33.966H102.433V46H99.6613ZM116.827 46V30.424H127.145V32.844H119.599V36.804H126.749V39.136H119.599V43.536H127.541V46H116.827ZM133.401 46V32.844H128.627V30.424H140.947V32.844H136.173V46H133.401Z" fill="#2E62C1"/>
<path d="M25.9053 30.9047C25.9053 29.2478 27.2484 27.9047 28.9053 27.9047H47.2878C47.6814 27.9047 48.0005 28.2238 48.0005 28.6174C48.0005 40.4266 38.4272 49.9999 26.618 49.9999C26.2244 49.9999 25.9053 49.6808 25.9053 49.2872V30.9047Z" fill="#E9AB4B"/>
<path d="M46 26C47.1046 26 48.0087 25.103 47.9167 24.0022C47.5791 19.9599 46.221 16.0572 43.9553 12.6663C41.3181 8.71954 37.5698 5.64339 33.1844 3.82689C28.799 2.01039 23.9734 1.53511 19.3178 2.46115C14.6623 3.3872 10.3859 5.67298 7.02945 9.02944C3.67299 12.3859 1.38721 16.6623 0.461164 21.3178C-0.464881 25.9734 0.0103988 30.799 1.8269 35.1844C3.64341 39.5698 6.71955 43.3181 10.6663 45.9553C14.0572 48.221 17.9599 49.5791 22.0022 49.9167C23.103 50.0087 24 49.1046 24 48V31C24 28.2386 26.2386 26 29 26H46Z" fill="#63D2DD"/>
</svg>
