<svg width="114" height="81" viewBox="0 0 114 81" fill="none" xmlns="http://www.w3.org/2000/svg">
<path fill-rule="evenodd" clip-rule="evenodd" d="M15.1274 61.4007C6.23948 57.9897 0 49.9795 0 40.6417C0 28.4388 10.6556 18.5032 23.9525 18.1364C26.4399 7.79932 37.6249 0 51.0468 0C63.0699 0 73.2981 6.25839 77.0874 14.9932C78.8406 14.6337 80.6643 14.444 82.5367 14.444C96.1861 14.444 107.251 24.5247 107.251 36.9598C107.251 37.7565 107.206 38.5435 107.117 39.3189C111.033 42.769 113.468 47.6061 113.468 52.9614C113.468 63.4413 104.143 71.9369 92.64 71.9369C89.9482 71.9369 87.3757 71.4717 85.014 70.6247C81.4137 76.3002 74.6803 80.1191 66.9679 80.1191C62.3343 80.1191 58.0542 78.7406 54.5945 76.4093C50.442 79.2899 45.2584 81.0001 39.6363 81.0001C27.0717 81.0001 16.6971 72.4581 15.1274 61.4007Z" fill="#2E62C1"/>
<path d="M21.16 42.408V42.168C21.16 40.8773 20.4933 40.232 19.16 40.232C18.264 40.232 17.5227 40.5253 16.936 41.112L16.328 40.392C17.0427 39.6773 18.024 39.32 19.272 39.32C20.1253 39.32 20.824 39.5547 21.368 40.024C21.912 40.4933 22.184 41.1653 22.184 42.04V45.32C22.184 45.992 22.2267 46.552 22.312 47H21.336C21.2613 46.5733 21.224 46.168 21.224 45.784H21.192C20.5413 46.7227 19.6347 47.192 18.472 47.192C17.8 47.192 17.1973 47.0053 16.664 46.632C16.1413 46.248 15.88 45.6773 15.88 44.92C15.88 44.5467 15.944 44.2213 16.072 43.944C16.2 43.656 16.392 43.4213 16.648 43.24C16.904 43.0587 17.1813 42.9147 17.48 42.808C17.7787 42.6907 18.1467 42.6053 18.584 42.552C19.0213 42.488 19.4267 42.4507 19.8 42.44C20.184 42.4187 20.6373 42.408 21.16 42.408ZM21.16 43.256H20.84C20.328 43.256 19.8693 43.2773 19.464 43.32C19.0693 43.352 18.6693 43.4213 18.264 43.528C17.8693 43.6347 17.56 43.8 17.336 44.024C17.112 44.248 17 44.5307 17 44.872C17 45.3627 17.1707 45.7253 17.512 45.96C17.8533 46.184 18.2693 46.296 18.76 46.296C19.496 46.296 20.0773 46.056 20.504 45.576C20.9413 45.096 21.16 44.5093 21.16 43.816V43.256ZM29.8029 40.664L28.9709 41.288C28.8109 40.968 28.5655 40.712 28.2349 40.52C27.9042 40.328 27.5362 40.232 27.1309 40.232C26.6935 40.232 26.3202 40.3333 26.0109 40.536C25.7015 40.728 25.5469 41.016 25.5469 41.4C25.5469 41.7413 25.6855 42.008 25.9629 42.2C26.2402 42.392 26.6989 42.552 27.3389 42.68C28.2242 42.8613 28.8749 43.128 29.2909 43.48C29.7175 43.832 29.9309 44.296 29.9309 44.872C29.9309 45.6613 29.6535 46.248 29.0989 46.632C28.5549 47.0053 27.8935 47.192 27.1149 47.192C25.8029 47.192 24.8162 46.7067 24.1549 45.736L25.0189 45.096C25.2215 45.4373 25.5095 45.72 25.8829 45.944C26.2669 46.1573 26.6722 46.264 27.0989 46.264C27.6109 46.264 28.0322 46.1627 28.3629 45.96C28.6935 45.7467 28.8589 45.4107 28.8589 44.952C28.8589 44.5787 28.6829 44.2907 28.3309 44.088C27.9895 43.8853 27.4295 43.6933 26.6509 43.512C26.3735 43.448 26.1335 43.3787 25.9309 43.304C25.7282 43.2293 25.5042 43.1173 25.2589 42.968C25.0242 42.8187 24.8375 42.6213 24.6989 42.376C24.5709 42.12 24.5069 41.8267 24.5069 41.496C24.5069 40.7813 24.7629 40.2427 25.2749 39.88C25.7975 39.5067 26.4322 39.32 27.1789 39.32C27.7122 39.32 28.2242 39.4427 28.7149 39.688C29.2055 39.9227 29.5682 40.248 29.8029 40.664ZM40.8163 42.408V42.168C40.8163 40.8773 40.1496 40.232 38.8163 40.232C37.9203 40.232 37.1789 40.5253 36.5923 41.112L35.9843 40.392C36.6989 39.6773 37.6803 39.32 38.9283 39.32C39.7816 39.32 40.4803 39.5547 41.0243 40.024C41.5683 40.4933 41.8403 41.1653 41.8403 42.04V45.32C41.8403 45.992 41.8829 46.552 41.9683 47H40.9923C40.9176 46.5733 40.8803 46.168 40.8803 45.784H40.8483C40.1976 46.7227 39.2909 47.192 38.1283 47.192C37.4563 47.192 36.8536 47.0053 36.3203 46.632C35.7976 46.248 35.5363 45.6773 35.5363 44.92C35.5363 44.5467 35.6003 44.2213 35.7283 43.944C35.8563 43.656 36.0483 43.4213 36.3043 43.24C36.5603 43.0587 36.8376 42.9147 37.1363 42.808C37.4349 42.6907 37.8029 42.6053 38.2403 42.552C38.6776 42.488 39.0829 42.4507 39.4563 42.44C39.8403 42.4187 40.2936 42.408 40.8163 42.408ZM40.8163 43.256H40.4963C39.9843 43.256 39.5256 43.2773 39.1203 43.32C38.7256 43.352 38.3256 43.4213 37.9203 43.528C37.5256 43.6347 37.2163 43.8 36.9923 44.024C36.7683 44.248 36.6562 44.5307 36.6562 44.872C36.6562 45.3627 36.8269 45.7253 37.1683 45.96C37.5096 46.184 37.9256 46.296 38.4163 46.296C39.1523 46.296 39.7336 46.056 40.1603 45.576C40.5976 45.096 40.8163 44.5093 40.8163 43.816V43.256ZM53.4591 40.664L52.6271 41.288C52.4671 40.968 52.2218 40.712 51.8911 40.52C51.5605 40.328 51.1925 40.232 50.7871 40.232C50.3498 40.232 49.9765 40.3333 49.6671 40.536C49.3578 40.728 49.2031 41.016 49.2031 41.4C49.2031 41.7413 49.3418 42.008 49.6191 42.2C49.8965 42.392 50.3551 42.552 50.9951 42.68C51.8805 42.8613 52.5311 43.128 52.9471 43.48C53.3738 43.832 53.5871 44.296 53.5871 44.872C53.5871 45.6613 53.3098 46.248 52.7551 46.632C52.2111 47.0053 51.5498 47.192 50.7711 47.192C49.4591 47.192 48.4725 46.7067 47.8111 45.736L48.6751 45.096C48.8778 45.4373 49.1658 45.72 49.5391 45.944C49.9231 46.1573 50.3285 46.264 50.7551 46.264C51.2671 46.264 51.6885 46.1627 52.0191 45.96C52.3498 45.7467 52.5151 45.4107 52.5151 44.952C52.5151 44.5787 52.3391 44.2907 51.9871 44.088C51.6458 43.8853 51.0858 43.6933 50.3071 43.512C50.0298 43.448 49.7898 43.3787 49.5871 43.304C49.3845 43.2293 49.1605 43.1173 48.9151 42.968C48.6805 42.8187 48.4938 42.6213 48.3551 42.376C48.2271 42.12 48.1631 41.8267 48.1631 41.496C48.1631 40.7813 48.4191 40.2427 48.9311 39.88C49.4538 39.5067 50.0885 39.32 50.8351 39.32C51.3685 39.32 51.8805 39.4427 52.3711 39.688C52.8618 39.9227 53.2245 40.248 53.4591 40.664ZM56.3605 42.68H61.4645C61.4325 41.9547 61.1978 41.368 60.7605 40.92C60.3338 40.4613 59.7418 40.232 58.9845 40.232C58.2805 40.232 57.6778 40.4773 57.1765 40.968C56.6858 41.448 56.4138 42.0187 56.3605 42.68ZM62.5685 43.032C62.5685 43.2453 62.5632 43.416 62.5525 43.544H56.3445C56.3658 44.3013 56.6378 44.9467 57.1605 45.48C57.6832 46.0027 58.3232 46.264 59.0805 46.264C59.6032 46.264 60.0778 46.1413 60.5045 45.896C60.9312 45.64 61.2565 45.3307 61.4805 44.968L62.2965 45.608C61.4645 46.664 60.3925 47.192 59.0805 47.192C57.9712 47.192 57.0485 46.8187 56.3125 46.072C55.5765 45.3253 55.2085 44.3867 55.2085 43.256C55.2085 42.136 55.5712 41.2027 56.2965 40.456C57.0218 39.6987 57.9178 39.32 58.9845 39.32C60.1152 39.32 60.9952 39.672 61.6245 40.376C62.2538 41.0693 62.5685 41.9547 62.5685 43.032ZM64.9088 41.16C64.9088 40.52 64.8874 39.9707 64.8448 39.512H65.8848C65.9274 40.0453 65.9488 40.472 65.9488 40.792H65.9808C66.1941 40.3547 66.5141 40.0027 66.9408 39.736C67.3781 39.4587 67.8581 39.32 68.3808 39.32C68.6688 39.32 68.9088 39.3467 69.1008 39.4L68.9568 40.424C68.7861 40.36 68.5301 40.328 68.1888 40.328C67.5594 40.328 67.0368 40.568 66.6208 41.048C66.2048 41.5173 65.9968 42.2213 65.9968 43.16V47H64.9088V41.16ZM76.7864 39.512L73.7464 47H72.5464L69.4904 39.512H70.7064L73.1384 45.848H73.1704L75.6184 39.512H76.7864ZM79.5909 39.512V47H78.5029V39.512H79.5909ZM79.5749 36.088C79.7349 36.2373 79.8149 36.4187 79.8149 36.632C79.8149 36.8453 79.7349 37.0267 79.5749 37.176C79.4255 37.3253 79.2495 37.4 79.0469 37.4C78.8442 37.4 78.6629 37.3253 78.5029 37.176C78.3535 37.0267 78.2789 36.8453 78.2789 36.632C78.2789 36.4187 78.3535 36.2373 78.5029 36.088C78.6629 35.9387 78.8442 35.864 79.0469 35.864C79.2495 35.864 79.4255 35.9387 79.5749 36.088ZM88.7269 40.616L87.8789 41.224C87.6975 40.936 87.4309 40.7013 87.0789 40.52C86.7375 40.328 86.3642 40.232 85.9589 40.232C85.1055 40.232 84.4122 40.52 83.8789 41.096C83.3562 41.6613 83.0949 42.3813 83.0949 43.256C83.0949 44.12 83.3562 44.84 83.8789 45.416C84.4015 45.9813 85.0895 46.264 85.9429 46.264C86.8069 46.264 87.4842 45.9387 87.9749 45.288L88.7909 45.896C88.0869 46.76 87.1375 47.192 85.9429 47.192C84.7482 47.192 83.7829 46.824 83.0469 46.088C82.3109 45.3413 81.9429 44.3973 81.9429 43.256C81.9429 42.1147 82.3109 41.176 83.0469 40.44C83.7829 39.6933 84.7482 39.32 85.9429 39.32C86.4762 39.32 86.9935 39.432 87.4949 39.656C88.0069 39.88 88.4175 40.2 88.7269 40.616ZM91.0949 42.68H96.1989C96.1669 41.9547 95.9322 41.368 95.4949 40.92C95.0682 40.4613 94.4762 40.232 93.7189 40.232C93.0149 40.232 92.4122 40.4773 91.9109 40.968C91.4202 41.448 91.1482 42.0187 91.0949 42.68ZM97.3029 43.032C97.3029 43.2453 97.2975 43.416 97.2869 43.544H91.0789C91.1002 44.3013 91.3722 44.9467 91.8949 45.48C92.4175 46.0027 93.0575 46.264 93.8149 46.264C94.3375 46.264 94.8122 46.1413 95.2389 45.896C95.6655 45.64 95.9909 45.3307 96.2149 44.968L97.0309 45.608C96.1989 46.664 95.1269 47.192 93.8149 47.192C92.7055 47.192 91.7829 46.8187 91.0469 46.072C90.3109 45.3253 89.9429 44.3867 89.9429 43.256C89.9429 42.136 90.3055 41.2027 91.0309 40.456C91.7562 39.6987 92.6522 39.32 93.7189 39.32C94.8495 39.32 95.7295 39.672 96.3589 40.376C96.9882 41.0693 97.3029 41.9547 97.3029 43.032Z" fill="white"/>
</svg>
