<svg width="87" height="20" viewBox="0 0 87 20" fill="none" xmlns="http://www.w3.org/2000/svg">
<path d="M13.0885 18.112L0.896484 12.976V10.504L13.0885 5.36796V8.63196L5.74448 11.776L13.0885 14.824V18.112Z" fill="#2E62C1"/>
<path d="M27.0329 8.27196L24.7529 10.912C24.5449 10.624 24.2409 10.392 23.8409 10.216C23.4569 10.04 23.0649 9.95196 22.6649 9.95196C21.8489 9.95196 21.1849 10.256 20.6729 10.864C20.1609 11.456 19.9049 12.176 19.9049 13.024C19.9049 13.872 20.1609 14.592 20.6729 15.184C21.1849 15.776 21.8649 16.072 22.7129 16.072C23.6409 16.072 24.3529 15.776 24.8489 15.184L27.0329 17.848C25.9769 18.872 24.5049 19.384 22.6169 19.384C20.6809 19.384 19.0809 18.808 17.8169 17.656C16.5529 16.504 15.9209 14.96 15.9209 13.024C15.9209 11.12 16.5529 9.58396 17.8169 8.41596C19.0969 7.24796 20.6889 6.66396 22.5929 6.66396C23.4409 6.66396 24.2729 6.81596 25.0889 7.11996C25.9209 7.40796 26.5689 7.79196 27.0329 8.27196Z" fill="#2E62C1"/>
<path d="M39.3432 8.39196C40.6232 9.54396 41.2632 11.072 41.2632 12.976C41.2632 14.88 40.6232 16.424 39.3432 17.608C38.0632 18.792 36.4872 19.384 34.6152 19.384C32.7592 19.384 31.1912 18.792 29.9112 17.608C28.6312 16.424 27.9912 14.88 27.9912 12.976C27.9912 11.072 28.6312 9.54396 29.9112 8.39196C31.1912 7.23996 32.7592 6.66396 34.6152 6.66396C36.4872 6.66396 38.0632 7.23996 39.3432 8.39196ZM37.4712 12.976C37.4712 12.16 37.2152 11.448 36.7032 10.84C36.1912 10.232 35.4952 9.92796 34.6152 9.92796C33.7352 9.92796 33.0472 10.232 32.5512 10.84C32.0552 11.432 31.8072 12.144 31.8072 12.976C31.8072 13.808 32.0552 14.536 32.5512 15.16C33.0632 15.768 33.7592 16.072 34.6392 16.072C35.5192 16.072 36.2072 15.768 36.7032 15.16C37.2152 14.536 37.4712 13.808 37.4712 12.976Z" fill="#2E62C1"/>
<path d="M56.4272 19H52.8032V17.44H52.7552C52.3712 18.032 51.8192 18.496 51.0992 18.832C50.3952 19.168 49.6432 19.336 48.8432 19.336C47.1152 19.336 45.7312 18.72 44.6912 17.488C43.6672 16.24 43.1552 14.736 43.1552 12.976C43.1552 11.248 43.6752 9.77596 44.7152 8.55996C45.7552 7.32796 47.1152 6.71196 48.7952 6.71196C50.3152 6.71196 51.5312 7.24796 52.4432 8.31996H52.4912V0.855957H56.4272V19ZM52.6592 13C52.6592 12.2 52.3872 11.488 51.8432 10.864C51.3152 10.24 50.6272 9.92796 49.7792 9.92796C48.8992 9.92796 48.2032 10.232 47.6912 10.84C47.1952 11.432 46.9472 12.144 46.9472 12.976C46.9472 13.824 47.1952 14.552 47.6912 15.16C48.2032 15.768 48.8992 16.072 49.7792 16.072C50.6272 16.072 51.3152 15.768 51.8432 15.16C52.3872 14.536 52.6592 13.816 52.6592 13Z" fill="#2E62C1"/>
<path d="M62.7201 11.656H67.7841C67.7841 11 67.5761 10.456 67.1601 10.024C66.7601 9.59196 66.1841 9.37596 65.4321 9.37596C64.6961 9.37596 64.0721 9.59996 63.5601 10.048C63.0481 10.496 62.7681 11.032 62.7201 11.656ZM71.4081 13.168C71.4081 13.6 71.4001 13.912 71.3841 14.104H62.7201C62.7841 14.744 63.0961 15.28 63.6561 15.712C64.2161 16.144 64.8561 16.36 65.5761 16.36C66.7281 16.36 67.6081 15.944 68.2161 15.112L70.9521 16.84C69.7841 18.536 67.9761 19.384 65.5281 19.384C63.6561 19.384 62.0881 18.824 60.8241 17.704C59.5761 16.568 58.9521 15.024 58.9521 13.072C58.9521 11.152 59.5601 9.60796 60.7761 8.43996C62.0081 7.25596 63.5521 6.66396 65.4081 6.66396C67.2001 6.66396 68.6481 7.24796 69.7521 8.41596C70.8561 9.56796 71.4081 11.152 71.4081 13.168Z" fill="#2E62C1"/>
<path d="M86.401 12.976L74.209 18.112V14.824L81.553 11.776L74.209 8.63196V5.36796L86.401 10.504V12.976Z" fill="#2E62C1"/>
</svg>
