<svg width="117" height="109" viewBox="0 0 117 109" fill="none" xmlns="http://www.w3.org/2000/svg">
<path d="M28.6445 5.82612C12.8246 28.0235 17.9945 58.8427 40.1919 74.6626V74.6626C40.9319 75.1899 41.9592 75.0176 42.4865 74.2777V74.2777C58.3064 52.0803 53.1365 21.2611 30.9391 5.44121V5.44121C30.1991 4.91388 29.1718 5.08621 28.6445 5.82612V5.82612Z" fill="#63D2DD"/>
<path d="M46.9448 79.4741C69.1422 95.2941 99.9613 90.1241 115.781 67.9267V67.9267C116.309 67.1868 116.136 66.1595 115.396 65.6322V65.6322C93.1989 49.8122 62.3798 54.9822 46.5599 77.1796V77.1796C46.0325 77.9195 46.2049 78.9468 46.9448 79.4741V79.4741Z" fill="#293256"/>
<path d="M97.541 0.243312C71.4531 4.27561 53.5735 28.6929 57.6058 54.7808V54.7808C57.7402 55.6504 58.5541 56.2464 59.4237 56.1119V56.1119C85.5116 52.0796 103.391 27.6624 99.3589 1.57449V1.57449C99.2245 0.70489 98.4106 0.108902 97.541 0.243312V0.243312Z" fill="#E9AB4B"/>
</svg>
