<svg width="395" height="377" viewBox="0 0 395 377" fill="none" xmlns="http://www.w3.org/2000/svg">
<path d="M156.046 260.355C103.664 221.749 92.6232 147.819 131.384 95.2268C170.145 42.6345 244.03 31.2958 296.412 69.9011C348.793 108.506 359.834 182.437 321.073 235.029C282.312 287.621 208.427 298.96 156.046 260.355ZM291.245 76.9107C242.72 41.1472 174.273 51.6512 138.366 100.372C102.458 149.093 112.686 217.581 161.212 253.345C209.737 289.109 278.184 278.605 314.091 229.884C349.999 181.163 339.771 112.674 291.245 76.9107Z" fill="#63D2DD"/>
<path d="M73.046 311.314C32.7041 281.582 24.1034 224.776 53.8357 184.434C83.5681 144.092 140.374 135.491 180.716 165.223C221.058 194.956 229.659 251.762 199.927 292.104C170.194 332.446 113.388 341.047 73.046 311.314ZM176.753 170.6C139.381 143.057 86.7563 151.024 59.2126 188.397C31.6689 225.769 39.6365 278.394 77.0088 305.937C114.381 333.481 167.006 325.514 194.55 288.141C222.093 250.769 214.126 198.144 176.753 170.6Z" fill="#E9AB4B"/>
<path d="M193.2 317.246C148.422 284.244 139.128 220.85 172.441 175.65C205.754 130.45 269.058 120.561 313.836 153.563C358.613 186.564 367.907 249.959 334.594 295.158C301.282 340.358 237.977 350.247 193.2 317.246ZM307.834 161.706C267.512 131.988 210.506 140.893 180.508 181.596C150.51 222.298 158.879 279.385 199.201 309.102C239.523 338.82 296.529 329.915 326.527 289.213C356.525 248.51 348.156 191.424 307.834 161.706Z" fill="#293256"/>
</svg>
