<svg width="840" height="704" viewBox="0 0 840 704" fill="none" xmlns="http://www.w3.org/2000/svg">
<path d="M63 546C28.2061 546 0 517.794 0 483V282.065C0 279.82 1.81975 278 4.06452 278C71.4076 278 126 332.592 126 399.935V483C126 517.794 97.7939 546 63 546Z" fill="#2E62C1"/>
<path d="M141 423C141 420.239 143.239 418 146 418H264.871C267.151 418 269 419.849 269 422.129C269 490.541 213.541 546 145.129 546C142.849 546 141 544.151 141 541.871V423Z" fill="#63D2DD"/>
<path d="M269 342C269 377.346 240.346 406 205 406C169.654 406 141 377.346 141 342C141 306.654 169.654 278 205 278H264.871C267.151 278 269 279.849 269 282.129V342Z" fill="#E9AB4B"/>
<path d="M545 413C545 486.454 485.454 546 412 546C338.546 546 279 486.454 279 413C279 339.546 338.546 280 412 280C485.454 280 545 339.546 545 413Z" fill="#63D2DD"/>
<path d="M560 280H826V546H560V280Z" fill="#293256"/>
<path d="M826 413C826 486.454 766.454 546 693 546C619.546 546 560 486.454 560 413C560 339.546 619.546 280 693 280C766.454 280 826 339.546 826 413Z" fill="#63D2DD"/>
<path d="M560 261.065C560 195.859 612.859 143 678.065 143H813.065C815.238 143 817 144.762 817 146.935C817 212.141 764.141 265 698.935 265H563.935C561.762 265 560 263.238 560 261.065Z" fill="#2E62C1"/>
<path d="M339 124.065C339 58.8593 391.859 6 457.065 6H592.065C594.238 6 596 7.76198 596 9.93548C596 75.1407 543.141 128 477.935 128H342.935C340.762 128 339 126.238 339 124.065Z" fill="#293256"/>
<path d="M840 679.065C840 613.859 787.141 561 721.935 561H644C610.311 561 583 588.311 583 622C583 655.689 610.311 683 644 683H836.065C838.238 683 840 681.238 840 679.065Z" fill="#63D2DD"/>
<path d="M423 146.935C423 212.141 475.859 265 541.065 265C543.238 265 545 263.238 545 261.065C545 195.859 492.141 143 426.935 143C424.762 143 423 144.762 423 146.935Z" fill="#E9AB4B"/>
<path d="M0 244.065C0 178.859 52.8593 126 118.065 126H252C254.761 126 257 128.239 257 131V243C257 245.761 254.761 248 252 248H3.93548C1.76197 248 0 246.238 0 244.065Z" fill="#63D2DD"/>
<path d="M530 581C530 578.239 527.761 576 525 576H406.129C403.849 576 402 577.849 402 580.129C402 648.541 457.459 704 525.871 704C528.151 704 530 702.151 530 699.871V581Z" fill="#E9AB4B"/>
<path d="M122 639C122 604.206 150.206 576 185 576H324C358.794 576 387 604.206 387 639C387 673.794 358.794 702 324 702H185C150.206 702 122 673.794 122 639Z" fill="#2E62C1"/>
<path d="M611 64C611 28.6538 639.654 0 675 0C710.346 0 739 28.6538 739 64C739 99.3462 710.346 128 675 128H615.129C612.849 128 611 126.151 611 123.871V64Z" fill="#E9AB4B"/>
<path d="M284 260C284 262.761 286.239 265 289 265H407.871C410.151 265 412 263.151 412 260.871C412 192.459 356.541 137 288.129 137C285.849 137 284 138.849 284 141.129V260Z" fill="#2E62C1"/>
</svg>
