<svg width="92" height="92" viewBox="0 0 92 92" fill="none" xmlns="http://www.w3.org/2000/svg">
<path d="M59.0547 62.473C59.0547 78.7803 45.835 92 29.5277 92V92C13.2203 92 0.00063324 78.7803 0.00063324 62.473V62.473C0.00063324 46.1656 13.2203 32.9459 29.5277 32.9459H57.1497C58.2018 32.9459 59.0547 33.7988 59.0547 34.8509V62.473Z" fill="#63D2DD"/>
<path d="M58.5273 14.7635C58.5273 6.60985 51.9175 0 43.7638 0V0C35.6102 0 29.0003 6.60985 29.0003 14.7635V14.7635C29.0003 22.9172 35.6102 29.527 43.7638 29.527H57.5749C58.1009 29.527 58.5273 29.1006 58.5273 28.5745V14.7635Z" fill="#2E62C1"/>
<path d="M62.0547 47.7633C62.0547 55.917 68.6645 62.5269 76.8182 62.5269V62.5269C84.9719 62.5269 91.5817 55.917 91.5817 47.7633V47.7633C91.5817 39.6097 84.9719 32.9998 76.8182 32.9998H63.0072C62.4811 32.9998 62.0547 33.4263 62.0547 33.9523V47.7633Z" fill="#E9AB4B"/>
</svg>
