<svg width="113" height="108" viewBox="0 0 113 108" fill="none" xmlns="http://www.w3.org/2000/svg">
<path d="M44.6501 74.4978C29.6618 63.4513 26.5025 42.2969 37.5935 27.2481C48.6846 12.1994 69.8261 8.95493 84.8144 20.0014C99.8027 31.048 102.962 52.2023 91.871 67.2511C80.7799 82.2998 59.6384 85.5443 44.6501 74.4978ZM83.3362 22.0072C69.4511 11.7738 49.8659 14.7794 39.5912 28.7204C29.3166 42.6614 32.2433 62.2587 46.1284 72.492C60.0134 82.7254 79.5987 79.7198 89.8733 65.7788C100.148 51.8378 97.2212 32.2406 83.3362 22.0072Z" fill="#63D2DD"/>
<path d="M20.9014 89.0794C9.35798 80.5718 6.89696 64.3173 15.4046 52.7739C23.9122 41.2304 40.1667 38.7694 51.7101 47.277C63.2535 55.7846 65.7146 72.0392 57.207 83.5826C48.6994 95.126 32.4448 97.587 20.9014 89.0794ZM50.5762 48.8156C39.8825 40.9342 24.8245 43.2141 16.9431 53.9078C9.06174 64.6015 11.3416 79.6595 22.0353 87.5409C32.729 95.4222 47.7871 93.1424 55.6684 82.4487C63.5498 71.755 61.2699 56.6969 50.5762 48.8156Z" fill="#E9AB4B"/>
<path d="M55.2821 90.7767C42.4695 81.3337 39.8101 63.194 49.3422 50.2606C58.8743 37.3271 76.9882 34.4975 89.8008 43.9405C102.613 53.3835 105.273 71.5232 95.7407 84.4567C86.2086 97.3901 68.0947 100.22 55.2821 90.7767ZM88.0834 46.2707C76.5457 37.7673 60.2342 40.3153 51.6505 51.9619C43.0669 63.6084 45.4617 79.9432 56.9994 88.4466C68.5371 96.95 84.8487 94.4019 93.4323 82.7554C102.016 71.1088 99.6211 54.7741 88.0834 46.2707Z" fill="#293256"/>
</svg>
