<svg width="261" height="307" viewBox="0 0 261 307" fill="none" xmlns="http://www.w3.org/2000/svg">
<path d="M261 183C261 251.483 205.259 307 136.5 307C67.7405 307 12 251.483 12 183C12 114.517 67.7405 59 136.5 59C205.259 59 261 114.517 261 183ZM21.1644 183C21.1644 246.442 72.8019 297.872 136.5 297.872C200.198 297.872 251.836 246.442 251.836 183C251.836 119.558 200.198 68.1276 136.5 68.1276C72.8019 68.1276 21.1644 119.558 21.1644 183Z" fill="#63D2DD"/>
<path d="M191 95.5C191 148.243 148.243 191 95.5 191C42.7568 191 0 148.243 0 95.5C0 42.7568 42.7568 0 95.5 0C148.243 0 191 42.7568 191 95.5ZM7.02973 95.5C7.02973 144.361 46.6392 183.97 95.5 183.97C144.361 183.97 183.97 144.361 183.97 95.5C183.97 46.6392 144.361 7.02973 95.5 7.02973C46.6392 7.02973 7.02973 46.6392 7.02973 95.5Z" fill="#E9AB4B"/>
</svg>
