<svg width="95" height="95" viewBox="0 0 95 95" fill="none" xmlns="http://www.w3.org/2000/svg">
<path d="M22.5 95C10.0736 95 0 84.9264 0 72.5L0 1.45161C0 0.649909 0.649909 0 1.45161 0V0C25.5027 0 45 19.4973 45 43.5484V72.5C45 84.9264 34.9264 95 22.5 95V95Z" fill="#2E62C1"/>
<path d="M49 54C49 51.2386 51.2386 49 54 49H93.5161C94.3356 49 95 49.6644 95 50.4839V50.4839C95 75.0694 75.0695 95 50.4839 95V95C49.6644 95 49 94.3356 49 93.5161V54Z" fill="#63D2DD"/>
<path d="M95 23C95 35.7025 84.7025 46 72 46V46C59.2975 46 49 35.7025 49 23V23C49 10.2975 59.2975 0 72 0H93.5161C94.3356 0 95 0.664352 95 1.48387V23Z" fill="#E9AB4B"/>
</svg>
