<svg width="94" height="87" viewBox="0 0 94 87" fill="none" xmlns="http://www.w3.org/2000/svg">
<path d="M23.0008 4.67863C10.2978 22.5025 14.4491 47.2494 32.273 59.9524V59.9524C32.8672 60.3759 33.6921 60.2375 34.1155 59.6433V59.6433C46.8185 41.8194 42.6671 17.0725 24.8432 4.36955V4.36955C24.2491 3.94612 23.4242 4.0845 23.0008 4.67863V4.67863Z" fill="#63D2DD"/>
<path d="M37.6957 63.8161C55.5196 76.5191 80.2665 72.3678 92.9695 54.5439V54.5439C93.3929 53.9497 93.2546 53.1248 92.6604 52.7014V52.7014C74.8365 39.9984 50.0896 44.1498 37.3866 61.9737V61.9737C36.9632 62.5678 37.1016 63.3927 37.6957 63.8161V63.8161Z" fill="#293256"/>
<path d="M78.324 0.195504C57.3761 3.43333 43.0193 23.0397 46.2571 43.9876V43.9876C46.3651 44.6859 47.0186 45.1644 47.7169 45.0565V45.0565C68.6647 41.8187 83.0216 22.2123 79.7838 1.2644V1.2644C79.6758 0.566139 79.0223 0.0875763 78.324 0.195504V0.195504Z" fill="#E9AB4B"/>
</svg>
