<svg width="72" height="69" viewBox="0 0 72 69" fill="none" xmlns="http://www.w3.org/2000/svg">
<path d="M7.5 69C3.35786 69 0 65.6421 0 61.5L0 46.5C0 42.3579 3.35786 39 7.5 39V39C11.6421 39 15 42.3579 15 46.5L15 61.5C15 65.6421 11.6421 69 7.5 69V69Z" fill="#E9AB4B"/>
<path d="M26.5 69C22.3579 69 19 65.6421 19 61.5L19 7.5C19 3.35786 22.3579 0 26.5 0V0C30.6421 0 34 3.35786 34 7.5V61.5C34 65.6421 30.6421 69 26.5 69V69Z" fill="#2E62C1"/>
<path d="M45.5 69C41.3579 69 38 65.6421 38 61.5V22.5C38 18.3579 41.3579 15 45.5 15V15C49.6421 15 53 18.3579 53 22.5V61.5C53 65.6421 49.6421 69 45.5 69V69Z" fill="#293256"/>
<path d="M64.5 69C60.3579 69 57 65.6421 57 61.5V39.5C57 35.3579 60.3579 32 64.5 32V32C68.6421 32 72 35.3579 72 39.5V61.5C72 65.6421 68.6421 69 64.5 69V69Z" fill="#63D2DD"/>
</svg>
