<svg width="75" height="75" viewBox="0 0 75 75" fill="none" xmlns="http://www.w3.org/2000/svg">
<g clip-path="url(#clip0_204_216)">
<path d="M37.2653 1.11542C36.5946 1.15482 35.9386 1.32857 35.3363 1.62636L9.21525 14.0857C7.85119 14.7349 6.85978 15.9701 6.51994 17.442L0.12619 45.4053C-0.178497 46.7178 0.0675966 48.0935 0.829315 49.2185C0.918378 49.3545 1.01213 49.4857 1.11057 49.6123L19.1574 72.0514C20.1113 73.2232 21.5434 73.8959 23.0528 73.8889H51.9981C53.5121 73.8912 54.9465 73.1857 55.8981 72.0303L73.9356 49.5865C74.8824 48.4146 75.2363 46.8678 74.8731 45.4006L68.4371 17.4139C68.0973 15.942 67.1012 14.7068 65.7418 14.0576L39.6629 1.6287C38.9114 1.25806 38.0791 1.08159 37.2418 1.11542H37.2653Z" fill="#326CE5"/>
<path d="M37.5048 10.6455C36.6048 10.7088 35.9228 11.4799 35.9697 12.3799V12.8205C36.0119 13.3197 36.0869 13.8143 36.1853 14.3041C36.3291 15.2421 36.3809 16.1919 36.34 17.14C36.2509 17.4518 36.0728 17.733 35.8291 17.9486L35.7939 18.6096C34.8447 18.6893 33.9025 18.8346 32.9744 19.0455C29.0697 19.9268 25.5142 21.9518 22.7697 24.8697L22.2072 24.4713C21.8978 24.565 21.565 24.5299 21.2814 24.3775C20.5207 23.8145 19.8166 23.1787 19.1791 22.4791C18.8588 22.0965 18.5169 21.7326 18.1548 21.3893L17.808 21.1127C17.4986 20.8643 17.1189 20.7213 16.7228 20.7025C16.4864 20.69 16.2505 20.7336 16.0342 20.8297C15.8178 20.9259 15.6274 21.0718 15.4783 21.2557C14.9486 21.9986 15.122 23.0275 15.8627 23.5596L16.1861 23.8174C16.6024 24.0944 17.0344 24.3471 17.4798 24.5744C18.3095 25.0361 19.0923 25.5775 19.8189 26.215C20.0048 26.4801 20.1127 26.7918 20.1306 27.115L20.6416 27.5838C17.883 31.7229 16.7509 36.7361 17.4587 41.6604L16.8025 41.8479C16.6314 42.1197 16.4041 42.3518 16.1322 42.5229C15.2166 42.7673 14.2793 42.922 13.3337 42.9846C12.8319 42.9948 12.3311 43.0339 11.8337 43.1018L11.4189 43.1955H11.372C11.0841 43.2355 10.813 43.3545 10.5888 43.5395C10.3645 43.7244 10.196 43.9679 10.102 44.2429C10.008 44.5179 9.99214 44.8137 10.0562 45.0972C10.1203 45.3807 10.2618 45.6408 10.465 45.8486C10.6701 46.0554 10.9286 46.2011 11.2117 46.2694C11.4948 46.3377 11.7913 46.3259 12.0681 46.2354H12.0986L12.5205 46.1885C12.9962 46.0479 13.465 45.8744 13.922 45.6775C14.8009 45.326 15.7127 45.0564 16.6455 44.8807C16.9689 44.8994 17.2783 45.0096 17.5408 45.1971L18.2439 45.0799C19.7673 49.8072 22.9689 53.8127 27.2439 56.3369L26.958 56.9346C27.0892 57.2088 27.1384 57.5135 27.0986 57.8158C26.7119 58.7111 26.2384 59.5689 25.6853 60.3752C25.3819 60.7752 25.1017 61.1922 24.8462 61.6244L24.647 62.0463C24.5025 62.297 24.43 62.5828 24.4377 62.8721C24.4454 63.1615 24.5328 63.443 24.6905 63.6858C24.8481 63.9285 25.0697 64.1229 25.3309 64.2476C25.5921 64.3723 25.8826 64.4224 26.1705 64.3924C26.459 64.3599 26.7329 64.2481 26.9617 64.0694C27.1905 63.8906 27.3652 63.652 27.4666 63.3799L27.6611 62.9814C27.8392 62.5127 27.9892 62.0346 28.1111 61.5518C28.5259 60.5275 28.7509 59.4283 29.3181 58.7486C29.5035 58.5744 29.7371 58.46 29.9884 58.4205L30.34 57.7807C34.9741 59.5619 40.1019 59.5744 44.7447 57.8158L45.0564 58.4135C45.3752 58.4604 45.6611 58.6361 45.8533 58.8939C46.2939 59.733 46.6502 60.6119 46.922 61.5189C47.046 62.0046 47.1978 62.4828 47.3767 62.951L47.5712 63.3494C47.6736 63.6205 47.8488 63.8579 48.0777 64.0355C48.3066 64.2131 48.5802 64.324 48.8681 64.3558C49.1561 64.3875 49.4473 64.339 49.7094 64.2156C49.9715 64.0922 50.1943 63.8987 50.3533 63.6564C50.5107 63.4128 50.5975 63.1303 50.6041 62.8403C50.6107 62.5502 50.5369 62.2641 50.3908 62.0135L50.1869 61.5916C49.9314 61.161 49.6512 60.7454 49.3478 60.3471C48.8087 59.5689 48.3447 58.7393 47.9416 57.8697C47.9039 57.7108 47.8987 57.5458 47.926 57.3848C47.9534 57.2237 48.0129 57.0698 48.1009 56.9322C48.0009 56.7278 47.914 56.5172 47.8408 56.3018C52.1064 53.7588 55.2939 49.7393 56.8009 45.0049L57.4666 45.1221C57.7056 44.9041 58.0197 44.7893 58.3408 44.7986C59.2712 44.9768 60.183 45.2674 61.0642 45.5955C61.5212 45.8064 61.99 45.9846 62.4658 46.1346C62.5783 46.165 62.7423 46.1908 62.8689 46.2213H62.8994C63.176 46.3106 63.472 46.3214 63.7544 46.2525C64.0368 46.1835 64.2945 46.0375 64.4989 45.8308C64.7032 45.624 64.8461 45.3646 64.9117 45.0814C64.9774 44.7982 64.9631 44.5023 64.8705 44.2268C64.7757 43.9515 64.6063 43.7079 64.3812 43.5233C64.156 43.3387 63.884 43.2204 63.5955 43.1814L63.1408 43.0736C62.6434 43.0058 62.1426 42.9666 61.6408 42.9564C60.6939 42.8955 59.7564 42.7408 58.8423 42.4947C58.5611 42.3377 58.3267 42.1033 58.1673 41.8197L57.5345 41.6322C58.2093 36.7103 57.0533 31.712 54.2861 27.5861L54.8392 27.0752C54.8158 26.7541 54.9212 26.4354 55.1298 26.1893C55.8494 25.5705 56.6298 25.0244 57.4502 24.558C57.8955 24.3307 58.3275 24.0779 58.7439 23.801L59.0861 23.5244C59.338 23.368 59.5406 23.1435 59.6702 22.8768C59.7999 22.6102 59.8514 22.3122 59.8188 22.0175C59.7862 21.7228 59.6708 21.4433 59.4859 21.2114C59.3011 20.9795 59.0544 20.8047 58.7744 20.7072C58.4946 20.6098 58.1929 20.5936 57.9043 20.6604C57.6156 20.7271 57.3517 20.8742 57.1431 21.0846L56.7962 21.3611C56.4343 21.7045 56.0923 22.0684 55.772 22.451C55.1533 23.1588 54.4689 23.8033 53.7259 24.3799C53.4261 24.502 53.0981 24.5377 52.7791 24.483L52.1861 24.9049C48.7642 21.3189 44.1541 19.0924 39.2134 18.6471C39.2134 18.4127 39.183 18.0611 39.1783 17.951C38.9134 17.7682 38.7283 17.4893 38.6673 17.1729C38.6348 16.2263 38.6945 15.2789 38.8455 14.3439C38.9462 13.8518 39.0166 13.3596 39.0611 12.8604V12.3916C39.108 11.4916 38.4283 10.7205 37.5259 10.6572L37.5048 10.6455ZM35.5502 22.7533L35.0814 30.94H35.0462C35.0228 31.4463 34.7252 31.8775 34.2681 32.1213C33.8111 32.365 33.2697 32.2924 32.8619 31.9947L26.147 27.2369C28.2843 25.1377 30.9655 23.6773 33.8884 23.0205C34.4369 22.9033 34.99 22.8143 35.5455 22.7533H35.5502ZM39.4595 22.7533C42.9869 23.1916 46.2705 24.776 48.8111 27.2627L42.1595 31.99C41.7494 32.3182 41.1869 32.3838 40.7111 32.1588C40.2353 31.9338 39.9306 31.4557 39.9236 30.9307L39.4595 22.7533ZM23.7095 30.3166L29.8502 35.7963V35.8314C30.2322 36.1643 30.3986 36.6822 30.2861 37.1768C30.1736 37.6713 29.7939 38.0627 29.3087 38.1963V38.2197L21.4291 40.4861C21.0391 36.9361 21.8423 33.3572 23.7119 30.3143L23.7095 30.3166ZM51.2556 30.3166C53.1212 33.3518 53.9462 36.9119 53.6041 40.458L45.7127 38.1846V38.1541C45.2205 38.0205 44.8455 37.6291 44.7353 37.1346C44.6252 36.64 44.7892 36.1268 45.1712 35.7893L51.265 30.3354L51.2556 30.3166ZM36.2462 36.2229H38.7587L40.2939 38.1729L39.7361 40.6104L37.4791 41.6955L35.2173 40.6104L34.6853 38.1729L36.2462 36.2229ZM44.2947 42.8744C44.4002 42.8627 44.5291 42.8627 44.6111 42.8744L52.7369 44.2455C51.565 47.6205 49.2517 50.5033 46.233 52.4322L43.0923 44.8291C43.006 44.6251 42.9699 44.4034 42.9871 44.1825C43.0043 43.9617 43.0744 43.7483 43.1913 43.5601C43.3082 43.372 43.4686 43.2147 43.659 43.1015C43.8494 42.9883 44.0642 42.9225 44.2853 42.9096L44.2947 42.8744ZM30.647 42.9096C31.1064 42.9166 31.5306 43.1533 31.7814 43.5377C32.0322 43.9221 32.072 44.4049 31.8916 44.8268V44.8572L28.7697 52.3994C25.7814 50.4846 23.5127 47.6369 22.3056 44.2971L30.3611 42.9307C30.4502 42.9213 30.5416 42.9213 30.633 42.9307L30.647 42.9096ZM37.4533 46.1908C37.7093 46.1827 37.9626 46.246 38.1849 46.3734C38.4071 46.5009 38.5895 46.6876 38.7119 46.9127H38.7423L42.7127 54.0775L41.1259 54.5463C38.2056 55.2143 35.1564 55.0572 32.3181 54.0916L36.3025 46.9268C36.5439 46.5049 36.9892 46.2471 37.4744 46.2354L37.4533 46.1908Z" fill="white" stroke="white" stroke-width="0.11"/>
</g>
<defs>
<clipPath id="clip0_204_216">
<rect width="75" height="75" fill="white"/>
</clipPath>
</defs>
</svg>
