<svg width="15" height="15" viewBox="0 0 15 15" fill="none" xmlns="http://www.w3.org/2000/svg">
<path d="M14.5791 14.4626V8.30259C14.3648 3.37456 9.22251 4.01735 8.15119 6.15996V4.82081H5.20508V14.4626H8.15119V9.64171C8.15119 7.71335 8.95467 7.23126 9.75816 7.23126C11.633 7.23126 11.633 8.83823 11.633 9.64171V14.4626H14.5791Z" fill="#2E62C1"/>
<path d="M3.3311 4.82101H0.384991V14.4628H3.3311V4.82101Z" fill="#2E62C1"/>
<path d="M3.59895 1.74088C3.59895 2.70235 2.81953 3.48177 1.85807 3.48177C0.896607 3.48177 0.117188 2.70235 0.117188 1.74088C0.117188 0.77942 0.896607 0 1.85807 0C2.81953 0 3.59895 0.77942 3.59895 1.74088Z" fill="#2E62C1"/>
</svg>
