<svg width="27" height="26" viewBox="0 0 27 26" fill="none" xmlns="http://www.w3.org/2000/svg">
<path d="M26.318 26.0003V14.9261C25.9328 6.06672 16.6882 7.22231 14.7623 11.0742V8.66671H9.46588V26.0003H14.7623V17.3335C14.7623 13.8668 16.2067 13.0001 17.6512 13.0001C21.0216 13.0001 21.0216 15.889 21.0216 17.3335V26.0003H26.318Z" fill="#63D2DD"/>
<path d="M6.096 8.66683H0.799626V26.0004H6.096V8.66683Z" fill="#63D2DD"/>
<path d="M6.57771 3.12968C6.57771 4.85815 5.17651 6.25935 3.44804 6.25935C1.71956 6.25935 0.318359 4.85815 0.318359 3.12968C0.318359 1.4012 1.71956 0 3.44804 0C5.17651 0 6.57771 1.4012 6.57771 3.12968Z" fill="#63D2DD"/>
</svg>
