<svg width="72" height="77" viewBox="0 0 72 77" fill="none" xmlns="http://www.w3.org/2000/svg">
<g clip-path="url(#clip0_125_6)">
<path d="M62.597 11.3493L44.1697 1.92702C38.889 -0.772182 32.6639 -0.628157 27.5162 2.31109L8.69208 13.067C3.33067 16.1307 0 21.8403 0 27.9713V48.8624C0 55.1196 3.43481 60.8896 8.96318 63.9178L28.2955 74.5083C30.9008 75.9344 33.8023 76.6476 36.7039 76.6476C39.7418 76.6476 42.7798 75.867 45.4714 74.3093L62.3581 64.5384C62.5447 64.4391 62.7263 64.334 62.8986 64.2254L63.3922 63.9412C68.7016 60.8648 72 55.1732 72 49.0831V26.6377C72 20.1724 68.3964 14.3153 62.597 11.3493ZM6.28427 27.9713C6.28427 24.0594 8.41017 20.4142 11.8324 18.4583L30.6584 7.70238C32.3784 6.71908 34.2853 6.22653 36.1974 6.22653C37.9372 6.22653 39.681 6.63552 41.2879 7.45701L48.4051 11.0968C48.1988 11.1946 47.9939 11.296 47.7894 11.4062C46.7208 11.9806 43.4712 13.7267 25.4245 31.3284C16.8275 39.7121 8.86625 47.8046 8.44789 48.2297C8.18755 48.4891 7.26462 49.4635 6.49615 50.9946C6.35792 50.2991 6.28427 49.5862 6.28427 48.8624V27.9713ZM35.7702 45.9126L28.8754 39.0844C28.5073 38.72 28.5073 38.1047 28.8754 37.7403L35.7702 30.9123C35.9534 30.7292 36.201 30.6385 36.4488 30.6385C36.6967 30.6385 36.9446 30.7292 37.1276 30.9123L44.0224 37.7403C44.3903 38.1047 44.3903 38.72 44.0224 39.0844L37.1276 45.9126C36.7594 46.277 36.1383 46.277 35.7702 45.9126ZM42.3005 68.9342C38.9427 70.8776 34.7414 70.9255 31.3388 69.0619L12.8936 58.9568C11.7857 57.458 11.4177 56.0532 11.7768 54.6753C12.0676 53.5569 12.7499 52.7798 12.8774 52.6428L12.9366 52.5825C15.9603 49.506 19.5118 45.9356 23.216 42.2655C27.7945 47.0239 38.0593 57.6198 42.1641 61.265C44.3438 63.1996 46.8502 64.3376 49.0893 65.0061L42.3005 68.9342ZM65.7156 49.0831C65.7156 52.97 63.6097 56.6046 60.2214 58.5658L59.6074 58.9213C59.6056 58.9231 59.6038 58.9249 59.602 58.9266L59.1944 59.1633C58.3956 59.5189 56.6701 59.9117 54.1383 59.6771C51.0462 59.389 48.2113 58.2812 46.3583 56.6347C45.0226 55.4489 42.9485 53.4341 40.6162 51.1099C40.9519 50.8754 41.2736 50.6121 41.5734 50.3154L48.4682 43.4873C51.2923 40.6901 51.2923 36.1382 48.4682 33.3412L41.5734 26.5132C41.2284 26.1718 40.857 25.8731 40.4654 25.6152C45.3439 21.0828 49.215 17.7239 50.7879 16.8775C55.3702 14.4131 61.2502 17.8377 61.3096 17.8733C64.0657 19.9253 65.7174 23.1436 65.7174 26.6394V49.0831H65.7156Z" fill="url(#paint0_linear_125_6)"/>
</g>
<defs>
<linearGradient id="paint0_linear_125_6" x1="36" y1="9.8201e-08" x2="36" y2="76.6476" gradientUnits="userSpaceOnUse">
<stop stop-color="#5200F1"/>
<stop offset="1" stop-color="#2D59FF"/>
</linearGradient>
<clipPath id="clip0_125_6">
<rect width="72" height="77" fill="white"/>
</clipPath>
</defs>
</svg>
