<svg width="16" height="13" viewBox="0 0 16 13" fill="none" xmlns="http://www.w3.org/2000/svg">
<path d="M14.3658 0.225586H1.38408C1.17099 0.225586 0.971498 0.277974 0.791016 0.364324L7.84416 7.41747L9.425 5.89821L14.959 0.364447C14.7785 0.278036 14.5789 0.225586 14.3658 0.225586Z" fill="#2E62C1"/>
<path d="M15.6118 1.01514L10.4043 6.22239L15.6116 11.4297C15.698 11.2493 15.7504 11.0498 15.7504 10.8367V1.60799C15.7504 1.39502 15.6981 1.19556 15.6118 1.01514Z" fill="#2E62C1"/>
<path d="M0.138738 1.01484C0.0523882 1.19532 0 1.39482 0 1.60791V10.8366C0 11.0496 0.0523266 11.2491 0.138615 11.4295L5.34614 6.22225L0.138738 1.01484Z" fill="#2E62C1"/>
<path d="M9.7517 6.87799L8.17064 8.39743C8.08051 8.48756 7.96244 8.53263 7.84441 8.53263C7.72637 8.53263 7.60827 8.48756 7.51817 8.39743L5.99864 6.87793L0.791016 12.0852C0.971529 12.1716 1.17115 12.2241 1.3843 12.2241H14.366C14.5791 12.2241 14.7786 12.1717 14.959 12.0853L9.7517 6.87799Z" fill="#2E62C1"/>
</svg>
