<svg width="29" height="22" viewBox="0 0 29 22" fill="none" xmlns="http://www.w3.org/2000/svg">
<path d="M25.8259 0H2.48806C2.10498 0 1.74634 0.0941811 1.42188 0.249417L14.1017 12.9292L16.9436 10.198L26.8925 0.249638C26.568 0.0942916 26.2091 0 25.8259 0Z" fill="#63D2DD"/>
<path d="M28.0669 1.42034L18.705 10.7817L28.0666 20.1432C28.2218 19.8188 28.316 19.4601 28.316 19.077V2.48614C28.316 2.10327 28.222 1.74469 28.0669 1.42034Z" fill="#63D2DD"/>
<path d="M0.249416 1.42034C0.094181 1.7448 0 2.10344 0 2.48652V19.0774C0 19.4603 0.0940703 19.819 0.249195 20.1433L9.61105 10.782L0.249416 1.42034Z" fill="#63D2DD"/>
<path d="M17.531 11.9601L14.6886 14.6917C14.5266 14.8537 14.3143 14.9347 14.1021 14.9347C13.8899 14.9347 13.6776 14.8537 13.5156 14.6917L10.7839 11.96L1.42188 21.3214C1.74639 21.4767 2.10525 21.571 2.48845 21.571H25.8263C26.2094 21.571 26.568 21.4768 26.8925 21.3216L17.531 11.9601Z" fill="#63D2DD"/>
</svg>
