<svg width="93" height="48" viewBox="0 0 93 48" fill="none" xmlns="http://www.w3.org/2000/svg">
<path d="M0 43.6023H3.06382V31.5869L7.80691 42.0653C8.36637 43.3284 9.13289 43.7823 10.6351 43.7823C12.1372 43.7823 12.8738 43.3334 13.4341 42.0653L18.1777 31.5869V43.6068H21.242V31.6068C21.242 30.4361 20.7697 29.8699 19.7979 29.5776C17.4706 28.8558 15.909 29.4802 15.2024 31.0411L10.5479 41.3823L6.03955 31.0366C5.36203 29.4757 3.77131 28.8513 1.44404 29.5731C0.471357 29.8659 0 30.4321 0 31.6023V43.6023ZM23.7886 33.8191H26.8515V40.4417C26.8229 40.8017 26.9677 41.6462 28.6461 41.6719C29.5025 41.6854 35.2551 41.6719 35.3087 41.6719V33.7862H38.3784C38.392 33.7862 38.3752 44.5384 38.3757 44.5844C38.3925 47.2361 35.0635 47.8122 33.5295 47.8569H23.8553V45.8087L33.5468 45.8083C35.5185 45.6008 35.286 44.6277 35.286 44.2997V43.5012H28.7741C25.7444 43.4742 23.8154 42.16 23.7913 40.6487C23.789 40.5134 23.8567 33.8841 23.7895 33.8187L23.7886 33.8191Z" fill="#00618A"/>
<path d="M40.7402 43.6024H49.5489C50.5797 43.6024 51.5819 43.3881 52.3779 43.0168C53.7039 42.4123 54.3519 41.5926 54.3519 40.5194V38.2953C54.3519 37.417 53.6154 36.5977 52.1722 36.0514C51.4062 35.7582 50.4635 35.6025 49.5503 35.6025H45.838C44.601 35.6025 44.0116 35.2317 43.8645 34.4125C43.8349 34.315 43.8349 34.232 43.8349 34.1391V32.7541C43.8349 32.6761 43.8349 32.5976 43.8645 32.5001C44.0116 31.8758 44.3358 31.6998 45.4257 31.5979C45.5142 31.5979 45.6318 31.578 45.7208 31.578H54.4704V29.5493H45.8679C44.6305 29.5493 43.9825 29.6274 43.3931 29.8029C41.5649 30.369 40.7693 31.2713 40.7693 32.8322V34.6078C40.7693 35.9738 42.3314 37.1445 44.9525 37.4174C45.2476 37.4368 45.5419 37.4562 45.8362 37.4562H49.0181C49.1361 37.4562 49.2542 37.4562 49.3423 37.4761C50.3141 37.5541 50.7273 37.7296 51.0215 38.0806C51.2032 38.261 51.2577 38.4325 51.2577 38.6219V40.3976C51.2577 40.6123 51.1105 40.8857 50.8158 41.1194C50.5506 41.354 50.1088 41.5096 49.5194 41.5489C49.4013 41.5489 49.3132 41.5683 49.1956 41.5683H40.7402V43.5974V43.6024ZM73.4646 40.071C73.4646 42.1588 75.0258 43.3295 78.1782 43.5636C78.4722 43.5862 78.767 43.5991 79.0619 43.6024H87.0459V41.5732H79.0028C77.2059 41.5732 76.528 41.1244 76.528 40.0511V29.5534H73.4642V40.0701L73.4646 40.071ZM56.3064 40.1765V32.9427C56.3064 31.1048 57.6051 29.9901 60.1735 29.6382C60.4474 29.5993 60.7237 29.5797 61.0004 29.5795H66.8161C67.1026 29.5797 67.3887 29.5993 67.6725 29.6382C70.2409 29.9901 71.5397 31.1044 71.5397 32.9427V40.1765C71.5397 41.6675 70.9879 42.4656 69.7165 42.9857L72.7344 45.6925H69.177L66.7353 43.5027L64.2772 43.6574H61.0004C60.4396 43.6574 59.8493 43.5789 59.1995 43.403C57.2468 42.8752 56.3068 41.8583 56.3068 40.1765H56.3064ZM59.6136 39.9961C59.6136 40.094 59.6431 40.1914 59.6726 40.3092C59.8543 41.1501 60.6467 41.6192 61.8523 41.6192H64.636L62.0794 39.3262H65.6368L67.8619 41.326C68.2729 41.1086 68.5431 40.7756 68.6339 40.3484C68.6634 40.251 68.6634 40.1531 68.6634 40.0552V33.1191C68.6634 33.041 68.6634 32.9386 68.6339 32.8453C68.4522 32.0635 67.6594 31.6137 66.4787 31.6137H61.8578C60.4955 31.6137 59.6145 32.2001 59.6145 33.1191V40.0015L59.6136 39.9961Z" fill="#E48E00"/>
<path d="M89.7409 26.1867C87.8578 26.1362 86.4187 26.3099 85.189 26.8251C84.8394 26.9717 84.2822 26.9753 84.225 27.4106C84.417 27.6105 84.4475 27.9091 84.5996 28.155C84.8934 28.6273 85.3897 29.2603 85.8316 29.5914C86.3147 29.9536 86.8124 30.3416 87.3315 30.6561C88.2533 31.2145 89.2823 31.5335 90.1696 32.0924C90.6927 32.4218 91.2122 32.8368 91.7226 33.2094C91.9747 33.3935 92.1449 33.6795 92.4719 33.7945V33.7413C92.2993 33.5234 92.2553 33.2239 92.0973 32.997L91.4011 32.3054C90.72 31.4031 89.8563 30.6195 88.9376 29.964C88.2052 29.4416 86.5654 28.7361 86.2598 27.8888L86.2062 27.8356C86.7257 27.777 87.3337 27.5906 87.8137 27.4634C88.6189 27.2491 89.3386 27.3042 90.1705 27.0912L91.2953 26.7718V26.5589C90.8748 26.1303 90.5751 25.5633 90.1169 25.1758C88.9181 24.1607 87.6089 23.1479 86.2616 22.3021C85.5142 21.8329 84.5905 21.5288 83.7981 21.1314C83.5315 20.9979 83.0634 20.9284 82.8876 20.7055C82.4717 20.1786 82.2451 19.51 81.924 18.901C81.252 17.6153 80.5917 16.2105 79.9959 14.8576C79.5895 13.935 79.3238 13.0251 78.818 12.1973C76.3863 8.22553 73.7684 5.82823 69.7141 3.47244C68.8514 2.97169 67.8128 2.7732 66.7148 2.5147L64.9474 2.40823C64.5878 2.25936 64.2136 1.82177 63.8758 1.60974C62.5325 0.766129 59.0873 -1.0668 58.0923 1.33906C57.4643 2.86072 59.031 4.34538 59.5918 5.11681C59.985 5.65816 60.4891 6.26402 60.7697 6.87259C60.9545 7.27229 60.9868 7.67335 61.1448 8.0965C61.534 9.1341 61.8727 10.2723 62.3763 11.2355C62.6306 11.7227 62.9112 12.2361 63.2332 12.6718C63.4307 12.9394 63.769 13.0571 63.8222 13.4703C63.4916 13.9305 63.4725 14.6433 63.2863 15.2261C62.4494 17.8481 62.765 21.1066 63.9825 23.0473C64.3562 23.6428 65.2358 24.9204 66.446 24.4305C67.504 24.0019 67.2634 22.6756 67.5708 21.5045C67.6389 21.2383 67.5971 21.0443 67.7315 20.8661V20.9194L68.6956 22.8344C69.4085 23.9758 70.6755 25.169 71.7481 25.9742C72.3043 26.3915 72.7471 27.1133 73.4618 27.3574V27.3042H73.4083C73.2689 27.0876 73.0509 26.9988 72.8724 26.826C72.4533 26.4177 71.9869 25.9102 71.6404 25.4428C70.6641 24.1264 69.8022 22.6864 69.0166 21.1864C68.6416 20.4705 68.3151 19.6806 67.9995 18.952C67.8778 18.6709 67.8791 18.2464 67.6248 18.1007C67.2783 18.6349 66.7679 19.0661 66.5 19.6968C66.0713 20.7046 66.0159 21.9335 65.8575 23.2084C65.7635 23.2418 65.8052 23.2188 65.7503 23.2616C65.0047 23.083 64.7422 22.3201 64.4652 21.6655C63.7641 20.0099 63.6342 17.3455 64.2508 15.4409C64.4098 14.9482 65.1318 13.3955 64.8398 12.9403C64.7004 12.486 64.2404 12.2185 63.9829 11.8756C63.6651 11.447 63.3463 10.8813 63.126 10.386C62.5521 9.09575 62.2841 7.64763 61.6802 6.34252C61.3914 5.71906 60.9037 5.08838 60.5022 4.53801C60.0581 3.92447 59.5609 3.47154 59.2171 2.7335C59.0945 2.46959 58.9283 2.04778 59.11 1.77575C59.1273 1.69759 59.1668 1.62599 59.2238 1.5694C59.2807 1.51281 59.3528 1.47358 59.4315 1.45635C59.7421 1.21861 60.6076 1.5353 60.9309 1.66929C61.7892 2.02387 62.5066 2.36132 63.2341 2.83996C63.5838 3.06553 63.9366 3.51485 64.3585 3.63846H64.8398C65.5936 3.81079 66.4383 3.6926 67.1421 3.90463C68.3873 4.28041 69.5025 4.86553 70.5161 5.50072C73.6031 7.43696 76.1265 10.1933 77.853 13.4857C78.1309 14.0149 78.2508 14.5206 78.4956 15.0818C78.9892 16.2096 79.6108 17.3794 80.1022 18.4864C80.5926 19.5917 81.0694 20.706 81.7624 21.6254C82.1266 22.1081 83.5334 22.3679 84.1723 22.6359C84.6205 22.824 85.3543 23.0203 85.7789 23.2742C86.5895 23.7601 87.3751 24.3389 88.1357 24.8712C88.5158 25.1374 89.6842 25.7207 89.7423 26.2012L89.7409 26.1867Z" fill="#00618A"/>
<path fill-rule="evenodd" clip-rule="evenodd" d="M65.8039 5.91643C65.4111 5.90921 65.1336 5.95884 64.8398 6.0229V6.07613H64.8934C65.0805 6.45869 65.4111 6.70455 65.6427 7.03387L66.1785 8.15087L66.2321 8.09763C66.5636 7.8653 66.7157 7.49402 66.7135 6.92696C66.5804 6.78801 66.5609 6.61387 66.4455 6.44786C66.2925 6.22681 65.9914 6.10139 65.803 5.91553L65.8039 5.91643Z" fill="#00618A"/>
<path fill-rule="evenodd" clip-rule="evenodd" d="M88.4844 41.5155C88.4844 42.8553 89.5502 43.7585 90.7422 43.7585C91.9342 43.7585 93 42.8553 93 41.5155C93 40.1756 91.9342 39.2725 90.7422 39.2725C89.5502 39.2725 88.4844 40.1756 88.4844 41.5155ZM92.4941 41.5155C92.4941 42.5323 91.7117 43.292 90.7413 43.292C89.7604 43.292 88.9884 42.5323 88.9884 41.5155C88.9884 40.4986 89.7595 39.7389 90.7413 39.7389C91.7108 39.7389 92.4941 40.4986 92.4941 41.5155ZM91.3498 42.7958H91.8552L91.115 41.6716C91.5123 41.6296 91.8129 41.4379 91.8129 40.9714C91.8129 40.4508 91.4814 40.2361 90.8439 40.2361H89.8381V42.7962H90.2717V41.6896H90.675L91.3493 42.7962L91.3498 42.7958ZM90.2717 41.3296V40.5943H90.7712C91.0301 40.5943 91.3434 40.6421 91.3434 40.9416C91.3434 41.3003 91.0605 41.3305 90.7349 41.3305H90.2717V41.3296Z" fill="#E48E00"/>
</svg>
