<svg width="89" height="81" viewBox="0 0 89 81" fill="none" xmlns="http://www.w3.org/2000/svg">
<path d="M26.022 36.5331L11.8164 41.6152C11.9989 43.8545 12.3906 46.0665 12.9426 48.234L26.4353 43.4024C26.0029 41.1631 25.8482 38.85 26.0251 36.5327L26.022 36.5331ZM88.7978 21.0881C87.8072 19.0788 86.6612 17.1368 85.3337 15.3066L71.1323 20.3888C72.7851 22.0512 74.1713 23.9193 75.3058 25.9173L88.7981 21.0874V21.0881H88.7978Z" fill="#DA2430"/>
<path d="M63.5992 21.0056C61.8126 19.4813 59.7945 18.1655 57.5484 17.1354H57.5474C44.3602 11.0901 28.6249 16.7143 22.4768 29.6859C22.1339 30.4102 21.8262 31.1501 21.5546 31.903C20.7871 34.0982 20.3387 36.3426 20.1674 38.5833L20.1173 38.6017L20.1135 38.6509L11.5642 41.7098L6.0633 43.7088L6.06087 43.6788L5.91001 43.7328C5.37612 37.0904 6.51482 30.2287 9.57811 23.7695C9.97623 22.9298 10.4037 22.1038 10.8597 21.293C20.9585 2.79768 43.9375 -4.9332 63.317 4.09163C67.2297 5.91275 70.8166 8.34509 73.9382 11.2941C75.9752 13.1479 77.8132 15.2025 79.4232 17.4255L65.2218 22.5091C65.1486 22.4356 65.075 22.3626 65.001 22.29L64.9618 22.304C64.5231 21.8559 64.0688 21.423 63.5996 21.0059L63.5992 21.0056Z" fill="#DA2430"/>
<path d="M6.70445 66.2683L6.6822 66.2766C3.73391 62.1932 1.58204 57.6072 0.335938 52.7516L13.831 47.9189L13.8317 47.92L13.8401 47.9627L13.9277 47.9309L13.9298 47.936C14.6229 51.5451 16.0657 54.9885 18.1696 58.0163C18.9759 59.1479 19.8734 60.2138 20.8537 61.2036L20.8002 61.2231L20.9024 61.3284L6.82923 66.4447C6.78752 66.3863 6.74581 66.3275 6.70445 66.2683V66.2683Z" fill="#E82429"/>
<path d="M60.3044 62.6973C52.9873 67.1461 43.6017 68.0057 35.2387 64.171C32.3664 62.8563 29.7613 61.0387 27.5508 58.8069L13.3789 63.8802L13.4877 64.0295L13.4807 64.0323C17.3772 69.5061 22.6925 74.0817 29.2147 77.1215C43.2816 83.6708 59.2418 81.3939 70.798 72.5814C75.9729 68.7699 80.2931 63.6898 83.2115 57.5365C86.2768 51.0788 87.4089 44.2197 86.8663 37.5825L86.4715 37.724C86.4663 37.6529 86.4611 37.5818 86.4551 37.5107L72.3813 42.6226L72.382 42.624C72.152 45.7536 71.3507 48.817 70.0163 51.6673C67.8213 56.3677 64.3979 60.1118 60.3047 62.6973H60.3044Z" fill="#DA2430"/>
<path d="M75.9745 25.6772L76.1855 25.6014V25.601C78.4109 30.1067 79.7611 34.9813 80.1668 39.9742L65.9946 45.0441L66.0022 44.9402L65.7346 45.0376C66.1204 39.8809 64.9438 34.7526 62.4551 30.2994L75.8539 25.4291L75.8546 25.4277C75.8949 25.5108 75.9349 25.5938 75.9745 25.6772Z" fill="#E82429"/>
<path d="M26.0387 36.4513L11.9336 41.5766C12.1143 43.8357 12.5036 46.0661 13.0525 48.252L26.4506 43.3791C26.0172 41.1158 25.8615 38.7863 26.0443 36.45L26.0387 36.4513ZM88.3742 20.8764C87.3905 18.8501 86.2518 16.8921 84.9337 15.0461L70.8324 20.1714C72.473 21.8481 73.8495 23.7319 74.9757 25.7474L88.3724 20.8751L88.3745 20.8764H88.3742Z" fill="#C22035"/>
<path d="M11.9334 41.5776L26.0044 36.5094L25.9471 39.2891L12.3717 44.3299L11.9316 41.5742L11.9334 41.5776V41.5776ZM70.835 20.1293L85.1254 15.3076L86.6106 17.5117L72.7259 22.3379L70.8371 20.1283L70.835 20.1293V20.1293Z" fill="#AC223B"/>
<path d="M13.4824 63.9802L27.5702 58.9394L31.8309 62.892L17.0574 68.3453L13.4831 63.9788L13.4824 63.9802V63.9802ZM86.6901 37.5479L72.3816 42.6211L71.3277 48.2528L86.584 42.9065L86.6921 37.5485L86.6904 37.5479H86.6901Z" fill="#B92135"/>
</svg>
