<svg width="15" height="15" viewBox="0 0 15 15" fill="none" xmlns="http://www.w3.org/2000/svg">
<path d="M6.5952 8.37244C5.26786 7.0451 4.96815 5.71776 4.90054 5.18596C4.88164 5.03891 4.93224 4.89145 5.03744 4.78699L6.11159 3.71332C6.2696 3.55541 6.29764 3.30931 6.1792 3.1199L4.46896 0.464256C4.33793 0.254521 4.06889 0.178825 3.84773 0.289467L1.10217 1.58252C0.923321 1.67059 0.818123 1.86061 0.83843 2.05894C0.982289 3.4256 1.57811 6.78519 4.87968 10.087C8.18125 13.3888 11.5404 13.9844 12.9077 14.1282C13.1061 14.1486 13.2961 14.0434 13.3842 13.8645L14.6772 11.119C14.7874 10.8983 14.7122 10.6299 14.5034 10.4987L11.8477 8.78891C11.6584 8.67035 11.4123 8.69819 11.2543 8.85605L10.1806 9.93019C10.0762 10.0354 9.92872 10.086 9.78168 10.0671C9.24988 9.99949 7.92254 9.69978 6.5952 8.37244Z" fill="#2E62C1"/>
<path d="M11.866 7.65743C11.6012 7.65743 11.3865 7.44273 11.3865 7.17789C11.3843 5.19254 9.77537 3.58366 7.79002 3.58141C7.52519 3.58141 7.31049 3.36672 7.31049 3.10188C7.31049 2.83704 7.52519 2.62235 7.79002 2.62235C10.3048 2.62513 12.3428 4.66309 12.3456 7.17789C12.3456 7.44273 12.1309 7.65743 11.866 7.65743Z" fill="#2E62C1"/>
<path d="M14.2637 7.65734C13.9989 7.65734 13.7842 7.44264 13.7842 7.17781C13.7805 3.86887 11.099 1.18737 7.79002 1.18367C7.52519 1.18367 7.31049 0.968978 7.31049 0.70414C7.31049 0.439303 7.52519 0.224609 7.79002 0.224609C11.6284 0.228838 14.739 3.33941 14.7432 7.17781C14.7432 7.30499 14.6927 7.42696 14.6028 7.51689C14.5128 7.60682 14.3909 7.65734 14.2637 7.65734Z" fill="#2E62C1"/>
</svg>
