<svg width="26" height="25" viewBox="0 0 26 25" fill="none" xmlns="http://www.w3.org/2000/svg">
<path d="M10.6701 14.6479C8.2839 12.2617 7.7451 9.87545 7.62355 8.91941C7.58958 8.65506 7.68055 8.38996 7.86967 8.20216L9.80073 6.27197C10.0848 5.98808 10.1352 5.54566 9.92228 5.20515L6.84768 0.430958C6.61212 0.0539056 6.12846 -0.0821761 5.73086 0.11673L0.79503 2.44132C0.4735 2.59965 0.284381 2.94127 0.320887 3.2978C0.57951 5.75472 1.65064 11.7944 7.58605 17.7303C13.5215 23.6661 19.5603 24.7368 22.0185 24.9954C22.3751 25.0319 22.7167 24.8428 22.875 24.5213L25.1996 19.5855C25.3978 19.1887 25.2626 18.7064 24.8871 18.4704L20.1129 15.3966C19.7726 15.1835 19.3302 15.2335 19.0461 15.5173L17.1159 17.4484C16.9281 17.6375 16.663 17.7285 16.3986 17.6945C15.4426 17.5729 13.0564 17.0341 10.6701 14.6479Z" fill="#63D2DD"/>
<path d="M20.1456 13.3624C19.6695 13.3624 19.2835 12.9764 19.2835 12.5003C19.2795 8.93112 16.3871 6.03874 12.8179 6.0347C12.3418 6.0347 11.9558 5.64874 11.9558 5.17263C11.9558 4.69651 12.3418 4.31055 12.8179 4.31055C17.3389 4.31554 21.0027 7.97929 21.0077 12.5003C21.0077 12.9764 20.6217 13.3624 20.1456 13.3624Z" fill="#63D2DD"/>
<path d="M24.456 13.3622C23.9799 13.3622 23.5939 12.9762 23.5939 12.5001C23.5872 6.55148 18.7666 1.73081 12.8179 1.72416C12.3418 1.72416 11.9558 1.33819 11.9558 0.862078C11.9558 0.385965 12.3418 0 12.8179 0C19.7184 0.00760175 25.3105 5.59965 25.3181 12.5001C25.3181 12.7288 25.2272 12.948 25.0656 13.1097C24.9039 13.2714 24.6846 13.3622 24.456 13.3622Z" fill="#63D2DD"/>
</svg>
