<svg width="100" height="89" viewBox="0 0 100 89" fill="none" xmlns="http://www.w3.org/2000/svg">
<path d="M49.9998 53.3365C54.9454 53.3365 58.9547 49.3273 58.9547 44.3816C58.9547 39.436 54.9454 35.4268 49.9998 35.4268C45.0542 35.4268 41.0449 39.436 41.0449 44.3816C41.0449 49.3273 45.0542 53.3365 49.9998 53.3365Z" fill="#00D8FF"/>
<path fill-rule="evenodd" clip-rule="evenodd" d="M50.0008 26.1743C62.0239 26.1743 73.1931 27.8995 81.6146 30.7988C91.7614 34.292 98 39.5869 98 44.3815C98 49.3777 91.3883 55.0028 80.492 58.613C72.2542 61.3423 61.4138 62.7671 50.0008 62.7671C38.2993 62.7671 27.2187 61.4298 18.888 58.583C8.34822 54.9805 2 49.2826 2 44.3815C2 39.6258 7.95659 34.3718 17.9607 30.8839C26.4136 27.9368 37.8586 26.1743 49.9992 26.1743H50.0008Z" stroke="#00D8FF" stroke-width="2.73408"/>
<path fill-rule="evenodd" clip-rule="evenodd" d="M34.1507 35.3305C40.1573 24.9153 47.2313 16.1016 53.9501 10.2546C62.0451 3.20987 69.7487 0.450951 73.9019 2.8459C78.2302 5.34189 79.7999 13.8798 77.4839 25.1222C75.7345 33.622 71.5515 43.7241 65.8499 53.611C60.0039 63.7477 53.3101 72.6785 46.6829 78.4712C38.2969 85.8019 30.1894 88.4548 25.9437 86.0063C21.8239 83.6322 20.2485 75.846 22.2248 65.437C23.8947 56.6423 28.0854 45.8474 34.1487 35.3303L34.1507 35.3305Z" stroke="#00D8FF" stroke-width="2.73408"/>
<path fill-rule="evenodd" clip-rule="evenodd" d="M34.166 53.6375C28.1425 43.2341 24.0414 32.7017 22.3296 23.9608C20.269 13.4292 21.7259 5.37703 25.8753 2.97512C30.1993 0.471813 38.3802 3.37567 46.9635 10.997C53.4531 16.759 60.1169 25.4265 65.8352 35.304C71.6979 45.431 76.0919 55.6907 77.8012 64.3251C79.9641 75.2517 78.2135 83.6004 73.9718 86.0559C69.8561 88.4385 62.3246 85.916 54.2938 79.0051C47.5084 73.1663 40.249 64.1443 34.166 53.6374V53.6375Z" stroke="#00D8FF" stroke-width="2.73408"/>
</svg>
