<svg width="72" height="71" viewBox="0 0 72 71" fill="none" xmlns="http://www.w3.org/2000/svg">
<path fill-rule="evenodd" clip-rule="evenodd" d="M14.4717 70.8022L66.9592 67.2402L71.0015 14.3154L55.0084 46.7318L14.4717 70.8022V70.8022Z" fill="url(#paint0_linear_203_188)"/>
<path fill-rule="evenodd" clip-rule="evenodd" d="M50.2441 52.2946L67.0436 67.2055L62.532 36.0684L50.2441 52.2946V52.2946Z" fill="url(#paint1_linear_203_188)"/>
<path fill-rule="evenodd" clip-rule="evenodd" d="M14.6475 70.7352L67.1065 67.2054L34.0558 64.6108L14.6475 70.7352V70.7352Z" fill="url(#paint2_linear_203_188)"/>
<path fill-rule="evenodd" clip-rule="evenodd" d="M4.7793 47.5788L14.6913 70.7426L22.9476 43.6943L4.7793 47.5788V47.5788Z" fill="url(#paint3_linear_203_188)"/>
<path fill-rule="evenodd" clip-rule="evenodd" d="M20.9023 43.0059L50.2406 52.3839L42.6436 22.6265L20.9023 43.0059Z" fill="url(#paint4_linear_203_188)"/>
<path fill-rule="evenodd" clip-rule="evenodd" d="M43.002 24.7619L69.2762 23.0454L48.7247 6.26025L43.002 24.7619V24.7619Z" fill="url(#paint5_linear_203_188)"/>
<path fill-rule="evenodd" clip-rule="evenodd" d="M39.9541 0.187012L59.6671 0.276599L47.5799 6.95631L39.9541 0.187012Z" fill="url(#paint6_linear_203_188)"/>
<path fill-rule="evenodd" clip-rule="evenodd" d="M0.967442 36.4155L0 56.6515L5.06345 47.4168L0.967442 36.4155Z" fill="url(#paint7_linear_203_188)"/>
<path fill-rule="evenodd" clip-rule="evenodd" d="M0.695312 36.068L4.81635 47.7574L22.723 43.7403L43.1671 24.7406L48.9365 6.41444L39.8523 0L24.4074 5.78016C19.5409 10.3063 10.0983 19.2614 9.75802 19.4299C9.42119 19.6019 3.52257 30.7501 0.695312 36.068V36.068Z" fill="white"/>
<path fill-rule="evenodd" clip-rule="evenodd" d="M15.1635 15.0683C25.7098 4.61174 39.3056 -1.56631 44.5232 3.69784C49.7371 8.96217 44.2077 21.7552 33.6616 32.2083C23.1153 42.6613 9.68795 49.1799 4.47384 43.9155C-0.743766 38.6551 4.61715 25.5215 15.1635 15.0683Z" fill="url(#paint8_linear_203_188)"/>
<path fill-rule="evenodd" clip-rule="evenodd" d="M14.6924 70.7309L22.8842 43.5967L50.0902 52.3367C40.2534 61.5608 29.313 69.3584 14.6924 70.7309Z" fill="url(#paint9_linear_203_188)"/>
<path fill-rule="evenodd" clip-rule="evenodd" d="M43.2012 24.6865L50.1853 52.351C58.4024 43.7113 65.7773 34.4228 69.3893 22.9341L43.2012 24.6865Z" fill="url(#paint10_linear_203_188)"/>
<path fill-rule="evenodd" clip-rule="evenodd" d="M69.3208 23.0735C72.1158 14.6379 72.7608 2.53642 59.5807 0.289551L48.7656 6.26323L69.3208 23.0735Z" fill="url(#paint11_linear_203_188)"/>
<path fill-rule="evenodd" clip-rule="evenodd" d="M0 56.5295C0.386872 70.4515 10.4315 70.6594 14.7102 70.7811L4.82689 47.6997L0 56.5295V56.5295Z" fill="#9E1209"/>
<path fill-rule="evenodd" clip-rule="evenodd" d="M43.2432 24.7304C49.5572 28.6112 62.2823 36.4053 62.5404 36.5488C62.9416 36.7745 68.0266 27.9734 69.1805 22.9995L43.2432 24.7304V24.7304Z" fill="url(#paint12_radial_203_188)"/>
<path fill-rule="evenodd" clip-rule="evenodd" d="M22.873 43.5972L33.8243 64.7255C40.2998 61.2136 45.3704 56.9349 50.0146 52.3516L22.873 43.5972Z" fill="url(#paint13_radial_203_188)"/>
<path fill-rule="evenodd" clip-rule="evenodd" d="M4.78491 47.7287L3.2334 66.2053C6.1611 70.2046 10.1889 70.5521 14.4138 70.2404C11.3572 62.6327 5.25087 47.4206 4.78491 47.7287Z" fill="url(#paint14_linear_203_188)"/>
<path fill-rule="evenodd" clip-rule="evenodd" d="M48.6992 6.31045L70.4547 9.36361C69.2935 4.44346 65.7281 1.26852 59.6504 0.275879L48.6992 6.31045V6.31045Z" fill="url(#paint15_linear_203_188)"/>
<defs>
<linearGradient id="paint0_linear_203_188" x1="62.3797" y1="77.2399" x2="47.4007" y2="50.7936" gradientUnits="userSpaceOnUse">
<stop stop-color="#FB7655"/>
<stop offset="0.41" stop-color="#E42B1E"/>
<stop offset="0.99001" stop-color="#990000"/>
<stop offset="1" stop-color="#990000"/>
</linearGradient>
<linearGradient id="paint1_linear_203_188" x1="69.8402" y1="55.0274" x2="50.5363" y2="42.0732" gradientUnits="userSpaceOnUse">
<stop stop-color="#871101"/>
<stop offset="0.99001" stop-color="#911209"/>
<stop offset="1" stop-color="#911209"/>
</linearGradient>
<linearGradient id="paint2_linear_203_188" x1="54.3971" y1="78.043" x2="35.0931" y2="65.0889" gradientUnits="userSpaceOnUse">
<stop stop-color="#871101"/>
<stop offset="0.99001" stop-color="#911209"/>
<stop offset="1" stop-color="#911209"/>
</linearGradient>
<linearGradient id="paint3_linear_203_188" x1="13.8658" y1="45.6514" x2="16.8584" y2="65.1002" gradientUnits="userSpaceOnUse">
<stop stop-color="white"/>
<stop offset="0.23" stop-color="#E57252"/>
<stop offset="0.46001" stop-color="#DE3B20"/>
<stop offset="0.99001" stop-color="#A60003"/>
<stop offset="1" stop-color="#A60003"/>
</linearGradient>
<linearGradient id="paint4_linear_203_188" x1="34.449" y1="27.4896" x2="35.5516" y2="47.3386" gradientUnits="userSpaceOnUse">
<stop stop-color="white"/>
<stop offset="0.23" stop-color="#E4714E"/>
<stop offset="0.56" stop-color="#BE1A0D"/>
<stop offset="0.99001" stop-color="#A80D00"/>
<stop offset="1" stop-color="#A80D00"/>
</linearGradient>
<linearGradient id="paint5_linear_203_188" x1="52.7147" y1="9.14613" x2="56.0155" y2="23.3709" gradientUnits="userSpaceOnUse">
<stop stop-color="white"/>
<stop offset="0.17999" stop-color="#E46342"/>
<stop offset="0.39999" stop-color="#C82410"/>
<stop offset="0.99001" stop-color="#A80D00"/>
<stop offset="1" stop-color="#A80D00"/>
</linearGradient>
<linearGradient id="paint6_linear_203_188" x1="42.6368" y1="4.13692" x2="56.8612" y2="-2.97528" gradientUnits="userSpaceOnUse">
<stop stop-color="white"/>
<stop offset="0.53999" stop-color="#C81F11"/>
<stop offset="0.99001" stop-color="#BF0905"/>
<stop offset="1" stop-color="#BF0905"/>
</linearGradient>
<linearGradient id="paint7_linear_203_188" x1="1.39893" y1="40.6925" x2="2.56967" y2="52.4141" gradientUnits="userSpaceOnUse">
<stop stop-color="white"/>
<stop offset="0.31" stop-color="#DE4024"/>
<stop offset="0.99001" stop-color="#BF190B"/>
<stop offset="1" stop-color="#BF190B"/>
</linearGradient>
<linearGradient id="paint8_linear_203_188" x1="-6.65305" y1="55.5833" x2="48.3804" y2="-1.00644" gradientUnits="userSpaceOnUse">
<stop stop-color="#BD0012"/>
<stop offset="0.07001" stop-color="white"/>
<stop offset="0.27" stop-color="#C82F1C"/>
<stop offset="0.33" stop-color="#820C01"/>
<stop offset="0.46001" stop-color="#A31601"/>
<stop offset="0.72" stop-color="#B31301"/>
<stop offset="0.99001" stop-color="#E82609"/>
<stop offset="1" stop-color="#E82609"/>
</linearGradient>
<linearGradient id="paint9_linear_203_188" x1="35.5042" y1="61.2895" x2="18.929" y2="57.1987" gradientUnits="userSpaceOnUse">
<stop stop-color="#8C0C01"/>
<stop offset="0.53999" stop-color="#990C00"/>
<stop offset="0.99001" stop-color="#A80D0E"/>
<stop offset="1" stop-color="#A80D0E"/>
</linearGradient>
<linearGradient id="paint10_linear_203_188" x1="63.9731" y1="41.394" x2="49.2471" y2="28.1955" gradientUnits="userSpaceOnUse">
<stop stop-color="#7E110B"/>
<stop offset="0.99001" stop-color="#9E0C00"/>
<stop offset="1" stop-color="#9E0C00"/>
</linearGradient>
<linearGradient id="paint11_linear_203_188" x1="69.3862" y1="17.1774" x2="62.0507" y2="9.33522" gradientUnits="userSpaceOnUse">
<stop stop-color="#79130D"/>
<stop offset="0.99001" stop-color="#9E120B"/>
<stop offset="1" stop-color="#9E120B"/>
</linearGradient>
<radialGradient id="paint12_radial_203_188" cx="0" cy="0" r="1" gradientUnits="userSpaceOnUse" gradientTransform="translate(51.5424 28.45) scale(18.0465)">
<stop stop-color="#A80D00"/>
<stop offset="0.99001" stop-color="#7E0E08"/>
<stop offset="1" stop-color="#7E0E08"/>
</radialGradient>
<radialGradient id="paint13_radial_203_188" cx="0" cy="0" r="1" gradientUnits="userSpaceOnUse" gradientTransform="translate(26.5498 52.2298) scale(23.9905 23.9905)">
<stop stop-color="#A30C00"/>
<stop offset="0.99001" stop-color="#800E08"/>
<stop offset="1" stop-color="#800E08"/>
</radialGradient>
<linearGradient id="paint14_linear_203_188" x1="9.5586" y1="70.7165" x2="3.58057" y2="50.435" gradientUnits="userSpaceOnUse">
<stop stop-color="#8B2114"/>
<stop offset="0.42999" stop-color="#9E100A"/>
<stop offset="0.99001" stop-color="#B3100C"/>
<stop offset="1" stop-color="#B3100C"/>
</linearGradient>
<linearGradient id="paint15_linear_203_188" x1="55.4157" y1="3.51118" x2="68.818" y2="9.4272" gradientUnits="userSpaceOnUse">
<stop stop-color="#B31000"/>
<stop offset="0.44" stop-color="#910F08"/>
<stop offset="0.99001" stop-color="#791C12"/>
<stop offset="1" stop-color="#791C12"/>
</linearGradient>
</defs>
</svg>
